<mxfile host="Electron" agent="Mozilla/5.0 (Windows NT 10.0; Win64; x64) AppleWebKit/537.36 (KHTML, like Gecko) draw.io/26.0.16 Chrome/132.0.6834.196 Electron/34.2.0 Safari/537.36" version="26.0.16" pages="2">
  <diagram name="feature" id="wbvnQi7cvZPnDNiiUd1S">
    <mxGraphModel dx="3240" dy="2523" grid="1" gridSize="10" guides="1" tooltips="1" connect="1" arrows="1" fold="1" page="1" pageScale="1" pageWidth="850" pageHeight="1100" math="0" shadow="0">
      <root>
        <mxCell id="0" />
        <mxCell id="1" parent="0" />
        <mxCell id="lDpA7Yqyfx-ejWaGdRT3-14" value="" style="edgeStyle=orthogonalEdgeStyle;rounded=0;orthogonalLoop=1;jettySize=auto;html=1;" edge="1" parent="1" source="lDpA7Yqyfx-ejWaGdRT3-1" target="lDpA7Yqyfx-ejWaGdRT3-4">
          <mxGeometry relative="1" as="geometry" />
        </mxCell>
        <mxCell id="lDpA7Yqyfx-ejWaGdRT3-1" value="Read .wav" style="rounded=0;whiteSpace=wrap;html=1;fontSize=24;" vertex="1" parent="1">
          <mxGeometry x="-31.709999999999994" y="40" width="200" height="120" as="geometry" />
        </mxCell>
        <mxCell id="lDpA7Yqyfx-ejWaGdRT3-15" value="" style="edgeStyle=orthogonalEdgeStyle;rounded=0;orthogonalLoop=1;jettySize=auto;html=1;" edge="1" parent="1" source="lDpA7Yqyfx-ejWaGdRT3-4" target="lDpA7Yqyfx-ejWaGdRT3-8">
          <mxGeometry relative="1" as="geometry" />
        </mxCell>
        <mxCell id="lDpA7Yqyfx-ejWaGdRT3-4" value="STFT Power Spectrum" style="rounded=0;whiteSpace=wrap;html=1;fontSize=24;" vertex="1" parent="1">
          <mxGeometry x="320" y="40" width="200" height="120" as="geometry" />
        </mxCell>
        <mxCell id="lDpA7Yqyfx-ejWaGdRT3-17" value="" style="edgeStyle=orthogonalEdgeStyle;rounded=0;orthogonalLoop=1;jettySize=auto;html=1;entryX=0;entryY=0.5;entryDx=0;entryDy=0;" edge="1" parent="1" source="lDpA7Yqyfx-ejWaGdRT3-8" target="lDpA7Yqyfx-ejWaGdRT3-13">
          <mxGeometry relative="1" as="geometry">
            <mxPoint x="930" y="100" as="targetPoint" />
          </mxGeometry>
        </mxCell>
        <mxCell id="lDpA7Yqyfx-ejWaGdRT3-8" value="Bin with Mel Frequencies&lt;div&gt;&amp;amp; log10&lt;/div&gt;" style="rounded=0;whiteSpace=wrap;html=1;fontSize=24;" vertex="1" parent="1">
          <mxGeometry x="640" y="40" width="200" height="120" as="geometry" />
        </mxCell>
        <mxCell id="lDpA7Yqyfx-ejWaGdRT3-11" value="" style="shape=image;verticalLabelPosition=bottom;labelBackgroundColor=default;verticalAlign=top;aspect=fixed;imageAspect=0;image=data:image/png,iVBORw0KGgoAAAANSUhEUgAAAqsAAAGuCAYAAAC3Pk/fAAAAAXNSR0IArs4c6QAAAARnQU1BAACxjwv8YQUAAAAJcEhZcwAADsMAAA7DAcdvqGQAABomSURBVHhe7djLr6T5fdfx89Tt1LmfvvdMz83jGdtJnATHxiaxIyIiARIXkQ0CRYIFkbKAPf8AYgEs2CCxZeNFhCIQK6QsErIBochAHMf2jC/jmfFM93SfPt3nVnWq6nkYw3fJqr+/xVfo9epFv1elqudWn1Pd0z//V8NWA8NyFZU0GkXkbC7Oo3LGu3tROa3ez/rZWVTOzpuvR+VsLq6icvrFIipncuMoqob+ss3nanV8+sUyKufie4+ici7ffxaVMzueR+V0oy4qp19uonLG+9OovPFum9fae/teVM72G29E5ay3H0TlPNz6UlTOuGtz7j84mUXl9EOTr/itq+s2n+vJyWVUzv7+dlTO5VWb7TLfnkTljBo9gz755CIqZzJts8myarwLAAD4fzBWAQAoy1gFAKAsYxUAgLKMVQAAyjJWAQAoy1gFAKAsYxUAgLKMVQAAyjJWAQAoy1gFAKAsYxUAgLKMVQAAyjJWAQAoy1gFAKAsYxUAgLK6n3zzd4folMn+LCpnvL8TlTO9dTMqZ3ywH5XTX11F5QybTVTO5uwsKmd18jwqZ3r7RlROf34elTM+OozKWT1+GpXUxf9FXPz5J1E5i4cXUTnTw+2onPX5dVTO0Dd5rG7Njtp8rv+ja3MRzV87isrZ/6XPRuV0R/ejcla7X4jKuerbPDs+Or8dlTObtjnv3/lRm2fZ8cE8Kud63ea7cOgjkkajNsd51ehzPXu+jMo5PmpzvqaT3G+jflkFAKAsYxUAgLKMVQAAyjJWAQAoy1gFAKAsYxUAgLKMVQAAyjJWAQAoy1gFAKAsYxUAgLKMVQAAyjJWAQAoy1gFAKAsYxUAgLKMVQAAyjJWAQAoy1gFAKCs7smf/LMhOmVydBCV02/fjErq1xFJ548jcrrdNsen2yyjcjZXjV7n/CwqZ3LQ5visnp5G5Uxv3ojKWT15GpW0aXQ9d11EzuKjNse5X7T5XMO6j8rpxm2OTyuTw3lU3vTGblTO5Eabe6N/5etROedbL0XlXK13onIWmzbH+Qcftnm2Lq/b3GMnTy6jcvb3t6NyHj85j8qZTsdROUeHba6f84s2383b29OonFGrR2Lyu8cvqwAAlGWsAgBQlrEKAEBZxioAAGUZqwAAlGWsAgBQlrEKAEBZxioAAGUZqwAAlGWsAgBQlrEKAEBZxioAAGUZqwAAlGWsAgBQlrEKAEBZxioAAGUZqwAAlNU9/fa/GKJT+tU6Kme8uxOVs7rxK1E5k8WPo3KG0W5UTj85iEoaVhFJ3SQip5/ciMoZrZ9G5Qxb06icycm3onKuP/w4KufiB4+jctZPF1E5R197PSrn4rttjs9op815v/7kIipndrPN8/Bndj5zKypn+vaXonIeTn49KmfY6qJyJl2b77Drfjsq52zZ5lp8eHIZlfPavf2onPcfnUflTMZtfmt790dPonLG43FUzp3be1E5q/UmKufhw7OonJ35LOrF+GUVAICyjFUAAMoyVgEAKMtYBQCgLGMVAICyjFUAAMoyVgEAKMtYBQCgLGMVAICyjFUAAMoyVgEAKMtYBQCgLGMVAICyjFUAAMoyVgEAKMtYBQCgLGMVAICyug9//x8P0Snz1+9H5awen0TlzD/zWlROv7iOSur7iJxhs47KmRwdRuWsn51F5fSLq6icyStvReVc7/9SVM7s8jtRSWcPI3LWp8+icobrVVTO5PgoKmfxwUdROcN6E5UzbJo8VrfGO9OovG7UReVMbt2Iyhnd/2xUzsn0V6NyRl2bc789WkTlnCxvR+WcXo2jcg7mEUnrfhKVMx61ucc+PmlzvhrdXlvnV22+46+WbZ7R27M25+uDD0+jXoxfVgEAKMtYBQCgLGMVAICyjFUAAMoyVgEAKMtYBQCgLGMVAICyjFUAAMoyVgEAKMtYBQCgLGMVAICyjFUAAMoyVgEAKMtYBQCgLGMVAICyjFUAAMoyVgEAKKv74b/9h0N0yuRoHpUzmrTZzzu/9teictbf+eOopFEXkdMvr6NyRtNpVM7q9DIqp1/1UTmjcZvjvDVucx1ePzyPSmp0/Yym46ic9UWb63D5cZvjMz1u8/yZ3dqJyrn68CwqZ3O5isqb3Wzz2Sb7s6ic/S8+iMoZfe4bUTlDN4lKGm1H5Cy721E5/VabZ8fZ6igq52h6GpWz2LS5np83+lz90OY4f/fHJ1E5Nw7bPBPv3tiNynnv4+dRL8YvqwAAlGWsAgBQlrEKAEBZxioAAGUZqwAAlGWsAgBQlrEKAEBZxioAAGUZqwAAlGWsAgBQlrEKAEBZxioAAGUZqwAAlGWsAgBQlrEKAEBZxioAAGUZqwAAlNW9+69/e4hO6a/WUTmT43lUzsEvvhKVs/zoJCpntD2Jypm9fCcqZzRp836WHz2Myum6Lirn8kdPo3I2F6uonNXzRVTOqtH7Of/wPCpnWPdROaPtcVTOptHzZ3G6jMo5P9tE5ezutTk+P3Pr7eOonPG8zXs6+sLtqJybf+MbUTnD+WlUznD0elTO+fyLUTk7fZtn9DDej8o537S5Dhebnaic8+s2r3N2eR2V8/SszTPojZcOo3ImXZtn/adXUPz/YvyyCgBAWcYqAABlGasAAJRlrAIAUJaxCgBAWcYqAABlGasAAJRlrAIAUJaxCgBAWcYqAABlGasAAJRlrAIAUJaxCgBAWcYqAABlGasAAJRlrAIAUJaxCgBAWd17/+53huiU8XwSlXP9yUVUzuylg6icxQfPo3Ime9OopK6LyFk9XUTlPH/3JCpn2DS5DLfe+5PHUTknJ+uonKGPSHr753ajcnbutXmdzXITlXP0meOonNG00d/dbS7DrdnNeVTO5rLNdfgzlw/Po3I2izbn/vCtG1E5t3/7t6Jyrnfejso5Wd6Jyhl1bR4eF6v9qJxN3+bmmIwjki6XbY7PZNTmO/X5xXVUTqOv+GZev9Xmc62H3In3yyoAAGUZqwAAlGWsAgBQlrEKAEBZxioAAGUZqwAAlGWsAgBQlrEKAEBZxioAAGUZqwAAlGWsAgBQlrEKAEBZxioAAGUZqwAAlGWsAgBQlrEKAEBZxioAAGV17/zLvz9Ep0wOt6NyVqeLqJy9t29F5Vz+4CQqZzSfROV003FUzvr0Kipnc7WOyjn/4Cwq5+Lji6ic9aLN55ruTaNybv387aic3deOonImB7OonPF+m9eZ3T2OytlctLkvRtuNnocnz6Pyhk2TR/3WaNLmN47x4W5UzuztL0XlLHe/EJXzg9MHUTndp/9auFysonI+afSd8cZLh1E5D08uo3KO99vcq62Oz93jnaicTd9H5bxyo80m67rc88cvqwAAlGWsAgBQlrEKAEBZxioAAGUZqwAAlGWsAgBQlrEKAEBZxioAAGUZqwAAlGWsAgBQlrEKAEBZxioAAGUZqwAAlGWsAgBQlrEKAEBZxioAAGUZqwAAlNX999/5q0N0Sr9p8jJbV48uonKme7OonNMP27yf3YNJVM7scDsqZ//Vg6icftVH5dz/629F5ayeLaJy5i/diMrZXF5F5Uxvt3k/0zv3onKGUZv7axjtRiUNy4icoduJyhldfhiVNGt0fD7VT9tcQ8NoHpXTj/ajcoZxm/dz1t+Nynn/aZtn68nzNs+yVk4bPVv3Gn03P2t0fIY202Xr5XttrudW7t5o8+w4np9F5ayG3Hn3yyoAAGUZqwAAlGWsAgBQlrEKAEBZxioAAGUZqwAAlGWsAgBQlrEKAEBZxioAAGUZqwAAlGWsAgBQlrEKAEBZxioAAGUZqwAAlGWsAgBQlrEKAEBZxioAAGV13/yFLw3RKavriKS+b/J2th68th2VM52Po3Luf/WlqJzLhxdROdODWVTOzt29qJzJ8TwqZ7w7jcrZ+8KrUTnjg/2onH6xjErq2vx9Ojo4ispZzT8bldN1bZ4b/ajN+RptTqNyVpM2z42fGXWrqJxn17eicq6HNs/oxbrNs2PS9VE5q77NPfa/vvdJVM79Rs/oR4/bfPecPruKytmetXnWf/LoLCrnrc/dicq5ddTmel6uNlE5927uRuXsTtdRL8YvqwAAlGWsAgBQlrEKAEBZxioAAGUZqwAAlGWsAgBQlrEKAEBZxioAAGUZqwAAlGWsAgBQlrEKAEBZxioAAGUZqwAAlGWsAgBQlrEKAEBZxioAAGUZqwAAlNX93i9/eYhO6bqIpJc/dxCVs3tvNypn6Jscnq3bv/ZqVM78lZtROcN6E5UzOT6KSmp0AY33dqJy+t27UTnj1WlU0tBH5Gxmd6JyHk++GpUz7trcX+thEpWzPb6Kyhka/Q7w/LrR/fWpw9mzqJz3Ttq8p/WmzTV983A7Kuenjy+jcparNs/WTx5fROX8j//2flTOfHcWlXPjTptn9N27bbbCB++3eUa/9KDNfXHY6HqeTNo8g+7f3IvKee+nueePX1YBACjLWAUAoCxjFQCAsoxVAADKMlYBACjLWAUAoCxjFQCAsoxVAADKMlYBACjLWAUAoCxjFQCAsoxVAADKMlYBACjLWAUAoCxjFQCAsoxVAADKMlYBACir+y9/59eH6JS9+3tROdvH86ic/c/djMrZnF9H5ey8fhyV1HURObOX70TlDMtlVM6w2kTljHa2o3K62SwqZ3Lc5jocRm0+1/XeL0TlXPaHUTmLzW5Uzt7kLCrnar0TlTNqc5tu9U2ezv/XemhzTT98NonKuW50z984bPOd8c77p1E5z04XUTlPTy+jctarPirn6eOLqJz7r7R5dmw2bW6Os0bn6/6DNp/r/LzNd2rXaivMxlE5H3/wPOrF+GUVAICyjFUAAMoyVgEAKMtYBQCgLGMVAICyjFUAAMoyVgEAKMtYBQCgLGMVAICyjFUAAMoyVgEAKMtYBQCgLGMVAICyjFUAAMoyVgEAKMtYBQCgLGMVAICyjFUAAMrq/uhvfWOITrm+WEXl7D/Yj8rZPtqOyhk2fVROv2rzOuPZOCpnsjeNypnMJ1E5u28cR+WMpm3+/prdP4zK2Xn77aicJ7u/GZXz07M2x/nndv44KqmbReQ87r4YlbM7uYjKeby4F5Uz7jZReaOuzTPo5LzNM+jZxTIqpx+afIVtNXqZrcX1Oirnz/7046icvYM299jZszbn6/B4HpVzeXEdlXPVaLu8/OpRVM4f/f63o3Le/NKDqJwHr7f5zjg9uYp6MX5ZBQCgLGMVAICyjFUAAMoyVgEAKMtYBQCgLGMVAICyjFUAAMoyVgEAKMtYBQCgLGMVAICyjFUAAMoyVgEAKMtYBQCgLGMVAICyjFUAAMoyVgEAKMtYBQCgrO6bP/+lITrl1S8cROVsH21H5Yzn46ico8/fisrprzdRSZsmp2trNGtzfIa+zfs5+MV7UTn9ch2VM7vf5rxvvfbViKRuEpHzqP+FqJyX1n8QlTOM9qNy3hv+clTO4fRZVM6yb/Mce3Ixi8q7s7+Iyrlctzln7z88j8qZTds8y24ezqNyzi+vo3I+fHQRlfPkpM1xfvc7j6NyXv3scVRO3+i75/hoNyrn3e89isp58lGb8/XGF25H5fzg2w+jct7+pftRL8YvqwAAlGWsAgBQlrEKAEBZxioAAGUZqwAAlGWsAgBQlrEKAEBZxioAAGUZqwAAlGWsAgBQlrEKAEBZxioAAGUZqwAAlGWsAgBQlrEKAEBZxioAAGUZqwAAlNX9x699ZYhO2T8YR+WMJm328/2vvRyVs/PqYVTO/JWjqJyrn5xG5XSzNudrfbKIypnd24vKWX50HpUzvb0TlTN/qc31M9pt8362X7oXlbN62uY6HM3nUTmj7VlU0qzNdbievxaVM3n2nai89eHno3KGbhKV009vRuW8f/5mVE6TL8JPvb77/aicd55/Nirng4dtnonf+pMPonKeP23znXHvlTbP1qPjNs+gzaaPyvnpT55F5fzqN96IyvlP//5Po3K+/ptvRb0Yv6wCAFCWsQoAQFnGKgAAZRmrAACUZawCAFCWsQoAQFnGKgAAZRmrAACUZawCAFCWsQoAQFnGKgAAZRmrAACUZawCAFCWsQoAQFnGKgAAZRmrAACUZawCAFBW93u//OUhOmW57KNyJpOIpF/+rc9E5ayv1lE5091pVE6/aXOch77Jad9aniyikhr92XT16CoqZ7Lf5nwdPDiIytm+vROVM3/lKCqnX7e5DrtG533T6D4dGn2u6c0252t2cz8qb3r3TlTOsG5zrLduvRmR82j8l6JyjqanUTnzq+9E5by39VeicrouIul/vvssKufyYhWVc/v2blTOO+8+jsr5i3/hQVTO49M232Gz6Tgq550ftjk+rzw4jnoxflkFAKAsYxUAgLKMVQAAyjJWAQAoy1gFAKAsYxUAgLKMVQAAyjJWAQAoy1gFAKAsYxUAgLKMVQAAyjJWAQAoy1gFAKAsYxUAgLKMVQAAyjJWAQAoy1gFAKCs7j//xleH6JShyatsbV2cbaJy7n/uMCrn7pfvRyV1XURON2nzOv1iHZWzeHIVldPo8GxdPrqMyrlq9DoXz1dROadP2pyvq0UflXPW6D7dtHk7nz6A4v+krtGf76+9uh2V8+Xf/WJUA6NGN1mjkza7vReVc/CVNsfo4s++G5Uzns+ikn7l70XkTK/ei8r5ZPyVqJyr9W5Uzrhr80zcDJOonAfz70flDN04KueHz9+Kyvn+T55G5Rwd5J6JflkFAKAsYxUAgLKMVQAAyjJWAQAoy1gFAKAsYxUAgLKMVQAAyjJWAQAoy1gFAKAsYxUAgLKMVQAAyjJWAQAoy1gFAKAsYxUAgLKMVQAAyjJWAQAoy1gFAKCs7g//5teH6JRh3UflrJZtXufgwX5Uzo3P34zKGc8nUTW0Ol/ry1VUTqv3c/7xRVTO4slVVM6zR8uonGen66ic5883UTlXje7TyTgiaT5r83f3eNxF5Tx4bTsq57WvvxyVtzxdROX0je7VG1+8G5Uz3m3zbB3vzaJytu8dROV041rfGePDNt+pW12je/Vmm+unn9yIympzX/STw6icYavNs6yfttlAT69z58svqwAAlGWsAgBQlrEKAEBZxioAAGUZqwAAlGWsAgBQlrEKAEBZxioAAGUZqwAAlGWsAgBQlrEKAEBZxioAAGUZqwAAlGWsAgBQlrEKAEBZxioAAGUZqwAAlNV9/5//3SE6ZX21jso5++AsKqfruqicyc44Kmd+aycqp9XnGk3bfK7J0XZUzvyVw6ic5cOLqJzN+XVUzuLReVTO6rLN/bU4WUTlLE+uonKWV5uonOfP2rzO4qqPqmF7u93vCdfXbT7b1WWb17l9ZxKVc3jU5nUOXm/zDLr5c7ejcoa+zXFePGlzr44mba7F6d4sKmfn9aOonPlrbc7X5KjN9bO5vIzK6S/bnPduu8352n7ltagX45dVAADKMlYBACjLWAUAoCxjFQCAsoxVAADKMlYBACjLWAUAoCxjFQCAsoxVAADKMlYBACjLWAUAoCxjFQCAsoxVAADKMlYBACjLWAUAoCxjFQCAsoxVAADK6n74b/7BEF3C6ukiKmfo23ys0azNnh/vzaKShjafq5uOo3Jmd3ajcqY39qNyVqcXUTn91ToqZ/2szfW8uVxF5azOllE5188avc5Zm8+1XrQ5X62eG7P9aVTO7v29qLzu038tnH3wPCpnutfmGG0fbkfl7L11Mypn7+cfROUM601Uzurxs6icftnm/Uwana/Z/btROeObd6JyLve/FpWzvXw3Kme8ehqVM3RttsJ6/kbUi/HLKgAAZRmrAACUZawCAFCWsQoAQFnGKgAAZRmrAACUZawCAFCWsQoAQFnGKgAAZRmrAACUZawCAFCWsQoAQFnGKgAAZRmrAACUZawCAFCWsQoAQFnGKgAAZXU//Q//ZIhO2X71flROf3UVldMvllE5kxvHUTndbBaV0y/aHJ/prdtROZuLi6ic4brN+Rrt7kTl9JeLqJxhdR2VM2w2UUlN7vZPz/tlm+uwG7X5e3n15Dwqp79uc5zXz9tcz63ez8/0y3VUzmbZ5j1Nj+dRObtv3ojK2f3cm1E5/bLNPb8+OYnK6aaTqJzx4VFUzmhvPypnmLY575vJYVTOf/34F6NyrhrdX28/2IvKOW/zKNu6XKyiXoxfVgEAKMtYBQCgLGMVAICyjFUAAMoyVgEAKMtYBQCgLGMVAICyjFUAAMoyVgEAKMtYBQCgLGMVAICyjFUAAMoyVgEAKMtYBQCgLGMVAICyjFUAAMoyVgEAKKt79If/dIhOGR8dRSUNm4ic/nIRlTPa3Y3KGW3PonKG9ToqZ3xwEJXTX11F5QzrNue9m06icvrlMiqn1flqZtPo/rpeRSUNTR4/n16Hbe73ftHmfG0avU6/bHf9DOs+KqmL/5Mmh9tROdsPbkflzO7djcpqc4D6RZtn62g+j8pZz9+IytnM7kTlDN04Kud8fRyV8/2Pd6JyFtdt7vm9+TQqZ3Hd5jtjMsndF35ZBQCgLGMVAICyjFUAAMoyVgEAKMtYBQCgLGMVAICyjFUAAMoyVgEAKMtYBQCgLGMVAICyjFUAAMoyVgEAKMtYBQCgLGMVAICyjFUAAMoyVgEAKMtYBQCgrO6P33k4ROcMXUROP7R5O9NJmx3etflYW6tVH5Wz6du8TitdowO02TT6XI3O13Q8jvr/y6TRfTEeNTrvfZv7vdX7GTV6ndW6zfXc6nP9zPV6E5WzWK6jclqd+9PzZVTOutE5Oz+7jso5O19E5Zw/b3N8vvUH70TlXHxyEZXzxtdej8pZXrY5XxdPLqNyZrvTqJwnPz6Jytk53onK+dv/6KtRL8YvqwAAlGWsAgBQlrEKAEBZxioAAGUZqwAAlGWsAgBQlrEKAEBZxioAAGUZqwAAlGWsAgBQlrEKAEBZxioAAGUZqwAAlGWsAgBQlrEKAEBRW1v/G/pNK96a14qtAAAAAElFTkSuQmCC;" vertex="1" parent="1">
          <mxGeometry x="590" y="-155.71" width="280" height="176.28" as="geometry" />
        </mxCell>
        <mxCell id="lDpA7Yqyfx-ejWaGdRT3-12" value="" style="shape=image;verticalLabelPosition=bottom;labelBackgroundColor=default;verticalAlign=top;imageAspect=0;image=data:image/png,iVBORw0KGgoAAAANSUhEUgAAAJ8AAAHfCAYAAABONAo4AAAAAXNSR0IArs4c6QAAAARnQU1BAACxjwv8YQUAAAAJcEhZcwAADsMAAA7DAcdvqGQAAAmLSURBVHhe7d3Njx1kGcbhnpky0+m0pSWUFiqtgUYLtGAsEqBaoo3EGEWDH2mCiQlRF2wIiSZGEj9WJibGhRsXRolh48KdhIUKpIjYUpAPEYttp6VQWqaddgRmSqcdDMnzH5wn3pvr2sy9mvRMfn13T87g7L9//v6SRhffna/VY2T5RK0eM39+vlaPS9Ysq9Xj7c/8pFaPJ549XavHuXMLtYY3Uj/h/058xIiPGPERIz5ixEeM+IgRHzHiI0Z8xIiPGPERIz5ixEeM+IgRHzHiI0Z8xIiPmMH0Xx9sveEYmei9aei+CZndO1Wrx+jE0lo9Rr7+YK0ef3pusVaPixf7cvHyESM+YsRHjPiIER8x4iNGfMSIjxjxESM+YsRHjPiIER8x4iNGfMSIjxjxESM+YsRHzODskV+33nAMLs7V6nHh7GytHvNTx2v1GLv80lo9XrnygVo9HttzqFaPsWV9NytePmLER4z4iBEfMeIjRnzEiI8Y8REjPmLER4z4iBEfMeIjRnzEiI8Y8REjPmLER4z4iBmcOfrb1huOhcnra/UYn91bq8eZPS/U6jG+fkWtHgc3/6BWj+On3q3VY2rqdK3hefmIER8x4iNGfMSIjxjxESM+YsRHjPiIER8x4iNGfMSIjxjxESM+YsRHjPiIER8x4iNmcGrfj1tvOEZXTNbqsXjp5lo9Fqf212oyqJ9N3th4f60e07MLtXocOnq21vC8fMSIjxjxESM+YsRHjPiIER8x4iNGfMSIjxjxESM+YsRHjPiIER8x4iNGfMSIjxjxETN489H7W284BqOjtXqcn36nVo+F03O1ery/2PrnW7Lsnu/X6nHq3LpaPQ6/2ff38/IRIz5ixEeM+IgRHzHiI0Z8xIiPGPERIz5ixEeM+IgRHzHiI0Z8xIiPGPERIz5ixEfM4MhD32o9Qpjc3HszcOapQ7V6nNx7vFaPwUjvF3Fs+eV3a/U4cXF7rR5vzCzWGp6XjxjxESM+YsRHjPiIER8x4iNGfMSIjxjxESM+YsRHjPiIER8x4iNGfMSIjxjxESM+YgavPfzt1huO+SOztXrse/g/tXpsvfOqWj3GV4/X6jF2389q9Tg8PVGrx9LRvpsVLx8x4iNGfMSIjxjxESM+YsRHjPiIER8x4iNGfMSIjxjxESM+YsRHjPiIER8x4iNGfMQMDv/qm603HBdm5mv1OPnMiVo9rr33plo9Rid6bzhmb7ivVo8XjvZ+T8ja1X03IV4+YsRHjPiIER8x4iNGfMSIjxjxESM+YsRHjPiIER8x4iNGfMSIjxjxESM+YsRHjPiIGez58qdabzgm103W6nH17uabi4/eXqtL743E1IUdtXo8/vSRWj22b7uy1vC8fMSIjxjxESM+YsRHjPiIER8x4iNGfMSIjxjxESM+YsRHjPiIER8x4iNGfMSIjxjxETP4/Y3bW284bvraNbV6XH7n9bWabLy5Ro/ZkS21erxyfFmtHvueOVarx/aPb6g1PC8fMeIjRnzEiI8Y8REjPmLER4z4iBEfMeIjRnzEiI8Y8REjPmLER4z4iBEfMeIjRnzEDB777K2tNxzbfrSrVo+lm3pvJGbGbq3V49Tcmlo9DhydqdVj/9Ov1epx3bb1tYbn5SNGfMSIjxjxESM+YsRHjPiIER8x4iNGfMSIjxjxESM+YsRHjPiIER8x4iNGfMSIj5jBi9+7q/WGY/1dW2v1GL+q72bgA8cnvlSrx5n55bV6vHjgrVo9Xtj3eq0e4xOX1Bqel48Y8REjPmLER4z4iBEfMeIjRnzEiI8Y8REjPmLER4z4iBEfMeIjRnzEiI8Y8REjPmIGT+3+dOsNx+prVtfqse6ubbV6vHvN7lo9Dk73ft6Xmm84Drx0slaPkZFBreF5+YgRHzHiI0Z8xIiPGPERIz5ixEeM+IgRHzHiI0Z8xIiPGPERIz5ixEeM+IgRHzHiI2bw5N07W284Nuz6cK0eq3feUKvH3PrP1+px8PTaWj2OT79Tq8f+vcdq9Zh+fbbW8Lx8xIiPGPERIz5ixEeM+IgRHzHiI0Z8xIiPGPERIz5ixEeM+IgRHzHiI0Z8xIiPGPER037DsekrW2r1GBkbrdVj5fattXqcn7yuVo+p+Rtr9Xjod8/V6nH5+hW1huflI0Z8xIiPGPERIz5ixEeM+IgRHzHiI0Z8xIiPGPERIz5ixEeM+IgRHzHiI0Z8xIiPmMEjOz7ResOxcceVtXoszF2o1eOKnZtq9Zi4dkOtHmc37K7V4w9P9H1vxgdWrVpWa3hePmLER4z4iBEfMeIjRnzEiI8Y8REjPmLER4z4iBEfMeIjRnzEiI8Y8REjPmLER4z4iBk8/rnbWm84NtyxsVaPQ49O1erx8ktztXrs+kbv5930nTtq9TgweW+tHpNjfTc1Xj5ixEeM+IgRHzHiI0Z8xIiPGPERIz5ixEeM+IgRHzHiI0Z8xIiPGPERIz5ixEeM+IgZPHn3ztYbjnW39H4Px8FHDtfq8eqB+Vo9dnzxqlo9PvTV62r1WL5lS60ecytvqzU8Lx8x4iNGfMSIjxjxESM+YsRHjPiIER8x4iNGfMSIjxjxESM+YsRHjPiIER8x4iNGfMQMnn/gC603HCuuXlWrx8W5vu99+MCrj/R+r8fM6d5/39Zd62r1WLP1ilo9Lr297ybEy0eM+IgRHzHiI0Z8xIiPGPERIz5ixEeM+IgRHzHiI0Z8xIiPGPERIz5ixEeM+IgRHzGDg7+4p/WGY2ztZK0eixcWa/U49bdjtXosXX5JrR6X3dL7vR4Tm9bWarJ5V43hefmIER8x4iNGfMSIjxjxESM+YsRHjPiIER8x4iNGfMSIjxjxESM+YsRHjPiIER8x4iNmcOrvP2y94Vh62ZpaPRbfO1+rx8KJk7V6vP3yW7V6rP7kR2r1GFnX+/v2nLyt1vC8fMSIjxjxESM+YsRHjPiIER8x4iNGfMSIjxjxESM+YsRHjPiIER8x4iNGfMSIjxjxETOYef6nrTcco6tW1OqxeO69Wj0WTs/U6nH+zd7ft/LmbbV6/HflHbV6PPGv8VrD8/IRIz5ixEeM+IgRHzHiI0Z8xIiPGPERIz5ixEeM+IgRHzHiI0Z8xIiPGPERIz5ixEfM4I//ONZ6w7FwYbFWj5Hm/x7LxkZr9XjvfO/n/ecrJ2r1+Mtv9tfqseFjG2oNz8tHjPiIER8x4iNGfMSIjxjxESM+YsRHjPiIER8x4iNGfMSIjxjxESM+YsRHjPgIWbLkf8VmNpkQnKrxAAAAAElFTkSuQmCC;" vertex="1" parent="1">
          <mxGeometry x="910" y="-159.43" width="280" height="180" as="geometry" />
        </mxCell>
        <mxCell id="lDpA7Yqyfx-ejWaGdRT3-13" value="Pooling in Time" style="rounded=0;whiteSpace=wrap;html=1;fontSize=24;" vertex="1" parent="1">
          <mxGeometry x="950" y="40" width="200" height="120" as="geometry" />
        </mxCell>
        <mxCell id="lDpA7Yqyfx-ejWaGdRT3-20" value="" style="shape=image;verticalLabelPosition=bottom;labelBackgroundColor=default;verticalAlign=top;aspect=fixed;imageAspect=0;image=data:image/png,iVBORw0KGgoAAAANSUhEUgAAATEAAAHDCAYAAABMPy16AAAAAXNSR0IArs4c6QAAAARnQU1BAACxjwv8YQUAAAAJcEhZcwAADsMAAA7DAcdvqGQAABYuSURBVHhe7d1brKVnWQfwvfbax5m9Z6btdDo9gRSKWETSoAEuDNpCodCW4IGDAc+AkZCod0bjBXKBXhgiiFisrUQwKErAhEQREGOhQhVowZYI9DA9t9M5dGb2Ya21t/M170XB7/uel3Z3Os/090tW+iRs1vr2Wmv++7v453kHl17ygc0pgKSmy38BUhJiQGpCDEhNiAGpCTEgNSEGpCbEgNSEGJCaEANSE2JAakIMSE2IAakJMSA1IQakJsSA1IQYkJoQA1ITYkBqQgxITYgBqQkxIDUhBqQmxIDUhBiQmhADUhNiQGpCDEhNiAGpCTEgNSEGpCbEgNSEGJCaEANSE2JAakIMSE2IAakJMSA1IQakJsSA1IQYkJoQA1ITYkBqQgxITYgBqQkxIDUhBqQmxIDUhBiQmhADUhNiQGpCDEhNiAGpCTEgNSEGpCbEgNSEGJCaENtKzbv5RB/AD8Q/GyA1IQakJsSA1IQYkJoQA1ITYkBqQgxITYgBqQkxaDT/EqIHJyUfDZCaEANSE2JAakIMSE2IAakJMSA1IQakJsS20sYWPHhqtH0W3//gpCTEgNSEGJCaEANSE2JAakIMSE2IAakJMSA1IQakJsSA1IQYkJoQA1ITYkBqQgxITYgBqQkxIDUhBqQmxIDUhBiQmhADUhNiQGpCDEhNiAGpCTEgNSEGpCbEgNSeHiHW/JbRg5NX2+e11Y+t0vbcj32w5bytQGpCDEhNiAGpCTEgNSEGpCbEgNSEGJDa0yPENioemTSfWt/jVNP2eW31Y6u0PfdjH2y5U/ErDzyNCDEgNSEGpCbEgNSEGJCaEANSE2JAakIMSE2IZdRWonzsA55GhBiQmhADUhNiQGpCDEhNiAGpCTEgNSEGpCbEgNSeHiE2GMSPYfBo+//8oI/m3Y4eW6Hteb//0XZ9j31AEs3XGSAtIQakJsSA1IQYkJoQA1ITYkBqQgxIbXDpJR/YLPOpqyaqg27U4AR1pzY3tmCrYcVTzCzOlqndeH1cph6bwVfHgkZOAHdiQGpCDEhNiAGpCTEgNSEGpCbEgNSEGJCaEANSe9xl10GzKDCwGZQdB8My9NjceOKFysFMnNXTwe8zM99fDn1UUP7cmMQXO1odlanbYLr/WsP37Liq3ycwXomvFZ5s7sSA1IQYkJoQA1ITYkBqQgxITYgBqQkxILXH3RObWZgpU4+oSlbxypNxf7dqOuhMNYZz8bUunrZQpnZnXbC7TN2WdvY/x/13HCxTt7tvvrtM3aaH0d+eig5f0GmLenONyWhSpg6WInICuBMDUhNiQGpCDEhNiAGpCTEgNSEGpCbEgNSEGJDa4y67DufjAml0mnXNqdqT9f5CZc1yxoru59T80nyZ2u25cE+Zuu09f2eZ2j14zyNl6rbv6xVl12gpYnQy93HRz4xXgyJro+J14MnmTgxITYgBqQkxIDUhBqQmxIDUhBiQmhADUhtc+vLHuRSxYtFgeIhrRU9sYxL0lSquPl4iGPfNFpb7Fx42hrP9pwGvH1svU7dRxYG00eG5NQfwWljIqcKdGJCaEANSE2JAakIMSE2IAakJMSA1IQakJsSA1AaXXX51a1006qHWFEjDU6Zn+suhjfHauEztZubi56g5rTz6fZZ2by9Tt9VH1srU7siDR8rUbXo2fl9Hx/rLrDVLEY9/wuW/7eqeI1BTqLVYkSfInRiQmhADUhNiQGpCDEhNiAGpCTEgNSEGpDa4/KprWos6k1F/P6tmoeHmpL8otLAjXjS4cmi1TO0qLqNKdJDv9oqe2Oakv/M0Xg/e0+NmF2fL1G31cH8fbbxWsVgx+H1rDiUOD9it+RMZvGePip7HgsenNXdiQGpCDEhNiAGpCTEgNSEGpCbEgNSEGJCaEANSG1z26valiBvj/gbhcKYi/4JC5c5zdpSp27EDx8rUrubE7PAk8uOi07ujcmhjIyj3Rid3N6LraKwHSxEnwSLJRwUfX83Sy41R0DKtaSLXLEWMLkXZ9WnNnRiQmhADUhNiQGpCDEhNiAGpCTEgNSEGpCbEgNQGl73qLyrahv/f7LZ4A+nMfP/J28OKE8BHUXGzoixZUzKNNqrWlHvXjwYl1EmwCfW4yVr8M2tH+ze7Tm1WlEyjX6dm42pkq8qu0MOdGJCaEANSE2JAakIMSE2IAakJMSA1IQak1tkTm6z395Xmts+Vqdtm0AEKO2AVapYVTlf0xKaDHtjMQn/nrREtX6y51uh9b6wfXS9Tu+Fc3L+LFjhGp5nDycKdGJCaEANSE2JAakIMSE2IAakJMSA1IQakJsSA1AaveOUHW1uN0enOw/mKQmVwinhNnTKqh1aVMitKpoMgzmcX4iWQ88vzZWo3Wo1PKx+vxgXg8ai/EFtT7t2S07sHwXvvZG5OAHdiQGpCDEhNiAGpCTEgNSEGpCbEgNSEGJDa4LLL25ciRgv+pisOvt0MFu/VLACMTM/GORx2oo6LnmfbadvK1G3XubvK9PhFiyQbq4dXytTuyINHy9RtMOzvgY1W4r7aZBx8fhYrcgK4EwNSE2JAakIMSE2IAakJMSA1IQakJsSA1IQYkNrg8iv/srWROL/Uv+BvqmLxXnRS9fqx/v+9MTvff/L2+kr8HMOKYm6oYkng8t6lMrUbHYuXIladrD7uL5HWnFYenXj+8O0Pl6nbeO2Jl5WnKsq90MedGJCaEANSE2JAakIMSE2IAakJMSA1IQakNnjla65uLerMbevvK+3Yu6NM3VYfWS1Tu5rlfXsuPLNM7fZX9Jl2nLVcpm7Duf4u2cN3HChTtx17+1/n4N0Hy9StZlHk0p7+19l5TvzZRO79xn1l6tPf8YoWaza2oiZWd4DyFryQw4BPSu7EgNSEGJCaEANSE2JAakIMSE2IAakJMSA1IQakNnjFKz/Y2gKMlvNtOz0+EXsy6i9uHr73kTJ1W97Tv2hw9VB/obYxvxwseDxu+xnby9RutBovNJxdmC1Tu6MPxeXemoWGl/7sC8rU7oJnxieRX/tnXypTu/237S9Tt+g7MlqJ37Ma08P+IvJkFJ9WPgiWeE62YsEjTwl3YkBqQgxITYgBqQkxIDUhBqQmxIDUhBiQmhADUhtcflX7CeBRmXVmLi5lRgXDlYMrZeoWnRK+XLG19cgDR8rUbfvu/rLrrrN3lqnbnnP7r2XHroUydbv5S/vK1G0431/+fM7zzypTt3/78H+Vqd1gGJ94Pj3s/xs4GVcUSCtOVo9Oga8pIg+D7+tkPS7MVrH99YRzJwakJsSA1IQYkJoQA1ITYkBqQgxITYgBqQ1+5i0fae2JbYz7Cy9nPy/uIu08vb8XNRf0fxp7zupfinjRhbvL1O2W78QL/k7btVimdpdcFC9wXP3E+8rU7p7P3lambkd/72/K1O29f/DPZWq346z4BPCXXfEjZWr3qQ/9Z5m6zQYLHNeP9nf8GuOKftb8Uv9Sy5rli+No6eFWnBDe2Ax6b1tx5Dnfw50YkJoQA1ITYkBqQgxITYgBqQkxIDUhBqQmxIDUBq9/68da23e7zz+tTO3e/auHy9Tt1393rUztnv2ic8vU7YcuOKNM7YbBYr7GXfsOlqnbsy44vUztrnrhvWXqduC6q8vU7v4vx8/xo394ZZm6XXfLpWVq98s/8fUydbvpHR8qU7vF932yTN3Gk/7i5ueu/26Zut12y0Nl6jYIFicevO9Qmbodvqf/+zpZjxc4Ts/G37XNoMy6Oa4ou0YvY/Hi93AnBqQmxIDUhBiQmhADUhNiQGpCDEhNiAGpDd70mx9vLa5EB6O+/NPvKlO30fs/WqZ2558TL+/bGSzE+/a+A2Xq9pXr7yxTt+98+Y4ytdt5bnx47lW/cHGZ2j37vPg5lubiA4Xnh6tlajf/hT8pU7e5n35LmdrtH51Xpm4bwd/Ar347/l2u/1zcJRsFHa7DD8YLKw8FPbFxxWLFqp7YRtATC7p1jejg4oqm2dRUxeucKtyJAakJMSA1IQakJsSA1IQYkJoQA1ITYkBqQgxIbfCVO/a3tuL+6toby9TunW97fpm67bn7mjK1+/xbP1Wmbhf+06fL1O6ZU58pU7eP3dRfQm18/lPfLFO77adtL1O39/zOcpnajW/4+zJ1i4qOjY+8+XNlavfiS/oXSTa+8No/LlO7i3/snDJ1u//Bo2Vq9z8331embrd+8fYyddvc6N8CGC1NbIzX+k8a36goh0bX0diYBD9TsdBwMBPcW1ScIl5Tqj1VuBMDUhNiQGpCDEhNiAGpCTEgNSEGpCbEgNQGX9t3f2uh5Ly5m8rU7l3XxN2cN77hhWVqt/L2K8rU7RM/9e4ytdu2PFembnfe8kCZus1t63+eySg+XPUdv/2TZWp30fQ/lqnb6q23lKnbx3/ls2Vqd+V7Xlymbp/c+c4ytbv4orPL1O36G/sXSd7+rf1l6nbXN+IDhbef0d/RG6/2d8Aaw4VhmdotLi2UqdvK4XjJ45GgO7e+sl6mbtPT/fcWk6iL1oi6ZJvxv9+pQUXXrOJSnmzuxIDUhBiQmhADUhNiQGpCDEhNiAGpCTEgNSEGpDZ4w9v+rrXR9kvveGmZ2t11T3zq8tFja2Vq94svvatM3d70a/eUqd3e551Vpm6H7u0//bnx3Jc8o0ztbvrM/5ap27N+/PwytZuZ7S9cNlaOxidRn7G3v/y5sDhbpm63fnlfmdrtfsZpZer20J0Pl6ndRnAaduPAHQfL1G15b/+yydVDcQk1srhrsUx94oLoevCdXz3U/783BsHXZHNcUUIN1CzfzLJY0Z0YkJoQA1ITYkBqQgxITYgBqQkxIDUhBqQmxIDUBu+69obWRts3b7izTO1+47f6t5g2vvrN/hOgFxfiUuYNX/humdq97LLnlqnbfffHZdc9Z/YXKr91y/1l6ra8s3876AN3xwXh2/67v4TaqNlkGhkHm2qHw/jv22awPXRmfqZM3daPxJtOoxOxo+t4VPQzW7ShdDjX31SdrMcbgiPhCeHHbY77f6GteI6ThTsxIDUhBqQmxIDUhBiQmhADUhNiQGpCDEht8Ed/e2NrgeZfr7uxTO1+/09fV6ZuV7//+jK126jooUQLDReW58vUbXZb3EeL+juLO+OleYvBtTzyUP/p0I2aBY7j1f7FiRsb8fsaVqtqulfBy5ywxXsVf4qHwULKmYW407Yxit/XQXB693gtXnq5GSyTnK7o8EWnhNf0AKtOGj8JFie6EwNSE2JAakIMSE2IAakJMSA1IQakJsSA1IQYkNrgip+7trWttnq4/6Ti17z9JWXq9rUv9i9WPH3vUpm67QuWEc4tzpWp22A6Ll0eO3CsTO127N1Rpm6rh1fL1G60Ehcdo+tojFaCpYgVRdXhfH/5s6aIvBn8yHCu4m9kRVcyKs1WXWvwOoP4K1JlNvg+1pRdo/ekZgnkRlBUrfk3UfPZnAynhLsTA1ITYkBqQgxITYgBqQkxIDUhBqQmxIDUBq9780daix5RX+ncF5xTpm5LO/qXBM4EB402FoOFhrff8kCZup1xdtzxOhYc4jpXsTTv0AP9h+NOKvpMh++LD9hdO9rf4avpic1tC/p1FfWfaJHg0u64BxgtK2xMBz2x1Uf6+3mNteDzHVccart2JH6d6WAp4nTFobUzwaHSk7X48OT1o8GhxBULK7diMeaJ4E4MSE2IAakJMSA1IQakJsSA1IQYkJoQA1ITYkBqg2v+5dbWRtvH3vvvZWq35zlnlqnbZNRfyjuw72CZus0u9hf/ju2PlwjO71go0+O3dOb2MnVbDwqVFdXB488RFFmPm4yDYmbFhr9B8DM1SwKjz2aq4jlm5uIScVhEDU7MflRwLdESwcboWMXp3UFBdDYosjbmtvcXkWuu9diBlTK1iwrEjZrX2Yw6woOKz2YzuJbgPXUnBqQmxIDUhBiQmhADUhNiQGpCDEhNiAGpDd7z0RtbSxj/8Q83l6ndi171w2Xqdv9dh8vUbn0tXkQ3GfX/zPadcQfs8P6jZeq2GXSNavpMmxv9vZptFX21mj104+A9Wa84pDdaJFjTiRoFB8GOt+DzbcwvxQckR6KDfqPPrjGpWJxY8zOhoMM1XXPwbWBmPv4+rx8LFis24rftSedODEhNiAGpCTEgNSEGpCbEgNSEGJCaEANSE2JAaoPLXn11a73yGRefV6Z2u87YVqZuDwRLD7fvXCxTt/XgtONoud+jKn5mHCxwnK0ou84GJ5ov7ew/Eb2xXFHeHQWFyrXV+IToI4f6y67RieiNqDC7UXHiec3ixOUz+k8Sr1rwF5SZR+vxe7b2SLyw8mhQrI5K1Y3o9O66ZYX9rzOcj09en1SUlU8G7sSA1IQYkJoQA1ITYkBqQgxITYgBqQkxILXBla+/rrVQsm1Xfw+sZpld1JmJDgltrAZ9pnFFJ6omqmfm+w81rVnMN7ut/zmGM3E3p2b54urh/vekZinieLX/Z2q6SGFHr6KfN1PRV4oO6R3Obs37GokOxm2sBYcf13TnxkE3suY5av59RuLf9rigj3YiuBMDUhNiQGpCDEhNiAGpCTEgNSEGpCbEgNSEGJDa4LVv/HBrWy0qog4qTiGOiqgLFSdiR69TdR1BebARvk5FcXN6pv9vQs3JzdMVxc1osV7Nyc2TYAngqKJEHL6vNe9ZxULDYbBssuaziX6mpkAafb6NLSmZBv3RzYoicvQdqHnPahY4Rr9vtIzyUcEvHJWM3YkBqQkxIDUhBqQmxIDUhBiQmhADUhNiQGpCDEht8KorPtTaJNtWccJ3ZGMUlPIqCncLS/2nZo8ryoU1ZdeZoFBZI9pAOjtfsV204j2ZW+h/nZoNpKMt2OwaFWJrnmN6GP8djX6fmsJztKZ0XHECeN21lqFDTbk3utaNjfh9jU4rr9mGW/UdONb/PZqMK8q/we87Ca7DnRiQmhADUhNiQGpCDEhNiAGpCTEgNSEGpDa48vV/3drSWAtOmV7ctVimblH3ZjOuoUxNz/T3alYO9F9nI3qORrS8bVjREYq6NzNBj6xRs/AuWs5XdUL0erDMruI6oqV5k6gneNyg4s9o9D0ZVFX8ou9AUFY6bnq64mKDl6npmkVqFhpG//YGNZ23iu9AuPSworM4tRn8PpYiAqcyIQakJsSA1IQYkJoQA1ITYkBqQgxITYgBqQ2u/PnrWptk0VK15b3LZXr8ahazRQvvahYezgZLBBvRksCa4uZGsACupuhYtUhw5okvcIzUnGQdFmYrFuJtTCrKkKGaQmX5b4eak6prlk1ORb9PzW1DUP6sKghvyfuagzsxIDUhBqQmxIDUhBiQmhADUhNiQGpCDEht8PLL/ry1UBItXqvpeEW9qGi5X42a6s5WLN6rWRAXXUvFLrs6wRPV/L6Rmp5R1GmLliY2qrpXFT8SiV6n5jo249pb80RleAK24tYi/rqeMrbi7QJ4yggxIDUhBqQmxIDUhBiQmhADUhNiQGpCDEhtcOklH9iCdh7AU8OdGJCaEANSE2JAakIMSE2IAakJMSA1IQak9iSHWFNB63sAPDHuxIDUhBiQmhADUhNiQGpCDEhNiAGpCTEgNSEGJDY19X88R6b1vJsdsAAAAABJRU5ErkJggg==;" vertex="1" parent="1">
          <mxGeometry x="287.79" y="-370.43" width="264.42" height="391" as="geometry" />
        </mxCell>
        <mxCell id="lDpA7Yqyfx-ejWaGdRT3-21" value="" style="shape=image;verticalLabelPosition=bottom;labelBackgroundColor=default;verticalAlign=top;aspect=fixed;imageAspect=0;image=data:image/png,iVBORw0KGgoAAAANSUhEUgAAAbcAAADDCAYAAAABU1+IAAAAAXNSR0IArs4c6QAAAARnQU1BAACxjwv8YQUAAAAJcEhZcwAADsMAAA7DAcdvqGQAABRLSURBVHhe7d1Lki03EYBhw4gFsBKPGHpNnkIEQQRjNsAOWMUdMvJKWAAzcNo3fdVqSZWpt1T/F+Ho7joqPVKPPHW6L/zuz3/56//+9fe/fffPL1++AwDgdF9+zme///o9AADXILkBAK5DcgMAXIfkBgC4ziuT248//uHrdwCAG/HkBgC4DskNAHAdkhsA4DokNwDAdUhuAIDrbJ/c+MtGAIAXT24AgOuQ3NCMp2sAuyG5AQCuc0Ry48kAAODBkxsA4DokN2TJEzNPzQBORHIDAFyH5AYAuA7JDQBwHZIbphr1Ozx+NwggRHIDAFyH5IZueHoCsIvtk9v33//x63d742AHgH3w5IZt8YYBQC2SGwDgOlclN97pAwDEq5/cbkmGq8dxyu9FAbwHH0sCAK5DcgMAXKdrcuN3Xut4Y3/SXLGuAHjx5LYxDnUf4gVAkdwmW30AW9snUQA4GckNS6xMniRu4H6vTG786fozYgTgZDy5oQuehgDspGty490+AGAHxzy58WQAALDiY0kU8TQO4ETdk9tNT1g8La7HHACowZMbAOA6JLcHo54cTngiGfGRJB9zApiB5LYAH7Xtg7kA7mRObnIIcBDsjfkBgF/x5HYBPuojBgA+IrlhW70SFk+0wPuQ3HAVEhkAQXIDCkiWwJlendx6/p6G3/kAwD54cuuMd/pzEGcAJUuTm/WA4qmon5GxvH2eTkmoJH7gsic3kuA5mCsAIw1NbryD/OzEQ33WPLa2s3Ns2QvAXPzObWM83dQJEwlJBXgnklsjDs9fkYgB7OS65Eay+YyYfMRHw8D9hiS3ERuRJ4Nzta4H5h6AFx9LFjwdqqe+m+Yp4CPiAdyH5Fbp9APxtKehUfHmqRC4E8ltMzxFtImT1arkxTwCa3VPbrwT7m+Hg3JWH05OCp6+k/yAsbZ5cuu92d94eNz4xmLGmKQNy3qJ+3LDGiPJ4lbm5Nb7kJm1qXbdvD3iOWpsHHjf6Dy1xOSWeLIucJJPyY0F/FkYk/D7VIIKr90Sy1Pf2LxV7/kCTsQflDR620GyKjGtjPPsMZP8gXau5Nb7gOEd5p1mHM6ltZN6LdUnkghwryFPbpak1SuxjT60TknAnn72GNPbEoMnZiRNYL0Pya33pjwlMczgie2ow/Gth+7MdTgixifO21vXGvbB79x+5t2IozfuqMN4xzcbYSyf+rf7gZnrv1zfMfbAzaYmt1PezT31M3dQnTK+XewYr159siQz1ss3xAK9TUluMxZu3IYeLuEhs2IDpdosHXyWQ3G03n3I1bfDWNXKvljWZc/+he3tMAcr9iXud83HkjsdlEr6tEO/evRB6jjpEJK+ru5vqf0d1+utSJ7v9Cm5rdp0eni2LsTa/lvalTJa/8rDaeRm9dZd05cZsbO00dqPp/tXrpERbhsP7jbtyW3UgXz7hgsTaqx17DonLXOT68Oo+a5lidXqPmv7N6zpkWPYbW15nNz303xIbp4FOXqSdloENxw2PcyIw8pYW9t+Wps1Y5ix3uM2PG3utB89Tu032h39O7deC/e05LVDAtghZjcdXK3xrI3FTz/95+t3e4jHQXJCreOSm2Wxn5asVpE49T48vPV55iou2zLPtx2atbH4xz/+SwLBlbZKbrpBZ2y2uA3L4WA9QOK65eeWg7jGqgNLxzl7vLsqzcPtMRq1Bk+N28g9uWq/72xKcisdeDIp4cTMWrg3Hywaz1UL/g2xHaEmbjX9mT0/lj6O7JOnbm88V+0xPFvy5BYviNqFPWpDpOodtYjZHOOMWB+711mznkaud0s9q8ePO1Unt3hBrlxU1rZbNlHPDahGxszT37DsiHFa3HIorYqfxci+zZq/0e2Mnr9R9e+87lbp9uTWM7hSl6e+XSY214+n67cc7C2sc7jicIuvyc+j+xHW/xSbmevnprV601jw2bSPJcMN+rRZn+y+KL3ja41HjqXeUW3fzho3b3x1bc+el6c9pf2Rr5b9J//EILynxu77XPo3e55gt+R3bjPs9u93erFs+F02nPR1xAG1+6GX02vuwnpK5VvjVHu/3Cf/xEB412JYXr/39MPbXkpr3HJ69A12xeQ2apJbWBdI/O93cmNZPUbvgveW1/H1HKe1LunriA09os7QqDXRq99xPfHPpTd24dhGxzGnV3x71DNqrrHe8ie3kRssrDvXzqoNbqX9q92Een/PcfaOmWdsM+ZrRhujSN9L/zC719hmJQVPf1N9yt0vZb11zxoz+mhKbrMnW9vzbtBTFuXKfs5oe6d5OOGQb6nbO764vPfgt9KyqXtGxnK2HmPpEaObYupVTG69DoBewv54Jm23ceQ89XPkQq2Jkbc/q+dB+ts7hq1jKvVnh3VrjVfY16d+5163XLe045njXB0xKZcqm/oIuHWN1d7f2u5tunwsuSKo1kV5ihMXZq85mDWXuQNqJW9/POskrLtmfcV904O8JYbWe1v629I/D2ln9v82Z25s4V+nWpx43nglk5tl4N5g7qj0i/fZnmIpr58eb7SrXQM91o7+BaQI69PvPQfmU3+s/ZU2w3Y9ezpXNtf2U3nth7XvJVJXXE8uvnI9nJtQqi+pukWu/lFGt5dMbk+TEwezx2SukFsQJ5i9ENGHd9485VNlW+/fYW/HSSX8WfoX9tG6p+Ue7/6X8q3xDIWvh9/3inmqfes1Iddzr6Xkyufq8IzT0w/V5WPJlJrOrHZSn3ttAMzlnTdP+dVrotR+y96Kk4o3yVik6ktds8ZY+hiXLT1VxmXlZykf9sHatkqVl2up69KOXI/HnCur/4VSZXPie1Xuuii9FtJy2eRWqsgyCM9Ac6yD6aVHn9HOM++z10gPu/bZu/51HKVDW8V16z3WWMT3xz9LPWE/5Oe47lJbWp9lLDml+Enb8ZOils/1K5UgU1KxKI1VhOOU+1Pt5PpX6lOqLzmpWMv9qXtybZbqzya30gBm2aEPvbRsmrfxzHtuM8yk7VvnuOe6fmqzpi1rPDX28aFtoU9fvWIh9YT9kJ/jup/aisci5VOxsMZHlcaZe826llJ9kfrkP6kjrkd/1viH5LW4L1o+N+bU9fBabtxyXfsQ11G6x0LLuT+WzA3SIg70juLx9epzajGhD+uiH0Xal7kND8YZRrXpiWdL7FfMW2kPpvpjveatV4WvhXXk5jVONqW6pY7w3JGv8rPWEd4r11Jtah1aVuvSsnEdKh6L/BxeC+XGEJZPncP6eq7u35LbDz/88MvXuBK5rq8J7YheC19LCV//6ac/ZQfYW65f4fVUmXh80ucnqXricUqZ3CSmpOpMictZ70tpufeJt+6n8qnF3pO07+mzzO3I+IlwTUlbuTb1msaoVCZ+zVI2dUaouGwoVS4lfE3aiuvM3SvXS6+JMGbxV1F7LT43nu4Jr8sY5b+4b6nv9QyVsvF6CL8KvU/r1a9Sh5bTr+E1qTd8Pfxe6tA50bNRvpd75GddG/FYlHxfuq6x0DHKNa1byPf63699+XY+63Xtw2/J7fvv//3L1zB7SyG5/uXLl69XvtFrqddC4evyvXRohly/4v7k6GulMipVJh5nXEYnIMfSrojLWe9Labn3ibduKV+KUbhOa1jiX9Nnj6c+xMI1pW2l2tRrGqNSmfg1S9k49npdxhOXDYXXwu/jOOhZJKStuM5U3UKul15TcT2l10TqmvQxHK/Svj/VE16XMcZzFZaRr2F7ug6e1oN8H1/Xa7nr0obUm77+LUfodSFf9Z54LHGM5PvwupTVuuW/8H6h9+o9Ma0jpD8Hye1z0pFCcl2yYShsJH5thtQgRxrRXjwh+EjW1cgY7RB/ax9a1p/c69mjLftZxlNzfxyH1FnUKuyXtY9h3OM5kD7G/ZYy1r5745RqTz2tD88ayLUh173zIm1qffJV/pNr4XWh34f1y7W431qHlg/HrddCpt+5xYMKK/IOuIfUQHqKF8vo9lpYF63V00Ypabk3NnJdefvZc1w1cuvP0i+5NxfL1P2tcbfcPzue0p70S77q90/CAzg+jHO854T2p0Z4X9xuXG9pDaR4+pQrW6rD2pdSPOW1+PX42mNy8ww0pffhO4ME6JR+exbtE+smzmm5dyZPP2X97ziu1rlK3d+y1633rointidfS23rGORruK9a9pieI6n45PoTly2dRal6RWmcsVwdqeupa9K/+LqnfSHlU3XnYmSRTW65AceeypUWhrWNUM09NXomjRazxit2GXONEXFqTSAjtc6VdV/q90/xtcTJEs9SO6VDPqdmXYR9rLk/vEfiLD9rnU/1xTHKlc/F0btmc+VT18NxqFJbqdfkmndMtbLJTRuyNPg0YTk1g+kdgN29bby1RsRpp2Qve6x2n1nEdevPElfvgZljiWepHe98yBhy9eXGa5UrX2pTlOIp98Zj1HJhe/p9qg+eGKXaU556pI+lMcc8ZVuYfueWo8Ht0dnUROEbiY8lRrJxcJ/UIedVujc+oOR7LZ866Fr6EfLWkypf0xdrPMOY1Irr8CSOJ9b+eWKUq7NHLGZKJreaxdLqtMDtqufGmWXFehvFMpZV47XuMS23456s7VMu5lKf9w2hdf6885wbW3xdf/bGwtOfVWu0p6YnNwmuN8BWNwTXIhznW8YcG7WGVhg5lpH7rafUOh6xtp/qzMUqvk/fEIblwzJP7YSvj5ofS71P/UzJ3XPCOnvyW3KrCUwPOwVX+jI7DtZx3rDYZlu1pj1O6GNOj77Xrmtte1X8Ru3HmeORMdx8riSf3GYOeHZwT/6d1MhYeTaVdwP23LCeumrjVdPfnmNsMasfo/dtahzxtbAP8Wulsl6We3Nxz13PaY1rrj2pt7Xu0zR9LHkSnfQTfyfl5d1Qqva+WFyPbKpT3lT0ikFJ7wPM0mfruLzjT5UfdUDnxO157xcjDv4RdcLuNclN1Cz6GrPaSZG2V2+qVPunvKnQvpeS8cr5VbV9mN33Ue3tlDi8fRkZk53istrQ5BZOYu77mZ4mvtfCqFnsNTF5usdSZ8tc9Gg/pXTfrM1bSsZhH0bFoKeeffDUpWUt90iZuFz4c64OnYve66JUn6et3v2C3dDkVjuxls0wSstizPW7tGlDuba95XGHln3Qcq+HdQ0+lbPU41nvpbLxaz1i5ekb5nAlt5ZFMGPypX+zNvVTO6XXvbEIy+fqja/rz5byuTI50h/vPSc57aAK+9vad8/93rasa2bmGLxuXve3cSU3WTQjJtdaZ1wu/ln6N2thp9rp3bYn1jo3qT6k6mnta++xvoHMQ2ou4mu5ciHrPMdq70M/7J05pvxBiWfzjNporQtK+jVzUcofNHjby5W31jNzfCcorcX4tdrYyX16r9b5VFfrPI3aYynh+GIz+4H3+S25tW6YHkYtdku9u220p78u3P1g0P7FX0+xS393i9uqc2Jkuzucfehv2JPbjE15yzvCVZtL4iRtr9zcOlfhnJ02rzX9mj2WFXO8cl0BUz6WHLHIex4OOxyanhhZ+7t73Fut7ktL+73nptSXXZLMUz/C1+X7Xfod2rFPSPuQ3HY6uHrYZTy5DTGjf9bNaCkn/R29uUfEZFScLfNqjZfeM6qvwNuYntxaNlx8r/z8tOE9B6jUt+OBMDoJPFndvrD0YUY/pQ3vGtkhfi1K/T99bIDFlI8lPVZsSk+9OybS0/SMobeusHyPfpTWjretG5JOj5gCPWyX3GaJN+GIg2X3jd6a1D33W8v2mofR8+utr3f7NyAmGMmd3HZbkE/9eUowoxOQt/7R/bHo0YfWeZlN+rNTnzj4gTZbPbmxoZ+dFqNcf2+f61SilDF7xu2Nkaf8bm8ugN4+JLdVB07vdkeMY1ZsVs3BDp4O3Nmx6dXe7onkzWsO93rt79xqyUHAu961iP9cxBsnGpLcZDM8vRtkw+RZYuN9tx3WOTL2nrpb+zHziaPUV558gP0Mf3IbtfFHHyi1B+/IxKE4TMtmzEHJivlhTQAf8bFko/ggnX3IrD7IZxkxzpq5Gh1vkhTQB8mtAYmlr14H+4kJItfn08ZCcsYuzMlt9UF+QyI5eQwcsj4c8sBaxzy51RwWpXt6Hz69E9eOiXDFgT0jDtY2vH3ZOcHt3Degh27JTTf+ikN5ZhJLyf2/Zj+1veKAWTE/rWb0ecVcABjHlNzY+GVP/6/ZO7HM5W7z7elPnAjjn1nLwDtM/1hyxeHCgbaX1HzMmKPUE+CJT7IAng1JbrckEw6+MzBPAGLm5MbTTx3itrcZ83P6GmAN40TTP5b04B35GBxWAG63LLntcsDW9IPk8NmoNyKeWI9+M8S8A+fontxuOQBGjWPl0+hJT8LWvobz1DpnJC/gHlt/LKksB92qg9t7IHKAfkMsAIxyRHLb9RDkcP5sVEyINQCPI5Jbbyd8PGc9zE869E/6WDSmcSbJAmd4ZXK7MXGMRBwAnOZ1ye3kp4cdeePZI/6lZEsiBiBe+eS2CgcvMQAwB8mtA54Gz0bCBe5DcnsJDnAAb0Jyu8CoJ8cbnkhJ6sA7kdyQRWIAcCqSGwDgOiS3DZ34xMRTHoCdkNwAANchuV3g7U9NPDUCiJHcUMS/4QNwIpIbtsTTGIAWXZMb7/IBADvgyQ2vwdMg8B4ktw5uPDR5CgdwsmuSG+/KAQCKJzcAwHVIbijiiRjAiUhuAIDrvC658SQCAPfjyQ0AcB2SG5rxzwYA7Ibk9iJ8JAvgLUhuAIDrkNwAANfZPrnx+xwAgBdPbgCA63RLbvyxAgBgFzy5AQCuQ3LDNDzdA5iF5AYAuA7JDQBwHZIbAOA6JDcAwHW6Jjf+YAAAsAOe3AAA1yG5AQCuQ3IDAFyH5AYAuA7JDc34QyIAuyG5AQCuQ3IDAFyH5IYmfCQJYEdbJzcOznWIPYCT8eQGALgOyQ0AcB2SGwDgOiQ3AMB1SG4AgOuQ3AAA1yG5AQAu8913/wflLPGH5JYugwAAAABJRU5ErkJggg==;" vertex="1" parent="1">
          <mxGeometry x="-131.21" y="-159.43" width="399" height="177.23" as="geometry" />
        </mxCell>
      </root>
    </mxGraphModel>
  </diagram>
  <diagram id="9GxY-Iwz0xtlI9r6fAYX" name="pipeline">
    <mxGraphModel dx="989" dy="1689" grid="1" gridSize="10" guides="1" tooltips="1" connect="1" arrows="1" fold="1" page="1" pageScale="1" pageWidth="850" pageHeight="1100" math="0" shadow="0">
      <root>
        <mxCell id="0" />
        <mxCell id="1" parent="0" />
        <mxCell id="jTbchMUAPfR5u2x-fV2T-20" value="" style="shape=image;verticalLabelPosition=bottom;labelBackgroundColor=default;verticalAlign=top;aspect=fixed;imageAspect=0;image=data:image/png,iVBORw0KGgoAAAANSUhEUgAAAWYAAADtCAYAAACMJt+5AAAAAXNSR0IArs4c6QAAAARnQU1BAACxjwv8YQUAAAAJcEhZcwAADsMAAA7DAcdvqGQAACw+SURBVHhe7d0HfBTV+jfwJ70RAgkQQg9NSkgoCgKCBQxYrigWvKACevGCgAIqf/BFroqKoCKiCLYLFpqoCHgVBUSQKkhvoQUJpFAT0hOSeed59myyCUl2A8lmdvf3/XzGnXLYZN3Nb86eOXOO244dOzRSOnXqpNYAAKCquKtHAAAwCAQzAIDBIJgBAAwGwQwAYDAIZqgy8+fPJzc3t4LF19eXWrZsSaNGjaKkpCRVqhDve+GFF6hVq1bk7+9PAQEBcsH69ddfp+TkZFWqqM6dO8tzz5kzR+2xzblz5+i5556Tn+Xn50d16tSR5/q///s/SktLU6UAKgd6ZUCV4WAeOnQovfbaaxQeHk5ZWVm0ceNG+uqrr6hx48a0f/9+CWC2fft2uvvuuyUUH3vssYLPqv75pcWLF1O3bt3o119/lX1mR48elaBv0qQJ1a9fX57bFhcvXqQOHTrQ5cuX6cknn5RwvnDhAu3du5d+/PFHeeTnBKg0HMzmBcCe5s2bx5UCTQ9dtcdk3Lhxsn/hwoWyfenSJU0PVi00NFQ7dOiQ7LOUmJioTZkyRW0Vmjx5sqbXdLXvvvtO02vNWmxsrDpStunTp8vP37Rpk9pTKCUlRcvMzFRb104/wag1gKuhKQMM54477pBHPUjl8eOPP6YzZ87QjBkzpPZanB7YNGnSJLVVSA92euihh+jee++loKAg2bbF8ePHycPDg26++Wa1p1D16tWlycXStm3bpDZfs2ZNaV6JjIyk999/Xx0lGjJkCFWrVk2el8sFBgbSoEGD5Fh+fj7NnDmT2rZtK8/Lr+Xf//436ScjOW7p559/ph49esjP4Oe455576MCBA+ooOBMEMxgOBxgLCQmRxxUrVkg7L4esrTgsjx07Rv/85z/J29ub+vfvTwsWLFBHy8bNKHl5edKkYs3q1aupZ8+edPDgQWmTfvfdd+n222+XJg9LV65coT59+khb9TvvvEMPPvig7OcQfvHFF6l79+4S5ty0w78nl83NzZUyjH8XDmIO+GnTptHLL78sP/OWW26hkydPqlLgNNCUAVXF3JSxZs0a7dy5c1pcXJy2ePFiTQ9kTQ9i7fTp01JOr4lqUVFRsm6rUaNGaQ0bNtT0Gqls//rrr/Kzdu3aJdtl4aaR2rVrS3m9hq4NHz5cmlWSk5NVCRM9bLXw8HBND3JpbrFk/rls8ODB8lwTJkxQe0z++OMP2a8HsdpjsmrVqiL7U1NTtRo1amjDhg2TbTP+PfVvAlftB8eHGjNUud69e5MehKQHKT366KNSK1y2bJlcsGN8EY6/utuKa6dLliyhAQMGSI8Mxs0jXFu1pdbMzQl79uwhPZClSWHu3Lk0cOBA+fdTpkwh/e9GyukhL80tY8aMIT04ZZ+Z+edaGjFihFozWbp0qTSx3HnnnXT+/PmChS9s8v+DdevWSTmulXOvE679W5bj5pYuXboUlAPngWCGKjd79mwJHw4Y/np+4sQJ+Spvxu26eq1RbVnHvTO4uxt3b+PmDF44QLmJYdGiRdKua01YWJh0sUtISKCYmBiaNWuWnDwmT55Mn3/+uZQxN7lERETIY1k8PT2pQYMGasuEe42kpKRI4PNzWy7c++Ts2bMF5RifXIqX49dqLgfOA8EMVY4DlGvNt912G7Vu3Zrc3Yt+LPmC35EjRygnJ0ftKZu5VvzII49QixYtChauRfNFxPXr18txW3DNl7vcjR49mjZs2CC/my217uJ8fHyuel18guBQ5pNSSQt3IzSXY9zOXFK55cuXy3FwHghmMLx//OMflJmZSd99953aU7r09HQJKm7G4KaC4gvXhK8lWFnTpk2l5wXXolmzZs3kkftbXwv+99w/mi/88Ymp+BIVFVVQjnGIl1SOT2jgZHDxD6pKaf2Yi7t48aKmB6osMTExam+hpKSkgn7Meq1SnlOv3cp2cXyhjC+kZWVlqT1X27p1a4n9jLdt2ybPfd9998l2Xl6ezRf/AgIC1Fah33//XZ5v4sSJak+h3NzcgufkvtPVq1fXbr31Vk3/1iD7LJ09e1atgbNAjRkMj2upfDEwOzub2rdvT08//bT0beaFu5s1b96c/vjjDynLtWHuZsd3ApZED1W5kPa///1P7bkaNxlwezDf9cft359++imNGzeOoqOjpa/xSy+9JOW4aYLboePj4+X3evXVV+mTTz6Rsn379pUyZdGDVn7/qVOnSv9m7s/MP48vJnKXvTVr1kg5bmPnn8OvsWPHjvTGG2/Iz+G+23yHIv9ccDKoMUNVsbXGbKYHoDZ27FitZcuWmh6Qmr+/v9apUydNDyqpVXLN2dPTU3v88cfVv7haRkaG/LsHHnhA7bna3r17tRdffFHTQ1ALDg6W5+Ta+sMPP6zt3LlTlSq0ceNG7c4779QCAwOlZhwZGal98MEH6mjpNWYzPWTldXAXQX6Odu3aaePHj5fXa2ndunVanz59pIscv/5mzZppQ4YMwd+uE8JYGQAABoOmDAAAg0EwAwAYDIIZAMBgEMwAAAaDYAYAMBgEMwCAwThNdzkeT4A7+vMoZCWN7AUAYASapsmgXPXq1btq/BQzpwnm06dPy7CRAACOIC4u7qoRB82cJph5+EQeE5dfLN/CaikxJZP+vpBBjUP8qW6Qn9oLAGB/PL44VyJ5aAAej7skThPM/GL5RXJAWwbzvE2x9NqPB/WvD0TubkRT+7ejATc1UkcBAOyrtKyy5NQX/xL0mrI5lFm+/vjS9/tlPwCAUTl1MMeeTy8IZbM8fcfJ8xlqCwDAeJw6mMNrBUjzhSUPNzdqUstfbQEAGI9TB3NYkJ+0KZuzmR/f7B8h+wEAjMqpg5nxhb4xvVvI+s1Ng3HhDwAMz+mDmfVsWVsejySlFUw9DwBgVC4RzK3DqpOnuxtdSM+h05fQIwMAjM0lgtnXy0PCme09nSKPAABG5RLBzCIbmO6w2XM6WR4BAIzKZYI5qmENedwTh2AGAGNznWBuYArmfWdSKI9vAQQAMCiXCebmdaqRv7cHZeTk0fFzaWovAIDxuEwwe7i7UUR9UzvzbjRnAICBuUwws/aqnXkvLgACgIG5VDAX9MyIQ5c5ADAulwpm8wXAw4mXKSs3T9YBAIzGpYK5QU0/Cg7wptw8jQ4lXFZ7AQCMxaWCmSdpjVLNGbgDEACMyqWCmUWq5gzcaAIARuVywWzumYFbswHAqFywxmxqyjh+Lp0uZ+XKOgCAkbhcMIdU85GLgGw/2pkBwIBcLpiZudvcHgQzABiQ3YL5zJkz9Nhjj1FISAj5+flRu3btaMeOHeooycwikydPprCwMDneu3dvOnr0qDpasaIamm80QTszABiPXYL50qVL1L17d/Ly8qKff/6ZDh48SO+++y7VrFlTlSCaPn06zZo1i+bOnUvbtm2jgIAA6tOnD2VlZakSFcfcMwO3ZgOAEdklmKdNm0YNGzakefPmUefOnSk8PJyio6OpWbNmcpxryzNnzqRJkyZRv379KDIykr788kuKj4+nH374QcpUpHb1g8jdjSg+JYvOplZ88AMAXA+7BPOKFSvoxhtvpIcffpjq1KlDHTp0oE8//VQdJYqNjaXExERpvjALCgqiLl260JYtW9SeihPg4ynDgLK9GDcDAAzGLsF84sQJmjNnDrVo0YJ++eUXGjFiBD377LP0xRdfyHEOZRYaGiqPZrxtPlZcdnY2Xb58uchSHoUXANGcAQDGYpdgzs/Pp44dO9Kbb74pteWnn36ahg0bJu3J12rq1KlSqzYv3FRSHpEFN5qgxgwAxmKXYOaeFm3atFFbJq1bt6ZTp07Jet26deUxKSlJHs1423ysuIkTJ1JKSkrBEhcXp47Ypr3FBUBu4wYAMAq7BDP3yIiJiVFbJkeOHKHGjRvLOl8M5ABeu3atbDNumuDeGV27dlV7ivLx8aHq1asXWcrjhrqB5O3hTskZuXTqYobaCwBQ9ewSzGPHjqWtW7dKU8axY8do4cKF9Mknn9DIkSPlOI/6NmbMGHr99dflQuG+ffvoiSeeoHr16tH9998vZSqat6c7talnCnNMNQUARmKXYL7pppto2bJltGjRIoqIiKApU6ZI97hBgwapEkTjx4+n0aNHS/szl09LS6NVq1aRr6+vKlHxMAQoABiR244dOwoaWDt16qTWHA83ffBFQG5vtrVZ4/udp2ncN3voxsY16dsR3dReAIDKY0tW2aXGbFTmOwD3x6fQlbx8WQcAqGouHcxNawVQoI8nZeXm05GkNLUXAKBquXQwu7u7UbuCdmZcAAQAY3DpYGZRmNEEAAwGwaxqzHswZgYAGASCWdWYY5JSKTMnT9YBAKqSywdz3eq+VDvQh/LyNTqYgFozAFQ9lw9mvuvQPNLcbjRnAIABuHwws8I7AHEBEACqHoJZV9AzA2NmAIABIJh1karGfPJCBiVn5Mg6AEBVQTDravh7U5MQf1nHgEYAUNUQzApmzgYAo0AwK+Z2ZvTMAICqhmBWCu4AxFRTAFDFEMxK23pB5OHuRudSsynxcpbaCwBgfwhmxc/bg1qGBso6xs0AgKqEYLZg2ZwBAFBVEMwWzBcANxw5RwkpmbIOAGBvCGYL5jA+EH+Zur/1Gy3Zfkq2AQDsCcGscCh/+NsxtUWUrxG99P1+1JwBwO7KFcxZWc7bWyH2fLqEsaU8TaOT5zPUFgCAfVgN5vz8fJoyZQrVr1+fqlWrRidOnJD9L7/8Mn3++eey7gzCawWQu5vaUDzc3KhJLdOt2gAA9mI1mF9//XWaP38+TZ8+nby9vdVeooiICPrss8/UluMLC/Kjqf3bkZ7FBd7sHyH7AQDsyWowf/nll/TJJ5/QoEGDyMPDQ+0lioqKosOHD6st5zDgpkb06RM3ynoNPy965MaGsg4AYE9Wg/nMmTPUvHlztVWImzhyc3PVlvPo3qyWNGkkZ+bS2dRstRcAwH6sBnObNm3ojz/+UFuFvv32W+rQoYPach58B2Cz2tVk/WD8ZXkEALAnq8E8efJkGjVqFE2bNk1qyd9//z0NGzaM3njjDTnmjNrUqy6PBxMQzABgf1aDuV+/frRy5Upas2YNBQQESBgfOnRI9t15552qlHNpq4L5QDzGzAAA+7MazKxHjx60evVqOnv2LGVkZNDGjRspOjpaHXU+bcJMY2agKQMAqoJNwexqzE0ZPAdgapbzXeAEAGOzGszu7u7STa60xRkFB3hTWJCvrB9OTJVHAAB7sRrMy5Ytkwt+5mXJkiU0YcIECgsLk/7NzqpNmGpnPoN2ZgCwL7cdO3YUjBDRqVMntWbdwoULJaSXL1+u9lSty5cvU1BQEKWkpFD16qZQvR4zfo2hWb8do0dubEDTH4pSewEAro8tWXXNbcw333wzrV27Vm05H3M7Mw8BCgBgT9cUzJmZmTRr1iwZ2MhZ8RyA7GhSGuVcyZd1AAB7sBrMNWvWpODg4IKFtwMDA+m///0vvf3226qU82lQ048CfT0pJy+fjp1NU3sBACqf1TZmHlnOzWLINe6lUbt2berSpYuEtFFUdBszG/DxFtoWe5HeeTiKHurUQO0FALh2FdLGPGTIEBo8eHDB8vjjj1Pfvn2vK5TfeustCfsxY8aoPaZB+EeOHEkhISEy7vODDz5ISUlJ6mjVKLg1G+3MAGBHJQbz3r17bV7Ka/v27fTxxx9TZGSk2mMyduxYuc176dKltH79eoqPj6f+/furo1WjoMscbs0GADsqsSmDmyu4RqtpxeZaKobL5OXlqS3r0tLSqGPHjvTRRx/JAPzt27enmTNnSpWem0e4C95DDz0kZXms59atW9OWLVukB4g1ldGUwTXlu2f9IW3Ne/8TXaRJBwDgWlxzU0ZsbKxMIcWPZS3maaZsxU0V99xzD/Xu3VvtMfnrr79kbGfL/a1ataJGjRpJMFeV5nWqkZeHG6VmXaHTlzApKwDYR4nB3LhxY5sXWy1evJh27txJU6dOVXsKJSYmyrRVNWrUUHtMQkND5VhJsrOz5cxjuVQ0b093ahkaKOvozwwA9mL14p/ZwYMHadWqVbRixYoiiy3i4uLoueeeowULFpCvr2kMiuvFAc9fB8xLw4aVMw2UuZ35INqZAcBOrAYzN1fw/H48+So3Q9x///2yPPDAA7LYgpsqeMhQbl/29PSUhS/w8U0qvM4145ycHEpOTlb/woR7ZdStW1dtFTVx4kRpozEvHP6VwTw2MwbNBwB7sRrMXNMNDw+XYPX396cDBw7Qhg0b6MYbb6Tff/9dlSpbr169aN++fbR79+6Chf89T/BqXvfy8ipyi3dMTAydOnWKunbtqvYU5ePjIw3nlktlaKPuAERTBgDYi9Vg5otvr732GtWqVUt6a/Byyy23SFPCs88+q0qVje8U5Bq35cKzoXCfZV7npoinnnqKxo0bR+vWrZMa9tChQyWUbemRUZlah5namBNSsuhieo6sAwBUJqvBzN3hOFgZhzP3L2Z84Y9rtRXlvffeo3vvvVduLOnZs6c0YfAwo1Ut0NeLGof4yzpuNAEAe7AazFyj3bNnj6zzbdjTp0+nTZs2SS26adOmsv9acDMI92E244uCs2fPposXL1J6erqEcmnty/ZWcAEwARcAAaDyWQ3mSZMmyezYjMOY+y/zHIA//fSTXLxzBYWTs6LGDACVz2ow9+nTp+DW6ObNm8sdeefPn5eLgXfccYfsd3YYMwMA7MlqMH/99dfStGCJh/90pduTzWMzHz+XRlm5tt+CDgBwLawGMw8uxP2MBw4cKM0X5Rkbw1nUCfShkABvytcwOSsAVD6rwZyQkCC3U3MN+ZFHHpFJWHnMi82bN6sSzo9fO5ozAMBerAYz35nH3dj4dmpuV+ZubSdPnqTbb7+dmjVrpko5v8I5ANEzAwAql9VgtsR3/vHFwLvuuotatGghAe0qzO3MuDUbACqbTcGckZEhNea7775bJmDl/sc8Tgbfnu0qzH2ZDyekUh43NgMAVBKrwfzoo49SnTp15CIg31DCN4YcO3aMpkyZImMmu4rwWgHk5+VBmbl5FHu+aC8VAICKZDWYPTw86JtvvpGLgB9++GGpgwo5Ow93N2qlxs1AOzMAVCarwWxuwuCAdnWFt2ajnRkAKo9Nbcw8HOdLL71E//rXv+jJJ58ssriSgguA6DIHAJXIajC/+uqrFB0dLeHMt2JfunSpyOJKLPsyW5uoFgDgWpU4S7YlvqGER5R7/PHH1R5jsmXm2evFt2O3mbxK7gDc9lIvCq1eMdNkAYDrsCWrrNaYecqnbt26qS3X5uvlQc1qV5N1XAAEgMpiNZi5XXnhwoVqCwrmAEQ7MwBUEqvBnJWVRTNmzKBbb72VRo8eLdM/WS6upvDWbAQzAFQOq8G8d+9eat++vcz1t3//ftq1a1fBwhOpuhrcmg0Alc3qxT9HYY+Lf4wnZO04ZbWs730lmqr7esk6AIAtKuTinxnfhv3LL79QZmambLtqd7HgAG8KCzL1xuBxMwAAKprVYL5w4QL16tWLWrZsKXcA8q3Z7KmnnqLnn39e1l1N4RyA6JkBABXPajDz4EVeXl506tQpGfbTbMCAAbRq1Sq15VoKbs3GBUAAqARWg/nXX3+ladOmUYMGDdQeEx6P+e+//1ZbrqWNugCInhkAUBmsBjNPxGpZUza7ePEi+fj4qC3XYm7KOHo2lXKu5Ms6AEBFsRrMPXr0oC+//FJtmea/y8/Pl9u0eXopV9Sgph8F+npSbp5Gx86mqb0AABXDajBzAH/yyScynRTfnj1+/HiKiIigDRs2SBOHK5LJWVU7My4AAkBFsxrMHMJHjhyhW265hfr16ydNG/3795cbTFxpMtbicKMJAFQW3GByjb796zS9sHQPdQ4Ppm/+7ZqzugBA+VXIDSZ8S3ZJy759++jo0aOUnZ2tSroWc1PGvtPJFJ+cIesAABXBajDzOBkdOnSQhdfN2/zIk7Fy8g8ePFgGO3Ilu06ZJgnIzM2nW6atoyXbT8k2AMD1shrMy5Ytkz7LfAFwz549svD6DTfcIMOBfv755/Tbb7/RpEmT1L9wfgkpmfTy8v1qi2Tg/Je+3y/7AQCul9VgfuONN+j999+XW7DbtWsnC6+/99579O6779KgQYPogw8+kAB3FbHn0yWMLeVpGp08jyYNALh+VoOZ25IbN26stgrxPj7GuFnDPIaGKwivFUDubmpD4e0mta6+EQcAoLysBjO3I7/11lvSh9ksNzdX9vExdubMGQoNDZV1VxAW5EdT+7cjD7fCdOYbToL8MAQoAFw/q8E8e/Zs+vHHH2WsjN69e8vC67xvzpw5UubEiRP0zDPPyLqrGHBTI9o44Xb64smbqG51X0rJvEJzfz+ujgIAXDub+jGnpqbSggUL5EYTxhf+Bg4cSIGBgbJtBPbux2zp530JNGLBTvL2dKe1426lhsFo0gCAktmSVbjBpALwpAGDPttGm49foD5tQ+njx29URwAAirrmYF6xYoWMjcHjMPN6We677z61VrWqMpjZkaRUuuv9PygvX6OvnupMPVrUVkcAAApdczDzxKuJiYlUp04dWS8ND+aTl5entko3depU+v777+nw4cPk5+dH3bp1kwGQuEnEjG9Q4RlRFi9eLHcT9unThz766CObLypWdTCzV1ceoHmbTlLzOtXo5+d6kJeH1SZ8AHAxtmRVicnBw3pyKJvXS1tsCWW2fv16GjlyJG3dupVWr14tvTqio6NlQCQznill5cqVtHTpUikfHx8vgyU5kjG9W8qcgDwU6BebT6q9AADlU2qVjuf340Q34+5xycnJass0F2CbNm3UVtl4CqohQ4ZQ27ZtKSoqiubPny9TVf31119ynH8O30E4Y8YMuuOOO6TmPm/ePNq8ebOEuaPg7nLj+5i+Bby/5iidS3XNcUQA4PqUGsw8I7blAEVvvvmmzFpiduXKFYqJiVFb5WMO/ODgYHnkgOZaNHfFM+M+0o0aNaItW7aoPY7h4RsbUrv6QZSafYXe/uWw2gsAYLtSg5l7Glgqvn2tuAlkzJgx1L17dxnrmXF7tre3N9WoUUO2zbh9mY+VhE8a3FZjuRiBh7sbvXJfW1n/Zsdp2h1X+C0DAMAWdr86xW3N+/fvl4t814MvKHIDunlp2LChOlL1OjWuSf071pf1/6w4oJ+MKuakBgCuodRg5h4XvFgqvl1eo0aNkjsG161bV2TW7bp168ot35Zt2CwpKUmOlWTixInSJGJe4uLi1BFjmNC3FQV4e9Aevcb83c7Tai8AgHVlNmXwBTvuGcELd2cbPnx4wfaTTz6pSlrHz8WhzCPQ8RCh4eHh6ogJX+zjPtNr165Ve0jar/kCYdeuJc8OwjN0c1cTy8VI6lT3pWd7tZD1aati6HJWrqwDAFhT6p1/Q4cOVWtl494T1vA4Gjx28/Lly4v0XeYmCO7XzEaMGEE//fST9NjgkB09erTs554ZtrClb6C95VzJp74zN9CJ8+k0rEc4/b97bOvFAgDOy5asssst2aU1gXCoc62cmW8wWbRoUZEbTEpryijOiMHM1sWcpaHztpOnuxutGtNTbj4BANdlmGC2B6MGM/vXF9tpzaGz1LlJTbkJJbx2gAwdCgCux5assnuvDFc06Z42Mnbznycv0cDPtlH3t37DHIEAUCoEsx34eLlTvkU/cMwRCABlQTDbAc8RWBjLJpgjEABKg2C2g5LmCORNzBEIACVBMNtBSXMEcg36aFKaaQMAwAKC2U7McwQuGnYz9WtfT/aNXbKbElOyZB0AwAzBbEdcc+7aLISmPRhJrcOq04X0HHp20S66kpevSgAAIJirhK+XB300qCNV8/GkP09epHdXmya5BQBgCOYqwhcEuebM5vx+nH47nCTrAAAI5ip0T2QYDenWRNbHfbOHziSjXzMAIJir3MS7W1FUgyBKzsilUQt3ysBHAODaEMxVzMfTgz4c2JGq+3rSrlPJNG0VpqMCcHUIZgNoGOxP7z7SXtY/3xhLq/aXPJ0WALgGBLNB3NkmVMZsZi9+u4d2nLxIm4+fx3gaAC4IwWwg4/u2oo6NalBq1hV6aO4WGvgpRqIDcEUIZgPx8nCnyfcWneUEI9EBuB4Es8Fk5OaptUI8Et3MNUfp1AWMRgfgChDMBlPSSHRsyfY46vn2Our34Ub67I8TRWrQvI72aADngamlDIjblLn5gmvKHNIPdKhPSZezJXy5acPspiY1qV4NP1q5J172c1kexY4HTAIAY8Kcfw6Ma788kD6P2WyeH/Bcajat2p+gB3GCjLFREq5sczh3aFSTGgX7k5+3h+mABX5uHryfa+eYexDAvhDMTozDdfZvx+jrbWX32Ait7kONQwKoSYi/PMYnZ9LCP08Rz3SFGjaA/dmSVWhjdlBc0x15R/MSZ0ZpXTdQ7iRk3ATyZ+xF+mbHaXr7lxhaoAe5efpBbv6Y+P0+tE0DGAyC2YEVnxmFH996sB39PKYn7X2lD+2efCf9MLI7vf9oexrbuyX1aF5LylnicJ6z7jhl5FxRewCgqqEpwwmU1B5dEi7HN6xYXkA0q+HvRYO7NqHB3ZpQcIC32gsAFQ1NGS6Cw5hnRrF2Ia94DdvU46MeNQ7xl9Ht3l97VIL7lRUH6PQlU59pDnN0xQOwL9SYXVDxGnaeXoX+eX8CzV1/nPafuSxlPPTUjmwQRLvjknGhEKACocYMJSpew+YQvjeyHq0cdQt9/VQX6t48RMKahyG1vFA44ft9tHLPGb12nWPaWQxq1wAVAzVmKNHXW0/SpB8OqK2rhQX5Upuw6jKpLC+x59NoxuojuNEFwArUmOGa9WodelVXPBZWw1ceE1KyaO3hs/ThumM0cuFOeudXUygzfuRueCfPp5t2AEC5oMYMpbK8NZwvGL7ZP0JqwZezculwQiodSrgsC/eTPlFCCHvqyd6xUU26uVkIdW0aQh0a1ZAZwhk3d+DuQ3BFtmQVghnKVPxCYUm4TGnd8Cx5e7rLeNPVfDylto2LiuCKEMxgN8Vr1288EEFd9FryluMXaOuJC7RFX3isj5Jwi8lzvVpIeW63DvL3Mh2wgBo2OAsEM9hVWbVrTQ/s4+fSaeG2v+m/m06qvSWrF+QrFxRbhQWqC4vp9B4uLIKTQDCD4ZTU7ME15u7Na9HJC+l0+pL1rnZcfkzvFhRRP0hG0GtQs+goeuWpXZe3Jo6aO1wvBDMYUmkXFVnxC4vbT16UmrY1tQN9qGFNPz3wNdoTl0L8oeYAf+zmRhTdti4F+HhSgLe++HhIG7e/vr5s12npPWJrTZx/7/KUR4hDSRDMYFgcWtc6vgcH7q0ta9PZ1GyKu5hBqdkVNwBTy9BqEtp8odLbw528PNxk/UqeJhcsLfGd7W/eH6G/hmoy1ggvNf29pecJQhxKg2AGp1BWDZvbrlMyc/WAzqQ1h5JkvI/iuCbNaZ6enUdpeojnXMlXRyqHtx7mOXqQW+KTyfPRLfXgD6S6Qb5Ut7ovhVTzkbsuKzvEy1MeJ4jKh2AGp8GBcS3d9jjIN064vci/yc3Lp9hz6dT3/Q1FynIovvNwFAX6ekl4c7kcXvT1C2nZMiFu0bgliqwfROk5V+TkwANBXbF8Qis4lEMCvKXmb4lDvH/H+vJ7uOu/P/9e7vp/eP1w4mVaH3OuoKlmwE0N6e52YVJTlxq7/nwB3h56bZ6Plq/5pTJPEOUN/Mp87qrmkME8e/ZsevvttykxMZGioqLogw8+oM6dO6ujpUMwAyurdl1cecoya+W59p6ek0cxeng+NHdLwTgjjGOyR4taEuCJl7Ok62A5MrxcuAmGuxwG+nhedeMP/x59IurKMQl9CXyiTP33XrbrTJETD5cdeXszqqXX7H28POR5fbxMTTzc/XH+5pPyGvkcMPr25nR3ZJjcVOTh7q4e3eSR56R846dDBYH/+v0R9Kj+/41/dkmMcjJhlXGCcLhgXrJkCT3xxBM0d+5c6tKlC82cOZOWLl1KMTExVKdOHVWqZAhmMOM/EFvar1l5yjJby1sL8St6Tfx8Wg7tj0+hYV/suCoQh3RrIhcs+d/zBc18PXm4x8rP+xNNhSxwUw3X7C/pNfbKbqapSByknnqImwPcw8NNXju/juKa1Q6QnjeWoZ+Xn09//Z2sSpjwv7+zTShV8/VU5QrLHz+bRhuPnS/4ttFbL9e+YY2C46bfobD8jpMXaemO0wXlB3ZpJL2H9EOyh09IfHLjzY3HztEXW/4uOFENv7Up3R1Rj7w83chLf07T9QrTNYtvtsTQM9FRjhPMHMY33XQTffjhh7Kdr/+Pb9iwIY0ePZomTJgg+0qDYAajqagQN+PnK6uphmvsmbl5EmyX0nPo+Lk0GrN491Wh/8xtzfTg8ioIfP65XJOfv0mvAZuKCS7bp21dCczsXHOzTp5+QsmmY2ev7ilTXX9OPXukOYdHJ+RHPgFZ/r6g51p2BsXNfMQxgjknJ4f8/f3p22+/pfvvv1/tJRo8eDAlJyfT8uXL1Z6SIZjBkVV0iJuVp3xFnSAslVSWa5z/e7YHhVTzNgV4XmGQJ6Zk0eP/3VakGYjLvzegPQX5eUlZc/CfT8uiV1YcLHoy0ctyswp/27A8Qfx9IZ2W745XpQrd1rIWBVfzKSiXp56fn3t3XIoqVeiG0GrS9s8/k0+EelFKzcotsUtnSICX/vu4y7WKwkX/N44UzPHx8VS/fn3avHkzde3aVe0lGj9+PK1fv562bdum9phkZ2fLYsbBzLVrBDM4O1tD3Kw85SvjBOFoJxNWnvLlKRufnEHdXvsf/f2ekwbzK6+8Qq+++qraKoRgBrCPygh8s8p4biOcINi8dQfoyTsiHCOYy9uUgRozAJSXEU4QtjS7GmagfG9vbzkxrF27Vu0xXfzjbcsatJmPj4+8KMsFAKAsHJi2TFxsVp7y5X3ushhqBpNx48bRp59+Sl988QUdOnSIRowYQenp6TR06FBVAgDA+RkqmAcMGEDvvPMOTZ48mdq3b0+7d++mVatWUWhoqCoBAOD8DNWP+XqguxwAOAKHamMGAAATp6kx89mnRo0aFBcXhxozABiWuQcZ9zbjmnNJnCaYT58+LS8WAMARcCWyQYMGaqsopwlm7lrHN6kEBgaSechDM/MZyllr087++hjeQ8eGz2ghvpU7NTWV6tWrR+7uJbcmO00wl4X/hznzhUFnf30M76Fjw2e0fHDxDwDAYBDMAAAG4/H000+/otalzcNZeXh40G233Uaenp5qj3Nx9tfH8B46NnxGbecSbcwAAI4ETRkAAAaDYAYAMBgEMwCAwSCYAQAMxumDefbs2dSkSRPy9fWVWbj//PNPdcTx8fRafJej5dKqVSt11PFs2LCB/vGPf0jvIH4tP/zwgzpiwndM8ZCwYWFh5OfnR71796ajR4+qo47B2mscMmRIkfeTl759+6qjxjd16lSZ6Z7vwK1Tp47MRhQTE6OOmmRlZdHIkSMpJCSEqlWrRg8++CAlJSWpo8Zmy+vjXhnF38Phw4ero7Zx6mBesmSJDL7/n//8h3bu3ElRUVHUp08fOnv2rCrh+Nq2bUsJCQkFy8aNG9URx8OTIvB7xCfTkkyfPp1mzZpFc+fOlTkgAwIC5P3kP3RHYe01Mg5iy/d00aJF6ojx8fycHLpbt26l1atXU25uLkVHR8vrNhs7diytXLmSli5dKuV5KIX+/furo8Zmy+tjw4YNK/Ie8me3XLi7nHlxNp07d9b0/4lqS9Py8vI0vaai6Wc9tcex6SccTf8jV1vORf9oasuWLVNbmpafn6/VrVtXe/vtt9UeTUtOTtZ8fHw0PbjUHsdS/DWywYMHa/369VNbjk+vBMnr1ANNtvk98/Ly0vRQlm126NAhKbNlyxa1x3EUf33s1ltv1Z577jm1dW2ctsbMk7v+9ddf8nXXjAcM4W39A6D2OD7+Ks9fi5s2bUqDBg2iU6dOqSPOJTY2lhITE4u8nzwuATdPOdP7yX7//Xf5mnzDDTfI9GoXLlxQRxwPjxvBgoOD5ZH/JrmWafk+cvNbo0aNHPJ9LP76zBYsWEC1atWiiIgImjhxImVkZKgjtnHaYD5//jzpNeSrpqXibf4DdwYcSvPnz5fpt+bMmSPh1aNHDxm5ytmY3zNnfj8ZN2N8+eWXMgnxtGnT5KvzXXfdJZ9lR8MjPo4ZM4a6d+8uAcX4veKJl3nsdEuO+D6W9PrYwIED6euvv6Z169ZJKH/11Vf02GOPqaO2Qa8MB8Z/sA8//DBFRkZKW+tPP/0kg29/8803qgQ4mkcffZTuu+8+ateunVxY+vHHH2n79u1Si3Y03Ba7f/9+Wrx4sdrjXEp7fU8//bT8PfJ7yN9i+US7bNkyOn78uCphndMGM3+N4PvWi1/t5e26deuqLefCtZCWLVvSsWPH1B7nYX7PXOn9ZNxExZ9lR3tPR40aJScVrjVaDgbP7xU3M3IFwpKjvY+lvb6S8DdbVp730GmDmb8u8dgf/JXQjL968HbXrl3VHueSlpYmZ2XuTuZswsPD5Q/X8v3k8W+5d4azvp+MZ+bhNmZHeU81TZPQ4hrib7/9Ju+bJf6b9PLyKvI+cnczvjbiCO+jtddXEp7tn5XrPXTmXhn6Vwy5aj9//nzt4MGDmv4VQ9NrlVpiYqIq4dief/55Tf+Kq8XGxmqbNm3Sevfurem1K7lS7IhSU1O1Xbt2yaJ/NLUZM2bI+t9//y3H33rrLXn/li9fru3du1d6L+h/GFpmZqYcdwRlvUY+9sILL0jvBH5P16xZo3Xs2FFr0aKFlpWVpZ7B2EaMGKEFBQXJ5zIhIaFgycjIUCU0bfjw4VqjRo00Pdgkd/RAlsURWHt9eq1Ye+211+R18XvIn1X9W4/Ws2dPOW4rpw5m9sEHH8iHQK9BS/e5rVu3qiOOb8CAAZp+FpbXVr9+fdnmD4aj0r8WSlgVX7gLGeMucy+//LIWGhoqJ9xevXppem1LjjmKsl4j/3FHR0drtWvXli5ljRs31oYNG+ZQFYmSXhsv8+bNUyU0OZE+88wzWs2aNTV/f3/tgQcekHBzBCW9Nl7Mr0+v+UsIBwcHy2e0efPm2osvvqilpKTIcVth2E8AAINBrwwAAINBMAMAGAyCGQDAUIj+P34a6Izkif/nAAAAAElFTkSuQmCC;clipPath=inset(0.25% 0.33% 0% 1%);" parent="1" vertex="1">
          <mxGeometry x="340.31" y="10" width="199.39" height="133.71255067567566" as="geometry" />
        </mxCell>
        <mxCell id="jTbchMUAPfR5u2x-fV2T-13" value="" style="edgeStyle=orthogonalEdgeStyle;rounded=0;orthogonalLoop=1;jettySize=auto;html=1;entryX=0;entryY=0.5;entryDx=0;entryDy=0;exitX=1;exitY=0.5;exitDx=0;exitDy=0;" parent="1" source="jTbchMUAPfR5u2x-fV2T-2" target="jTbchMUAPfR5u2x-fV2T-3" edge="1">
          <mxGeometry relative="1" as="geometry">
            <mxPoint x="350" y="180" as="sourcePoint" />
          </mxGeometry>
        </mxCell>
        <mxCell id="jTbchMUAPfR5u2x-fV2T-2" value="Feature Extraction" style="rounded=0;whiteSpace=wrap;html=1;fontSize=16;" parent="1" vertex="1">
          <mxGeometry x="150" y="160" width="140" height="40" as="geometry" />
        </mxCell>
        <mxCell id="jTbchMUAPfR5u2x-fV2T-15" value="" style="edgeStyle=orthogonalEdgeStyle;rounded=0;orthogonalLoop=1;jettySize=auto;html=1;entryX=0;entryY=0.5;entryDx=0;entryDy=0;" parent="1" source="jTbchMUAPfR5u2x-fV2T-3" target="jTbchMUAPfR5u2x-fV2T-4" edge="1">
          <mxGeometry relative="1" as="geometry" />
        </mxCell>
        <mxCell id="jTbchMUAPfR5u2x-fV2T-3" value="Reduction" style="rounded=0;whiteSpace=wrap;html=1;fontSize=16;" parent="1" vertex="1">
          <mxGeometry x="370" y="160" width="140" height="40" as="geometry" />
        </mxCell>
        <mxCell id="jTbchMUAPfR5u2x-fV2T-4" value="SVM Classification" style="rounded=0;whiteSpace=wrap;html=1;fontSize=16;" parent="1" vertex="1">
          <mxGeometry x="600" y="160" width="140" height="40" as="geometry" />
        </mxCell>
        <mxCell id="jTbchMUAPfR5u2x-fV2T-7" value="libsvm/svm-train&lt;div&gt;libsvm/svm-predict&lt;/div&gt;" style="rounded=0;whiteSpace=wrap;html=1;fontSize=12;align=left;spacingLeft=10;" parent="1" vertex="1">
          <mxGeometry x="600" y="200" width="140" height="60" as="geometry" />
        </mxCell>
        <mxCell id="jTbchMUAPfR5u2x-fV2T-8" value="Pooling&lt;div&gt;PCA&lt;/div&gt;" style="rounded=0;whiteSpace=wrap;html=1;fontSize=12;align=left;spacingLeft=10;" parent="1" vertex="1">
          <mxGeometry x="370" y="200" width="140" height="60" as="geometry" />
        </mxCell>
        <mxCell id="jTbchMUAPfR5u2x-fV2T-9" value="STFT&lt;div&gt;Power Spetrum&lt;/div&gt;&lt;div&gt;Mel binning&lt;/div&gt;" style="rounded=0;whiteSpace=wrap;html=1;fontSize=12;align=left;spacingLeft=10;" parent="1" vertex="1">
          <mxGeometry x="150" y="200" width="140" height="60" as="geometry" />
        </mxCell>
        <mxCell id="jTbchMUAPfR5u2x-fV2T-17" value="" style="shape=image;verticalLabelPosition=bottom;labelBackgroundColor=default;verticalAlign=top;aspect=fixed;imageAspect=0;image=data:image/png,iVBORw0KGgoAAAANSUhEUgAAAfcAAAHHCAYAAACiDxGKAAAAAXNSR0IArs4c6QAAAARnQU1BAACxjwv8YQUAAAAJcEhZcwAADsMAAA7DAcdvqGQAAHMLSURBVHhe7d0HfBTF2wfwX3oPJIQWCD2U0DsoIiCCiIBSFKwgiiKgYgNeRfCPCKKgooINKQoCKqigUpQiSO8llEiAJPSYhPR+781kDpJwmLvc5fbu+H39PGZ3dpMMd5t7dmZnd1x0eiAiIiKn4aq+EhERkZNgciciInIyTO5EREROhsmdiIjIyTC5ExERORkmdyIiIifD5E5ERORkmNyJiIicDJM7ERGRk2FyJyIicjJM7kRERE6GyZ2IiMjJMLkTERE5GSZ3IiIiJ8PkTkRE5GSY3MkuzJkzBy4uLmjfvr0qIUssX74cHTp0QPny5VGhQgXceeed+PXXX9XWAmfOnJGvubFYunSp2qtkf/zxB7p164Zy5cohICAArVu3xrJly9RWYNOmTUZ/hyGmTp2q9gQiIyNxxx13yJ/Tpk0bbN++XW25btasWWjcuDFyc3NVCREV56LTU8tEmrn99ttx/vx5mXCioqJQr149tYXM9fHHH+P5559H7969cd999yEzMxMLFizAwYMH8eOPP6J///5yP/Fa165dG0OGDMG9994rywxEgq1Zs6Zau7n58+dj+PDhuPvuu9G3b1+4ubnhxIkTqFatGl555RW5z6VLl7B+/Xq5XNg333yDdevWYdeuXWjbti3y8vJk0g4ODsbjjz+OX375BXv27ME///yDwMBA+T2XL19G/fr15clLjx49ZBkRGSGSO5GWoqOjxQmmbsWKFbqKFSvqJk+erLbYn9TUVLVkv8LDw3X6ZKnLz89XJTrd1atXdf7+/jp9AlYlOt3p06fl6/7ee++pEvOI7/fx8dHpTyRUiXn0J3CyrgbHjh2T9Tl79qxcT0tLkz9/zZo1cl3Qn0jo+vTpo9aI6GbYLU+aW7x4MYKCgmRLc+DAgXLdmKSkJIwdOxa1atWCl5cXqlevLlt48fHxag/IVqr+5EC27ry9vVG1alXZUj116pTcbugiFl8LM3RRixauwdChQ6FPiPJ7RctWdBU/8sgjctuWLVswaNAg1KhRQ9YlLCxM1i0jI0NuL+z48eN48MEHoT9xgT5ZoUGDBnj99dflto0bN8rfu3LlSrle2JIlS+Q20TWtT87y54ivJUlOTkalSpXk9xqIlq/4t4jfb4w+kSI7O1utmeazzz6Tre3//e9/cl1/4iMaC3K5JKK1LlrkhtdTMLx24lgQfH19ZX3T09Pl+r59++SxIbrliei/MbmT5sQHtkjAnp6esotYdMvv3r1bbS0gEofoKhZdzqI79qOPPsKzzz4rE15cXJzcRyQa0Q391ltvyeu+M2fOxAsvvCAT4pEjR+Q+5hLXdXv27CmT5fvvv48BAwbI8u+//14mnZEjR8o6iX3EV3GyUdihQ4fkOIINGzbg6aeflvW+//77sWrVKrm9S5cu8sTA2AmNKKtbty46duwok3+jRo2MngQUJ36mvrUr6yNOWsRrNGrUKPk6iNejOPF6icQvToZE97joKjeFuNbesGFD/Pbbb/JES5z8iOv7EydORH5+vtrLOMO/t3ByFydk4rq9ODnTt97x3nvvyROVVq1aye3iUsPo0aN5yYbIFAUNeCJt7NmzR3bFrl+/Xq6LrmR9otDpk5BcN3jzzTevdd0XZ+h+/vrrr+U++padXC/MsI++pSz3EV8LM3RRz58/X5XodE888YQsGz9+vCq5Tp/Y1dJ106ZN0+lby9e6lYXOnTvr9EmvSJlQuMt8woQJOn3rX5eUlKRKdLrLly/r3N3ddZMmTZLrol7F63czly5d0t11111yf0OEhITotm3bpvYoIOqkP1HSzZ07V/fLL7/oPvzwQ12NGjV0rq6uutWrV6u9bi4wMFCnb2XLuusTuu6HH37QPfzwwzd9zQz0J0y6ypUr69q1a6dKrluyZInsihc/w83NTac/oZLl+pMB+T3i8gIRlYzJnTQ1duxY+aEtPvANXn755RvKGjdurGvevLlaM653794yieXk5KiSG5UmuRdPzMWJ6/BXrlzRbd68We7/008/yXKRoMV68ROV4gzXmr/66itVotPpW92yLCoqSpWYLiUlRffcc8/J+n///ffypKdp06a6KlWqlPjz/v33X/naN2jQQJXcnDgJEHWcPn26Kilwzz33yAStb3WrkqLWrl0rv++jjz5SJUUlJCTotm/frrt48aJcF9fexQmfeH3y8vLkmIzatWvLf5Oxkz0i4jV30pDoRhe3XHXt2hX65CqvwYoQ3dhihPWff/6p9oS87t2kSRO1ZpzYR1zP1rd4VYnlxM8SXc7FxcTEyGvyYmS36NIW19PF7WaC4bp4dHS0/FpSvUXXtugOL9w1L5bFrWyl6YIWYwFE/cT4ATGGYdiwYXKMgbimbrjWfzPi3yP2FyPeDZc7bsZw/V5cSilMrIvr5/v371clRYl/mxhV/9BDD6mSosQ1d/Fv159kyPVp06bJyyKiXvoTFXmtX5/o8eKLL8qfIY4ZIiqKyZ00I65DX7hwQSb48PDwayEGnwmFk521FB5kVpg40TBGDJbTt1DVWgGxr7j1S9w3Pm7cOOhb6vJWL8NgvJKuNxsjrtXrW/4yoYqTlB07duDRRx9VW00nTijE9XZxW1phIml36tQJf//9tyq5OTEGQNC3oOXXmwkNDZVfDUnYQCRiITExUX4tTCR9MW6ge/fuN3yfMWLMgBg7IcYqiPfhu+++wzPPPCPvq3/yySfleARz7sknulUwuZNmRPIWiUAMTiseovUnkoBhBLUYWFbSoDixj2hx5uTkqJIbGUZii5H3hYkBXKY6fPgwTp48KZOOSO79+vWTycqQ7Azq1Kkjv5oymG/w4MGyNSuSl3hdPDw8btqy/S+ix0MwdrIiXhdTHvxi6HEQvRH/RQxaFM6dOye/GojnFQjGvl/cu56SklJkIN1/EffKixMVcWIiiJ9d+HUWy8V/PxExuZNGRNJesWKFHN0uuo6LhxgVLZKASAaCGKUuHsJibLS4Tt1+JfYRt8V98skncr0wwz7iwSwiif71119y3UA8Ic9U4vsFw88UxLJoXRYmklvnzp1lV7LoJi+s8PcKISEh6NWrF7799luZ3O+55x5ZZiC6+k25FU5044sWrnhCXOHfIXoExO17LVu2VCXAlStX1NJ1IlGK+jZr1kzeRmggeljE7y984mQ4+Zg3b578Kohei/nz58ueAkPyL0zc3iducXvggQdUyc2J2wTFSPwZM2aokoJeAlEPg2PHjqFKlSpqjYiu0X8AENnc0qVLRea5NvisODFwSp8crz2wRAwSi4iIkCOon376ad1nn32me+edd3QdOnTQHThwQO4jBuB16dJF/lx9S1j36aef6vSJQY4IL/x7xDYxEv2ll16S++iTqk6fiOT3FR9Q5+fnp9auy87O1tWtW1cO3ps6daoc/CZ+rxjwV/xniLqJh8dUqFBBjor/4osvdP/3f/9ndHCgGG0uvl+EPjmr0gLiZxb/2Tfz1FNPyX27du0q6yZeJzEgTbx2YtCfwdChQ3V33HGHHKBmqJeop6en5w0DDg2DC8XAQwMx4l+Myhd3CIwYMUK+lnfffbfc7/PPP1d7XScG63l4eMjXvyTivdSfYMi7JAoT/x4xWE/8m5555hk5qO/IkSNqKxEZMLmTJkTS9vb2liOhb0YkH5EM9K1xuS6Sg75Fr6tWrZpMQCJhiaRj2C6IW9Ref/11OZpafK8YIT5w4EDdqVOn1B46ObJd38rX6VuQ8lYukSREgiiePG+W3IXIyEhd9+7dZeIWSV6ccBw8eNBoAhY/W99S1ZUvX17+m8VIdHHrWHFZWVmyPuXKldNlZGSo0gLmJHdxt4BIgi1atJD1EyES/YYNG9QeBcRtZ+JWPXESJU52xL9D1HPv3r1qj+uMJXdBnHSJuwHE6yzeEzGC/dtvv1VbixInZOJniNvuSiJOFMT7W/z4EP82cVIm6lqzZk3dwoUL1RYiKozPlieyE+J6uLiGrD/xKdLVTURkLl5zJ7ITYtS9uA5e/Cl3RETmYsudSGM7d+6Uj6mdMmWKHEQnnqFORGQJttyJNDZ37lz5jHpxW+CiRYtUKRFR6bHlTkRE5GTYciciInIyTO5EREROhsmdiIjIyTjsNXfxmEvxnOmAgICbTgZCRET2S6Qf8Zhp8XyH4hM0WVNmZqacFdFSnp6e8Pb2Vmv2zWGTu3hWtmH2KiIiclyxsbFGp1a2BpHYa9f0x8XLxmd+NIeYx0BMT+0ICd5hk7uYQKN8+fJ47NcH4OnnoUq1d6pLllqyHy4enmrJfuhyLD+LJm1k9L5xQhit+a47rJbsB4/xkuUiB1vxm5ylsVy5cqrUupKTk+XPPr23JgIDSt87kJySj9qtz8rcExgYqErtl8Mmd8MbNnzTg/D0t5/kHtWWyd0U/OBzXBn92qkl++H72wG1ZD94jJcsV5eDTfi5TBOmIVdcPmF5cq/UwHGSOwfUERERORkmdyIicnr50FkcjoTJnYiInF6+Ff5zJEzuRERETobJnYiInF6eTmdxOBImdyIicnrGrqGbG46EyZ2IiMjJMLkTEZHTEy3vPAuCLXciIiI7U7h7vbThSG7Z5J6wIFc+Te7KzFxVcp14aN+557Pl9tRNlj+P2Fx9hsZj4c5IrIo+hI9WR6FBi3S1RRtN2qVg8ryTWLzrANac3Y2OPRLVFm3Z2+sksE5FNa93AdNGrsWKaYvx19wv0an5GbXlRi8P2SL3GdTN9o+S5TFuOnusE93olkzumUfzcXVlHjzDjc8ml/SdPqFrNNPcnX0TMWLSeSyeVQWjetZHdKQ3pi6JRrkKOWoP2/P2zcPpY774dGJNVaI9e3ydWKcbeXvl4tS5YHyw9DZVYtwdzU8jovZlXEnyVSW2xWPcNPZYJ1MZG/1ubjgSzZP7p59+ilq1aslZdtq3b49du3apLWUjP12Hi2/movL/ecAtQBUWknUiH0mL81B5orsqsa3+I+KxZkkw1i0LRkyUN2aPq46sDBf0HJKg9rC9PZvKY+H71bFtbZAq0Z49vk6s0412Hg3DV7+0xZaDtVXJjULKpeGFh7ZjyvyuyM3T5iOJx7hp7LFOphKPoLE0HImmyX3ZsmV46aWXMGnSJOzbtw/NmzdHz549cfnyZbWH9V2ekQu/213h2/7Gf3p+pj7xT8xFxdfc4R5i+5a7u0c+wpulY9+W62cdOp0L9uvXI1qnqxKyx9eJdSodFxcd3hi2EUvXN8OZC8GqlHg8WZ+xQXLmhiPRNLnPmjULTz/9NIYNG4aIiAh89tln8PX1xddff632sK6UdXnIOq5DhVFuqqSoK7Ny4d3MBf53Gt9e1gKD8+DmDiRdKdprkBjvjqCKN44NuFXZ4+vEOpXOwz0OIk/fWv9hY2NVQgKPJ7KUZsk9Ozsbe/fuRffu3VWJvjKurnJ9+/btquS6rKwsOXVf4TBHzkWdHDxXZYo7XL1ubJWnbs5Dxh4dKr5U9MAlorJRv8YVDOx6BO8sulO/ps0YF7p15Okb3paGI9EsucfHx+vP2PNQuXJlVVJArF+8eFGtXTdt2jQ5J68hwsLC1BbTZB3PR14CEPNYDqI6ZMnI2KdD0rI8uZy+Kx85cTqc6pZ9bbtwYVwu4p6xzbzMyQluyNOfAJcvdhYcFJKLxGJny7cye3ydWCfzNa93EUEBGfh+6nfY8MlXMqpWSMVzA3Zi2dvfqb1uTTyerM/YNXRzw5Fo2i1vjgkTJshJ8g0RGxurtpjGt60ranzngRrfXg+vRi4IuEdfrl8OHuaOGkuKbhcqjnVD5TcLlstabo4rog75omWnFFVScE2yRadURO7VZhSxPbLH14l1Mt/aneEYNnUAhr/T/1qI0fLi+vsrH/dSe92aeDyRpTRL7iEhIXBzc8OlS5dUSQGxXqVKFbV2nZeXFwIDA4uEOVz9XOBVz7VIuPoAbuUKysUAuuLbBfcqLvCoZrsuwxVfhKDXwwnoPigBYfUyMWZ6HLx987FuqXaDjcRtQnUi0mUIVcKy5HLF0ILeDS3Y4+vEOt3IxysH9ar/K0OoWiFFLlcKSkVymjdOnw8uEmK0fEKyD2IvlZf72wqPcdPYY51MlQ8X5FkQ4vsdiYtOPLFFI+LWt3bt2uHjjz+W6/n5+ahRowZGjx6N8ePHy7KbEdfcRff88E0PwtO/dC1r0d3uVd8VFV823qUkHmJT9T13+HcxfYCd+B5L9R0Wj4EjL8tBKtFHfTBnYihO7PdTW83n4uGplkqnWYdkzFh2Qq1dt/77Cpj5Sh21Zh5djuWXOqz9OlnDrVCnjH7t1FLJWoSfx+yXflVr1/2+PRzTFnVRa9eJ7vgfNjTB9xuaqhLT+P52QC2VDo9x01mzTrm6HGzCz7I31twGm6kMuWLP0crwDyh9ezY1JR9tGl8q07pak6bJXdwK98QTT+Dzzz+XSf7DDz/E8uXLcfz48RuuxRdnjeReFqyR3K3N0uReFqzxwUfaMCe524qlyb0s8BgvGZN72dH0mvtDDz2E999/H2+++SZatGiBAwcOYM2aNSUmdiIiInMY62o3NxyJpsldEF3wZ8+elbe67dy5U3bVExERWZOxZG1uOBLNkzsRERFZF5M7ERE5vXydi8XhSJjciYjI6RnrZjc3HAmTOxEROb08fbqzNBwJkzsREZGTYXInIiKnJ6anNXYd3dQQ3+9ImNyJiMjpGbuGbm44EiZ3IiIiJ8PkTkRETi9P52pxOBImdyIicnpiVrd8fcorfbBbnoiIiDSk6axwljDM9NMF/eDuYj+zwt120P5mgtrW3P5mhSPTuFWwv3myddXtb2InXeQptWQ/7HFWOFc/baeLLS5Xl40Nad/ZZFa4Xw7VhV+A6dN3F5eWkoe+zU5xVjgiIiJ7YewaurnhSJjciYiInAyTOxEROb2CAXWWhSNhciciIqcnRrwbe168qSG+3xyTJ0+Gi4tLkWjYsKHaCmRmZmLUqFGoUKEC/P39MWDAAFy6dElttRyTOxEROT1j19DNDXM1btwYFy5cuBZbt25VW4CxY8di1apV+P7777F582acP38e/fv3V1stx+RORERUBtzd3VGlSpVrERISIsvFiPt58+Zh1qxZ6NatG1q3bo358+dj27Zt2LFjh9zHUkzuRETk9Io+kKZ0Ya6oqCiEhoaiTp06eOSRRxATEyPL9+7di5ycHHTv3l2uC6LLvkaNGti+fbsqsQyTOxEROb08nYvFIYj75gtHVlaWLC+uffv2WLBgAdasWYO5c+fi9OnTuOOOO5CSkoKLFy/C09MT5cuXV3sXqFy5stxmDUzuREREJgoLC5MPxTHEtGnT1JaievXqhUGDBqFZs2bo2bMnfvvtNyQlJWH58uVqj7LF5E5ERE7P2Ah4c0OIjY2V18wNMWHCBFleEtFKr1+/Pv755x95/T07O1sm+8LEaHmxzRqY3ImIyOnl61wtDkE8erZweHl5yfKSpKam4tSpU6hataocQOfh4YE///xTbQVOnDghr8l37NhRlViGyZ2IiMjKXnnlFXmL25kzZ+Qo+AceeABubm4YMmSI7M4fPnw4XnrpJWzcuFEOsBs2bJhM7B06dFA/wTK3fHLvMzQeC3dGYlX0IXy0OgoNWqSrLbYXN89VTvJyekbRyQ1SDrrgyFPu2NHeAztv88CRYe7Iy1QbbcSeXicD1um/3fvgOXz64y78sP0vGTO/3Ys2nf5VW7Xh6pqPxx47hPnzV+Gnn77H11+v0n/YHdFv0Xb+qibtUjB53kks3nUAa87uRsceiWqLtuzpeHrwmTh89ONB/Lh/B77bsQsT5xxHtdoZaqv9M9bNbm6YIy4uTibyBg0a4MEHH5QPqxG3uVWsWFFu/+CDD3DffffJh9d07txZdsevWLFCbrOGWzq539k3ESMmncfiWVUwqmd9REd6Y+qSaJSrkKP2sJ2UIy649IMbfOvnq5ICIrFHPueO8h3z0WxxLpotyUGVwflwseE7Z0+vkwHrVLL4S16Y/2FdPP9QG7wwuA0O7gzCxNmHUaNumtrD9gYNOobevf/BnDmtMWJEL31yb4GBA4+jb98otYc2vH3zcPqYLz6dWFOVaM/ejqem7ZKxanFVjB3UDP83tDHcPfIxdf5RePnkqT3sm/hkNTYC3tQo+slcsqVLl8oH04jR9CLRi/W6deuqrfpjztsbn376KRISEpCWliYTu7WutwuaJfe//voLffr0kfcAisfy/fTTT2qL7fQfEY81S4KxblkwYqK8MXtcdWRluKDnkAS1h23k6U/Goya4o+6kXLgXm0nw9HtuqDokH9WH58O3ng4+tYCQnvlwteEsrvbyOhXGOpVs1+YQ7NlSAedjfHHurC8WfVwHmeluaNjsqtrD9ho1+lffeqmG3btDcfmyP7ZuDcO+fVX0rRttexT2bCqPhe9Xx7a1QapEe/Z2PE0cHoE/VlRCzD++OH3cD7PGhaNytWyEN0lVe5A90Sy5izOV5s2byzMXLYizzvBm6di3JUCVADr92dl+/XpEa322taHod9wQ1Dkf5TsU7ZrM1n/epR52hUewDocfd8furh448qQ7kvfZbgIDe3qdDFgn87m66tD5nkvw1reyjh0sp0pt79ixCmjR4hKqVUuW67VrJ6Jx4yvYs6eqXKcC9n48Cb7+ufJrSpK7/Grvij+QpjThSDSrrbgH8O2335aDDLQQGJwHN/0xmXSl6IGZGO+OoIoFB60txP/uirRjLqj5/I1dW1nnCpJ47GduqNQ/H43m5MKvkQ5HR7gj46zcVObs5XUqjHUyXa3wVPy48y/8vHczRk88iSkvNkVstJ/aanvLl0dg8+aa+OKL37Bq1TJ88sla/PRTA2zcWEvtQYK9Hk8GLi46PPPGGRzdE4CzUdodT+Yw9qx4c8OROExtxXWL4k8GcnRZFyEHz4VPy4OrkbspdOoiT+WB+ah8fz789Ym99qt58Kmlw+Wfig66IzIm7rQvRg9sg7GPtMZvy0Px8tvHEFZHu2vunTvHoGvXM5gxoyPGjOmJmTPbY8CA4+je/bTagxzBqMnR+hPHdEwfW1+V2L/i07eWJhyJwyR38RSgwk8FEk8JskRyghvy9CfA5YudBQeF5CKx2NlyWUmNdEFOggsODnbHtlYeMpL3uOLCEle57FmhoJvet07R7nqf2jp5YmAL9vA6Fcc6mS43V388xfrin8gALPioLqJP+qPfo3Fqq+0NH37gWuv9zJny2LChNlauFKOJI9UeJNjr8SSMfDMa7bomYtxjjRF/0bR7vMn2HCa5i6cAFX4qkHhKkCVyc1wRdcgXLTulqJKCrqYWnVIRuddXlZSt8u11aP5DDpovy70Wfo3zUfHefLnsVR3wrKhDxpmiZ4yZZ13gZaNLlPbwOhXHOpWeq75OHp7mjvu1Hi+vPOiK3fWWny/mulYrJNnn8aSTif22uxMwXp/YL8V5q3LHYKyb3dxwJA5TW/EUoOJPBrLUii9C0OvhBHQflICwepkYMz0O3r75WLc0WO1Rttz8AL9wXZFw8wHcyxeUiw+80KF5uPCdK+LXuyAjBoj5xE0m+8oP2O72E61fJ2NYp5INfeEUmrROQqXQDHntXaw3bZuETb9WVnvY3s6doRg8OBJt255HpUqpuO22OPTvfwLbt1dTe2hD3ApXJyJdhlAlLEsuVww1PimILdjb8SS64rv1u4IZL4cjI80NQSHZMjz1J2yOoPg966UJR+Ki01PLmhG3wq1cuRL333+/KimZuOYuuue7oB/cXTxUqfn6DovHwJGX5SCV6KM+mDMxFCf2l36AyG0Hs9VS6RwZ7g6/BjrUfu36H4x4uM3FZW7IvapP+vptNV/MQ2Ar09828WAcS1n7dbKGW6FObhVK/0H+wlvH0aJ9IoIrZiEtxR2no/zxw9c1sH+7ZclBV730Jwc+Pjl4/PHD6NgxDuXLZyEhwRubNtXEkiWNkZtb+nEkushTaql0mnVIxoxlJ9Tadeu/r4CZr9RRa+bR5Vj2WSBY+3hy9Sv99/4etU0tFTVzXD15i1xp5OqysSHtO9kba40GmzGGXPH+nk7w8S/9JY2M1Fy80mZrmdbVmjRL7uI5u+IB+kLLli3lpPVdu3ZFcHCwnNO2JNZK7tZmaXIvC9ZI7qQNS5J7WbEkuZcVS5N7WbBGcrc2S5J7WbBlcp+x+w6Lk/trbbc4THLXrJ9hz549MqmLEMQzdsXym2++KdeJiIisRdynbqyr3dTgfe4m6tKlC0SnQfEQk9sTERFR6TnWqQgREVEpGJvC1dxwJEzuRETk9PLgYnE4EiZ3IiIiJ8PkTkRETs9YN7u54UiY3ImIyOmJJ4cY62o3PRwLkzsRETk9Yy1xc8ORMLkTERE5GSZ3IiJyesYmgjE3HAmTOxEROT0djM/RbmqI73ckTO5EREROhsmdiIicnrFudnPDkdjFlK+lYa+zwtmjlXG71JL9eKB6O7VEjsa9iv3NCpd78ZJaIkeSq8vBJvxsk1nhXv77Pnj5lz5XZKXmYObtqzkrHBEREWmDyZ2IiJyesWlczQ1HwuROREROL1/nYnE4EiZ3IiIiJ8PkTkRETi9fn+4sDUfC5E5ERE4vT+dicTgSJnciInJ6xq6hmxuOhMmdiIjIyTC5ExGR09PpXPWt79KH+H5HwuROREROLw8uFocjYXInIiJyMkzuRETk9PJ1lg6qUz/IQdzyyb3P0Hgs3BmJVdGH8NHqKDRoka62aEfLOi2dWU1O6lI4Rt/ZVG0tcHyvPyY+2BCDw1vj4Yat8fqAhsjKsH2XFd8709hjnQwGDT2NX/etw9OvHFcl2uF7Zxp7Pp7+i7Hr6OaGI7mlk/udfRMxYtJ5LJ5VBaN61kd0pDemLolGuQo5ag/bs4c6hTVIx9f79l+Ld1YeU1sKEvuUR+ujReermLE6Eu/9ehT3Dr0MVxsfSXzvTGOPdTIIj7iKewbEIvqkvyrRDt8709jz8URFaZbcp02bhrZt2yIgIACVKlXC/fffjxMnTqitttF/RDzWLAnGumXBiInyxuxx1WULtOeQBLWH7dlDndzcdAiqlHMtAoNz1RZg/uQa6P3kJQwYfQE1GmSgWt1M3N4nAR5etu2z4ntnGnusk+Dtk4tXpx7Gx1MaIzVZ+ymb+d6Zxl6PJ1Pkw8XicCSaJffNmzdj1KhR2LFjB9avX4+cnBz06NEDaWlpao+y5e6Rj/Bm6di3JUCViFslXLBfvx7ROl2V2Ja91OnCaW882boFnr2tGT4YXQdXznnK8qR4d5zc768/S8/F+H6NMLRFS9klH7nLti0vvnemscc6GYwcfwy7t4bgwK4KqkQ7fO9MY8/HkymMPXHO3HAkmiX3NWvWYOjQoWjcuDGaN2+OBQsWICYmBnv37lV7lK3A4Dy4uesT1hX9/wpJ1CewoIrXW6q2ZA91Cm+ZijEfROPNb07gmXfO4lKsF17v3wgZqa64dNZL7rN0VjXc/fAVvPntCdRtmo5JgxvifHTBNlvge2cae6yT0LnHBdRrmIIFH4erEm3xvTONvR5PZJzdXHO/evWq/BocHCy/FpeVlYXk5OQiQdbXuttV3H5fImpFZKBll6uYuOgk0pLd8PeqYHmWLvR89DLueigedZqk48nJMahWJxN/LqsotxH9l5DKmRjx6gm890ZT5GS7qVKismdsgJy54Ujsorb5+fl48cUXcfvtt6NJkyaqtChxjb5cuXLXIiwsTG0pneQEN+TpTzbLFzvjDArJRWKxM1Nbscc6+ZXLQ6g+eV84442gStmyrHp4hvxqINbjVde9LfC9M4091qleo2QEVcjG7MU78Muu9TKatUlE38ExctnV1fb3G/G9M4091skc8rq5voFS6uA1d/OJa+9HjhzB0qVLVcmNJkyYIFv3hoiNjVVbSic3xxVRh3zRslOKKgFcXHRo0SkVkXt9VYlt2WOdMtJccVEm9hxUCstGcOVsnI/2VlsLiPWK1QsSvy3wvTONPdbp4K5gPDeoI8YM6XAtTh4NxKbfq8rl/Hzbf4DyvTONPdbJHLpCA+NKE+L7HYnmyX306NFYvXo1Nm7ciOrVq6vSG3l5eSEwMLBIWGrFFyHo9XACug9KQFi9TIyZHgdv33ysW2r80oAtaF2nBVPCcGR7AC7HeuL4Hn+8+1Q4XN10uOP+f/V/yMD9Iy/g168rY9vqIFw47YUl71XDuX98cNfgK+on2AbfO9PYW50y0t1x9lRAkcjMcEPyVQ+5rBW+d6axxzqRcS46PbVsU+LXjhkzBitXrsSmTZsQHm7e4BpxzV10z3dBP7i7lP5Wmr7D4jFw5GU5ICT6qA/mTAzFif1+aqs2rF2nlXG71FLJZj5XF0d3BiAl0R3lgnPRqF0KHn4tDlVrZak9gB8/qYrfF1ZCapI7akWk4/HXYxHRLlVtNY14OI6lboX3zhqsXSf3KpXVknVM+2I3ok8G4Mv3G6oS8+VevKSWSo/Hk2msWadcXQ424WfZG2uNBpsxhlwx4I8n4OFX+suHOWnZ+LH7wjKtqzVpltyfe+45LFmyBD///DMaNGigSiHfBB8fH7V2c9ZK7rcCc5K7rVgjuZM2rJ3crcEayZ1sz5bJ/YH1wyxO7ivvnu8wyV2zbvm5c+fKF6lLly6oWrXqtVi2bJnag4iIiEpDs+QuOgyMhbj3nYiIyJqMjoA3MxyJXYyWJyIiKkvGRsCbG46EyZ2IiMjJMLkTEZHTM9bNbm44EiZ3IiJyesaStbnhSJjciYiInAyTOxEROT1jLXFzw5EwuRMRkdMzlqzNjdKaPn06XFxc5ARpBpmZmXJelQoVKsDf3x8DBgzApUvWexgTkzsRETk98ShWY7e3mRqlfZTr7t278fnnn6NZs2aqpMDYsWOxatUqfP/999i8eTPOnz+P/v37q62WY3InIiIqA6mpqXjkkUfw5ZdfIigoSJVCPp113rx5mDVrFrp164bWrVtj/vz52LZtG3bs2KH2sgyTOxEROT1j3ezmhrlEt3vv3r3RvXt3VVJg7969yMnJKVLesGFD1KhRA9u3b1cllmFyJyIip2csWZsbgpiIpnBkZV2fMbOwpUuXYt++fZg2bZoque7ixYvw9PRE+fLlVUmBypUry23WoNmscJYyzPTDWeEc09rzB9SS/egZ2kIt0X9x9dN2ylFjdNk5asl+6HKy1RLdjC1nheuyeiTc/bxUqfly07Kw6b65au26SZMmYfLkyWqtQGxsLNq0aYP169dfu9YuJklr0aIFPvzwQzkj6rBhw244MWjXrh26du2Kd999V5WUHlvuRETk9Iy1xM0NQSRucTJiiAkTJsjywkS3++XLl9GqVSu4u7vLEIPmZs+eLZdFCz07OxtJSUnqOwqI0fJVqlRRa5ZhciciIqdnLFmbG4LoYSgcXl439gbcddddOHz4MA4cOHAtREteDK4zLHt4eODPP/9U3wGcOHECMTEx6NixoyqxDJM7ERGRFQUEBKBJkyZFws/PT97TLpbFZYLhw4fjpZdewsaNG2VLX3TTi8TeoUMH9VMsw+ROREROT6dveVsa1vTBBx/gvvvukw+v6dy5s+yOX7FihdpqOSZ3IiJyesYeTGNuWGLTpk1yMJ2Bt7c3Pv30UyQkJCAtLU0mdmtdbxeY3ImIiJwMkzsRETk9YwPkzA1HwuROREROz9g1dHPDkTC5ExGR0zPWEjc3HAmTOxERkZNhciciIqdnrJvd3HAkTO5EROT0RHI21tVuajC5O5g+Q+OxcGckVkUfwkero9CgRbraoh3Wqahv3q8iJ3UpHMPvaCi3XYz1vGGbIf5aVU7uY0t87/7bg8/E4aMfD+LH/Tvw3Y5dmDjnOKrVzlBbtdOkXQomzzuJxbsOYM3Z3ejYI1Ft0RaPJyotzZL73Llz5Ww5hufzisfu/f7772qrbdzZNxEjJp3H4llVMKpnfURHemPqkmiUq6DdDFOsk3E1G2TguwNHrsWsn6JkecXQ7CLlIh575QJ8/PLQtluK3MdW+N6VrGm7ZKxaXBVjBzXD/w1tDHePfEydfxRePnlqD214++bh9DFffDqxpirRHo8n6xLTn4o5UEsdBT/GYWiW3KtXr47p06fLZ+ru2bMH3bp1Q79+/XD06FG1R9nrPyIea5YEY92yYMREeWP2uOrIynBBzyEJag/bY52Mc3MDgivlXotyFQqSQfFyEdt+L4fOfZL0CT5f7mMrfO9KNnF4BP5YUQkx//ji9HE/zBoXjsrVshHeJFXtoY09m8pj4fvVsW1tkCrRHo8n6zL2xDlzw5Foltz79OmDe++9F+Hh4ahfvz6mTp0Kf39/7NixQ+1RtkSLIbxZOvZtCVAl4uzMBfv16xGt01WJbbFON3futCeGtGyMJzo0wvRRNXA5zvgc/lGHfHDqqK/+w+ZfVWIbfO9Kx9c/V35NSXKXX6kAjyeylF1cc8/Ly8PSpUvl83U7Wmm6u5IEBufBTf95knSl6IdKYrw7gioWfODYGutkXMNWaXjlwxhMXXwKY6bH4WKMF15+IBzpqTcevmu+q4Aa4Zlo3Na2HzZ878zn4qLDM2+cwdE9ATgb5adKSeDxZH3iRMTScCSaJncx361orYv5cJ999lmsXLkSERERamtRWVlZSE5OLhJ0axDXzjv3uYo6EZlo0yUFb38bjdRkN/z1S3m1RwHRPbhxZZDNW+1UOqMmR6NWeDqmj62vSojKjrER8OaGI9E0uTdo0EBOXL9z506MHDkSTzzxBCIjI9XWoqZNmybnwDVEWFiY2lI6yQluyNOfbJYvdsYZFJKLxGJnprbCOpnGv1weqtfJwvkzXqqkwJZfy8sE332Q7a//8b0zz8g3o9GuayLGPdYY8ReLvo/E44ksp2ly9/T0RL169dC6dWuZvJs3b46PPvpIbS1qwoQJuHr16rWIjY1VW0onN8cVUYd80bLT9RHVopuwRadURO71VSW2xTqZJiPNFefPeiK4UtERumu/q4AOPZJRXg22syW+d6bSycR+290JGK9P7JfivFU5FcbjyfqMjoA3MxyJXVxzN8jPz5fd78aIrnvDbXOGsNSKL0LQ6+EE2dILq5cpr+d6++Zj3dJgtYftsU43+uKtUBza7ifvaT+62xdvPVkbbvojt8sD1+9FFgPuDu/wwz0Pa9clz/euZKIrvlu/K5jxcrj+JM1N3+rLluHppf2tcHUi0mUIVcKy5HLFUOOfR7bA48m6jF1DNzcciYtOTy3blGiJ9+rVCzVq1EBKSgqWLFmCd999F2vXrsXdd9+t9ro5cc1ddM93QT+4uxgfOW2KvsPiMXDkZTkgJPqoD+ZMDMWJ/doO7rkV6rT2/AG1VLJ3nq2Jwzv9kZLohnIVctG4bRqGjr+A0FrZag/g62lVseHHICzaFQnXUp6yigffWOpWeO9c/Ur/vb9HbVNLRc0cV0/eIldaumzL7rNu1iEZM5adUGvXrf++Ama+UketmUeXc/34LC1nP55ydTnYhJ9lb6w1GmzGGHJFo+/Gwc239JeA8tKzcGzIu2VaV2vSLLkPHz4cf/75Jy5cuCBfePFAm3HjxpmU2AVrJXfShjnJ3VaskdxvBZYk97JiaXIvC9ZI7s6Oyb3saNYtP2/ePJw5c0Z2w1++fBl//PGHyYmdiIjIHMVHvpcmHIldXXMnIiIqC4UHxpU2HAmTOxERkZNhciciIqdX0Po2PgretFA/yEEwuRMRkdMznrDNC0fC5E5ERORkmNyJiMjpiV51S8ORMLkTEZHTM9bNbm44EiZ3IiIiJ8PkTkREzs9YP7u54UCY3ImIyPkZ6WY3J8T3OxImdyIicnqFnzRX2nAkTO5ERERORrNZ4SzFWeHI2lbG7VJL9uOB6u3Ukv1wr1JZLdmP3IuX1BI5ElvOClfr6zfg6uutSs2Xn56JM0++zVnhiIiI7Ibhurkl4UCY3ImIiJwMkzsRETm94oPjShOOhMmdiIicn0jOloYDKXFA3S+//KKWSta3b1+1VPY4oI6sjQPqTMMBdWQtthxQV/PLiRYPqDv79BSHGVBXYnJ3dTWtce/i4oK8vDy1VvaY3MnamNxNw+RO1mLL5F7jizctTu4xI/7nPKPl8/PzTQpbJnYiIiKzFe5iNzccTKmvuWdmZqolIiIisidmJXfROp8yZQqqVasGf39/REdHy/KJEydi3rx5cpmIiMjeGHtevLnhSMxK7lOnTsWCBQswY8YMeHp6qlKgSZMm+Oqrr9QaERGRnTHW1W5uOBCzkvuiRYvwxRdf4JFHHoGbm5sqBZo3b47jx4+rNSIiInsjWt6WhuMwK7mfO3cO9erVU2vXiQF1OTk5ao2IiIi0ZFZyj4iIwJYtW9TadT/88ANatmyp1hxLn6HxWLgzEquiD+Gj1VFo0CJdbdEO62QaLeu0dGY1eZta4Rh9Z1O1tcDxvf6Y+GBDDA5vjYcbtsbrAxoiK8P2Z//2+N4ZDBp6Gr/uW4enX9G+54/HuGns+Xj6T8a62c0NB2JWcn/zzTcxevRovPvuu7K1vmLFCjz99NPyWrzYVlrTp0+X98m/+OKLqsQ27uybiBGTzmPxrCoY1bM+oiO9MXVJNMpV0K4XgnUyjT3UKaxBOr7et/9avLPymNpSkNinPFofLTpfxYzVkXjv16O4d+hlmPjYCKuxx/fOIDziKu4ZEIvok/6qRDs8xk1jz8dTiYwla3PDgZj1UdOvXz+sWrUKf/zxB/z8/GRCP3bsmCy7++671V7m2b17Nz7//HM0a9ZMldhO/xHxWLMkGOuWBSMmyhuzx1WXLaueQxLUHrbHOpnGHurk5qZDUKWcaxEYnKu2APMn10DvJy9hwOgLqNEgA9XqZuL2Pgnw8LLtJ4Q9vneCt08uXp16GB9PaYzUZO0fQsVj3DT2ejzRjcxuR9xxxx1Yv349Ll++jPT0dGzduhU9evRQW82TmpoqB+d9+eWXCAoKUqW24e6Rj/Bm6di3JUCV6E/MdC7Yr1+PaJ2uSmyLdTKNvdTpwmlvPNm6BZ69rRk+GF0HV84V3EGSFO+Ok/v99a2ZXIzv1whDW7SUXfKRu2zbQrXH985g5Phj2L01BAd2VVAl2uExbhp7Pp5Moq+rxeFAStVJuGfPHnzzzTcy9u7dq0rNN2rUKPTu3Rvdu3dXJbYTGJwHN3f9B/EV/f8KSdR/MAdVvN4CsyXWyTT2UKfwlqkY80E03vzmBJ555ywuxXrh9f6NkJHqiktnveQ+S2dVw90PX8Gb355A3abpmDS4Ic5HF2yzBXt874TOPS6gXsMULPg4XJVoi8e4aez1eDJV4dndShuOxKzkHhcXJ1vu7dq1wwsvvCCjbdu26NSpk9xmjqVLl2Lfvn2YNm2aKvlvWVlZ8hnBhYNIK627XcXt9yWiVkQGWna5iomLTiIt2Q1/rwrWfwgUnOH3fPQy7nooHnWapOPJyTGoVicTfy6rKLfdqkIqZ2LEqyfw3htNkZN9/XZaIrIus5L7U089JW95E9fZExISZIhlMbhObDNVbGysPDFYvHgxvL1Ne5C/OAkQD/83RFhYmNpSOskJbsjTn2yWL3bGGRSSi8RiZ6a2wjqZxh7r5FcuD6H65H3hjDeCKmXLsurhGfKrgViPV133tmCPr1O9RskIqpCN2Yt34Jdd62U0a5OIvoNj5LKrq+2bRzzGTWOPdTKLOLQsDQdiVnLfvHkz5s6diwYNGqgSyOWPP/4Yf/31lyopmejKF9fsW7VqBXd3dxniZ8+ePVsuG5uEZsKECXI2HkOIEwRL5Oa4IuqQL1p2SlElgIuLDi06pSJyr68qsS3WyTT2WKeMNFdclIk9B5XCshFcORvno4ueuIr1itULEr8t2OPrdHBXMJ4b1BFjhnS4FiePBmLT71Xlcn6+7a9r8hg3jT3WySzFr5+XJhyIWcldtJaNPaxGJOPQ0FC1VrK77roLhw8fxoEDB65FmzZt5OA6sVz46XcGXl5ecpq9wmGpFV+EoNfDCeg+KAFh9TIxZnocvH3zsW5psNrD9lgn02hdpwVTwnBkewAux3ri+B5/vPtUOFzddLjj/n/1H3jA/SMv4NevK2Pb6iBcOO2FJe9Vw7l/fHDX4CvqJ9iGvb13GenuOHsqoEhkZrgh+aqHXNYKj3HT2GOdyLgS53Mv7Oeff8Y777yDTz/9VCZjQQyuGzNmDMaNG4f7779flpVGly5d0KJFC3z44Yeq5L8Z5ui1dD73vsPiMXDkZTkgJPqoD+ZMDMWJ/X5qqzZYJ9NYu07mzOc+87m6OLozACmJ7igXnItG7VLw8GtxqForS+0B/PhJVfy+sBJSk9xRKyIdj78ei4h2qWqraawxn7u1Xydrz+c+7YvdiD4ZgC/fb6hKzGeN+dz5d2caa9bJlvO5h330P7j6WDCfe0YmYl9402Hmcy8xuYtb1MQDZgzS0tKQm5sru88Fw7K4711cgy8trZI7kYE5yd1WrJHcrc3ayd0arJHcyfZsmtw/tEJyf9H05C4uYYs4c+aMXG/cuLF8NkyvXr3kupg2/eWXX5aDy8WA8Z49e2LOnDmoXNk6f18lJveFCxeqpZI98cQTaqnsMbmTtTG5m4bJnazFpsn9gymWJ/exE02uq3i4m7jEHB4eDpFmRS597733sH//fpnoR44ciV9//VXOtCrqJ57+6urqir///lv9BMuY1S1vT5jcydqY3E3D5E7W4szJ3Zjg4GCZ4AcOHIiKFStiyZIlclkQM6s2atQI27dvR4cOHWSZJUr1EBtBdCmIF61wEBER2SXRjLU0SkkMOhfd7+KydseOHeUdY2JweuEHuDVs2BA1atSQyd0azEruomKi66BSpUryGru4Hl84iIiI7JKxZG1u6BVv1Irr5Tcj7grz9/eXd3s9++yzWLlypZxd9eLFi/D09ET58uXVngXE9XaxzRrMSu6vvfYaNmzYIAcJiMp+9dVXeOutt+RtcIsWLVJ7EREROSdxS7jo5jfEfz1lVTwHRtzevXPnTnmNXYxLi4yMVFvLllnJXQwQEKP5BgwYIEfIi0fRvvHGG/L2OPG0OSIiIrtkrCVubuiJB6iJ6+6GEA9YuxnROq9Xrx5at24tTwKaN2+Ojz76CFWqVEF2djaSkpLUngUuXbokt1mDWcld3OpWp04duSwGFBhufRPPljfnCXVEREQ2VfhJc6UNPZH7CofoxTaVeFS76MYXyd7DwwN//vmn2gKcOHECMTEx8pq8NZiV3EViP336tFwWF/+XL18ul0WLvvi1AyIioluVaNGLRq+4z11cexfrmzZtkk9iFd35w4cPx0svvYSNGzfKAXbDhg2Tid0aI+UFs5K7+OUHDx6Uy+PHj5dPqhMTv4wdOxavvvqqLCciIrI3LjrLwxxi/pTHH39cXncXj1zfvXs31q5di7vvvltu/+CDD3DffffJy9ydO3eW3fErVqyQ26zBovvcz549K884xDWFZs2aqVLbEKMUxdkP73Mna+F97qbhfe5kLba8z73Gu29bfJ97zLg3yrSu1mRWy724mjVron///jZP7ERERHRzJbbcxTSspnr++efVUtljy52sjS1307DlTtbClnvZKTG5165dWy39NzG5THR0tFore0zuZG1M7qZhcidrsWVyrymSu7cFyT0zE2edKbnbKyZ3uhXMOmOdR1Fa02sdSj+1c1nR5eSoJfuR92/pZ8m8Vdg0uU+fanlyH/+6wyR3i665ExERkf1hciciIucn+qgtDQfC5E5ERM7PWLI2NxwIkzsREZGTYXInIiKnZ+yJc+aGIzE7uW/ZsgWPPvqofAbuuXPnZNk333yDrVu3ymUiIiK7I5KzpeFAzEruP/74I3r27AkfHx/s37//2iT14tYAMe0rERERac+s5P7222/js88+w5dffimnqzO4/fbbsW/fPrVGRERkZ4y1xM0NB2JWchfzzYrZa4oTDwgoPuk8ERGRvTB2Dd3ccCRmJXcxJd0///yj1q4T19vFXO9ERESkPbOS+9NPP40XXngBO3fulM+SP3/+PBYvXoxXXnkFI0eOVHsRERHZGZ2L5eFAzEru48ePx8MPPywnnk9NTZVd9E899RSeeeYZjBkzRu1FRERkZ0S3uqXhQEo1cUx2drbsnhcJPiIiAv7+/mqL7Vhr4pg+Q+MxcORlBFfMRXSkD+a8UQ0nDviqrdpgnUxzK9TJnIlj1nxQHes+ClNrBSrVycD4DQfk8vIJdRD1dzlcveQJL7881GqVgvvGn0Xleplyu6msOXHMoKGnMfT5KPy0pAa+fL+hKjWfJRPH3PvgOfR+6Bwqhxa8DmdP+eG7z2phz9YKcr20rDFxjLMf47acOKbOpHcsnjgm+q3/c+6JYzw9PWVSb9euXakT++TJk2XXfuFo2LD0f9ylcWffRIyYdB6LZ1XBqJ719QeqN6YuiUa5CtrNMMU6mYZ1Mq5K/XRM3rXnWoz+4YjaAoQ1TcXg9/7B+D8O4JlFx2TZ549HID9PLtpceMRV3DMgFtEnbd84KCz+khfmf1gXzz/UBi8MboODO4MwcfZh1KibpvbQBo9xsoRZyb1r167o1q3bTcNcjRs3xoULF66FrR+E039EPNYsCca6ZcGIifLG7HHVkZXhgp5DtJuqkXUyDetknKubDoGVcq6Ff3Cu2gJ0fPgy6rZPQXBYFqo3SUOvl2ORdN4LCXFeag/b8fbJxatTD+PjKY2RmqztlM27Nodgz5YKOB/ji3NnfbHo4zrITHdDw2ZX1R7a4DFuZcW72EsTDsSs5N6iRQs0b978WojWu+iiF/e4N23aVO1lOnd3dzkC3xAhISFqS9lz98hHeLN07NsSoEr0753OBfv16xGt01WJbbFOpmGdbi7+jDcmt2uNt+9oiW9fqIfEc55qS1FZ6a7Y9X1FfaLPRPmq2arUdkaOP4bdW0NwYJdlXd/W5uqqQ+d7LulPPvJw7GA5VWp7PMbLgD45G7u9zdRw6uT+wQcfFIlPPvlEtrZffPHFIg+1MVVUVBRCQ0PlbXSPPPIIYmJi1JayFxicBzd3IOmK/n+FJMa7I6ji9daOLbFOpmGdjKvZIhWD3/8HIxYew8C3o5EQ641PHmyCzNTrf+Z/f1MZ4yPaYUJEexzfFIRnv42Eu6dtP7U697iAeg1TsODjcFWivVrhqfhx51/4ee9mjJ54ElNebIrYaD+11fZ4jJOlSnXNvTjxrPmvv/5arZmmffv2WLBgAdasWYO5c+fi9OnTuOOOO5CSkqL2KEo86lYMjCgcRHRdo65JaNE7AaGN0tHwzqt4ev4xZCS74cCv13vEWvWLx8u/HsKoZUdQsU4GFo2qj5xM293iE1I5EyNePYH33miKnGw3Vaq9uNO+GD2wDcY+0hq/LQ/Fy28fQ1gdba+5k5UZWt+WhAOxSnLfvn07vM0chdirVy8MGjQIzZo1k8+r/+233+RT7pYvX672KGratGlyxKMhwsKKjgo2V3KCG/L0J5vli51xBoXkIrHYmamtsE6mYZ1M41MuDxVrZ8quegOfwIIyce39iTkncfmUDw6vDVZby169RskIqpCN2Yt34Jdd62U0a5OIvoNj5LLoFtdCbq4rLsT64p/IACz4qK4c5Nfv0Ti11fZ4jJeB4om6NOFAzEru/fv3LxIPPPAAOnTogGHDhsl73S1Rvnx51K9f3+gT8IQJEybIWxAMERsbq7aUTm6OK6IO+aJlp+s9BS4uOrTolIrIvdrcasI6mYZ1Mk1Wmiviz3ojsNJNrqnrP6zEjbC52VY5xzfJwV3BeG5QR4wZ0uFanDwaiE2/V5XL+fn28aAQV/175+GZr9Zsj8c4Wcqsv+rCLWcRwcHB6NKli2x1T5o0Se1VOuKe+VOnTqFq1aqqpCgvLy95b2HhsNSKL0LQ6+EEdB+UgLB6mRgzPQ7evvlYt9R2LZniWCfTsE43+mVqTfyzIxAJsV44vdcf859pIEfPt+obj39jvPDHp6GIPewnB9mJ7QtH1YeHdz4adU1UP6HsZaS74+ypgCKRmeGG5KseclkLQ184hSatk1ApNENeexfrTdsmYdOvldUe2uAxbl368xCLw5GY/BCbvLw8/P3333JUfFBQkCotPfHI2j59+qBmzZryMbbi5ODAgQOIjIxExYoV1V43Z3gwgaUPsek7rOCBDGJASPRRH8yZGIoT+7UbSCOwTqa5FepkzkNsFo0OR/SuQKQlucM/OAe126Tg3ldjEFIzC1cveWDZuLqIO+KHjKvuCAjJQZ12yejxfBwq1dXuITbCtC92I/pkgGYPsXnhreNo0T4RwRWzkJbijtNR/vjh6xrYv92yhGWNh9g4+zFuy4fY1P2/d+BmwUNs8jIzceodx3mIjVlPqBPX1Y8dO4batWurktIbPHgw/vrrL/z7778ymXfq1AlTp05F3bp11R7/zVrJnciemZPcbcXayd0aLEnuZcUayd3ZMbmXHbO65Zs0aYLo6Gi1ZpmlS5fKFrsYBR8XFyfXTU3sREREZhHNWEvDgZiV3N9++23Znb569Wr5RDlxRlQ4iIiI7JGxa+jmhiMxKbn/73//Q1paGu69914cPHgQffv2RfXq1eW1dxFipLs1rsMTERGVGZGgSxsOxqTk/tZbb8nkvnHjxmuxYcOGa2FYJyIiIu2ZlNwNY+7uvPPO/wwiIiK7VLwlXppwICZfcxdTshIRETkiY9fQzQ1HYnJyF0+PEw+t+a8gIiIi7Zl0n7urqys+/PBDea/gf3niiSfUUtkz3LvI+9zJmfE+d9PwPnfHZMv73MNffQduXhbc556Viaj3nOwhNiK5X7x4EZUqVVIl2mNyp1sBk7tpmNwdky2Te/1XLE/uJ993sofY8Ho7ERGR4zBrtDwREZFDEmnM0nAgJiX3/Px8u+qSJyIiMouxZG1uOBCTR8sTERE5KmO3tpkbjsSsWeHsCQfUOTa3CvZ36yQHQJnms7Nb1ZL9eLZmJ7VkP3iMl8yWA+oajLV8QN2JD5x0VjgiIiKHJJqxloYDYXInIiLnZyxZmxsOhMmdiIjIyTC5ExGR0zM2QM7ccCRM7kRE5PxEcrY0HAiTOxERkZNhciciIqdnrJvd3HAkTO5EROT8RHK2NBwIkzsREZGTYXInIiLnZ6wlbm44ECZ3IiJyemLickvDkTC5ExGR8zPWEjc3HMgtn9z7DI3Hwp2RWBV9CB+tjkKDFulqi3ZYp/9274Pn8OmPu/DD9r9kzPx2L9p0+ldt1Rbfu6JWfVBDTupSOCZ1a6W2Xiemr/r48Qi5/cBabSZc4TFuGns8xulGmib3c+fO4dFHH0WFChXg4+ODpk2bYs+ePWpr2buzbyJGTDqPxbOqYFTP+oiO9MbUJdEoVyFH7WF7rFPJ4i95Yf6HdfH8Q23wwuA2OLgzCBNnH0aNumlqD23wvTMutH4a3t2981q8+sMhteW6P+eFatrvyWPcNPZ4jJvK2K1t5oY5pk2bhrZt2yIgIACVKlXC/fffjxMnTqitBTIzMzFq1CiZA/39/TFgwABcunRJbbWMZsk9MTERt99+Ozw8PPD7778jMjISM2fORFBQkNqj7PUfEY81S4KxblkwYqK8MXtcdWRluKDnEO2mRWSdSrZrcwj2bKmA8zG+OHfWF4s+roPMdDc0bHZV7aENvnfGubrrUK5SzrXwD85VWwrEHvXDH19Ww+PvRakS2+Mxbhp7PMZNJpKzpWGGzZs3y8S9Y8cOrF+/Hjk5OejRowfS0q6foI0dOxarVq3C999/L/c/f/48+vfvr7ZaRrPk/u677yIsLAzz589Hu3btULt2bfkPr1u3rtqjbLl75CO8WTr2bQlQJfr3TueC/fr1iNbpqsS2WCfzubrq0PmeS/D2ycOxg+VUqe3xvbu5y6d9ME7fgnmjUxvMe74+Es55qS1AdoarvqwBBk85JRO/FniMm8beXyd7s2bNGgwdOhSNGzdG8+bNsWDBAsTExGDv3r1yu5gXft68eZg1axa6deuG1q1by3y4bds2eUJgKc2S+y+//II2bdpg0KBBssuiZcuW+PLLL9XWshcYnAc3dyDpiv5/hSTGuyOoYtGWha2wTqarFZ6KH3f+hZ/3bsboiScx5cWmiI32U1ttj++dcbVbpOCJmScxZtFRDJn6D/6N9cb7g5oiM9VNbv/+f7VRt3UyWvTQruXHY9w09vo6mcVYa9zUsJBI5kJwcMGYEpHkRWu+e/fucl1o2LAhatSoge3bt6uS0tMsuUdHR2Pu3LkIDw/H2rVrMXLkSDz//PNYuHCh2qOorKwsJCcnFwm6dcWd9sXogW0w9pHW+G15KF5++xjC6mh7PZJu1KRrIlr3/hfVG6Wj8Z1JGL3gKNKT3bF3dQgOrg/G8W3lMWhStNqbCuMxbl3GrqGbG0LxPCRyU0ny8/Px4osvykvRTZo0kWUXL16Ep6cnypcvL9cNKleuLLdZSrPkLv6xrVq1wjvvvCNb7SNGjMDTTz+Nzz77TO1RlBicUK5cuWshuvQtkZzghjz9yWb5YmecQSG5SCx2ZmorrJPpcnNdcSHWF/9EBmDBR3URfdIf/R6NU1ttj++daXzL5aFy7QxcPuuNE9vKIV7/9aWmHfFcndtlCJ8/2wgzH2oql22Bx7hp7PV1sjWRewrnIpGbSiKuvR85cgRLly5VJWVPs+RetWpVREREqLUCjRo1ktckjJkwYYLs1jBEbGys2lI6uTmuiDrki5adUlSJ/sxMf2rWolMqIvf6qhLbYp1Kz1VfJw/PfLVme3zvTJOZ5oor+oRerlI2eo6Mwxtr9+P136+HMOjNaDzx3km5bAs8xk3jKK/TTYmWt6WhJ3JP4VwkctN/GT16NFavXo2NGzeievXqqhSoUqUKsrOzkZSUpEoKiNHyYpulNEvuonui+G0BJ0+eRM2aNdVaUV5eXggMDCwSllrxRQh6PZyA7oMSEFYvE2Omx8HbNx/rlmpzn63AOpVs6Aun0KR1EiqFZsjrkmK9adskbPq1stpDG3zvbvTD27Vwckcg4mO9cGpPAD4b0QiubkDbvlfkALpqDdKLhBAcmoWQGiV3dVoTj3HT2OMxbir9eYjFIRTPQyI3GaPT6WRiX7lyJTZs2CAHjRcmBtCJu8X+/PNPVQKZE0UDt2PHjqqk9Fz0FVBVtq3du3fjtttuw1tvvYUHH3wQu3btkt3yX3zxBR555BG1182Jax2iS6QL+sHdxUOVmq/vsHgMHHlZDgiJPuqDORNDcWK/doNWhFuhTm4VSv9h8MJbx9GifSKCK2YhLcUdp6P88cPXNbB/u2UfMHn/Wj6o61Z47z47u1Utleyr0Q0QtTMQaUke8A/OQb22yej36llUrJmp9ihKPujmi0i06GneeyG+z1I8xk1jzdcpV5eDTfhZtoCt0WAzxpArmj71Dtw8vVWp+fKyM3H4q/8zua7PPfcclixZgp9//hkNGjRQpZB1Ec91EcRYs99++02OpBc/c8yYMbJcjJi3lGbJXRBdFaJLIyoqSp7VvPTSSzLBm8JayZ20YckHX1mxxgffrcCc5G4r1kju1sZjvGQ2Te7DrZDc55me3F1cjD+VSdzuJm6RE8RDbF5++WV89913cmBez549MWfOHKt0y2ua3C3B5O7Y+MHnuJjcTcNjvGS2TO7NnrQ8uR/62vTkrjXNrrkTERHZjGjGWhoOhMmdiIjIyTC5ExGR8zPWEjc3HAiTOxEROT1jt7aZG46EyZ2IiMjJMLkTEZHzEy1vS8OBMLkTEZHTc9HpLA5HwuRORETkZJjciYjI+RXvYi9NOBAmdyIicnrGRr+bG46EyZ2IiMjJMLkTEZHzEy1vS8OBuHDiGOfn6qftlKOOIj8tTS3Rf3Ft3kgt2Y9+3/2lluzHyoiKaoluxpYTx7QaMtXiiWP2ffc6J44hIiKyG8Vb4aUJB8LkTkRE5GSY3ImIyOkZG/1ubjgSJnciInJ+IjlbGg6EyZ2IiMjJMLkTEdEtwVhXu6nhaJjciYjI+Ym7vi0NB8LkTkRE5GSY3ImIyOkZ62o3NxwJkzsRETk/kZwtDQfC5E5ERORkmNyJiMjpueRbHo7klk/ufYbGY+HOSKyKPoSPVkehQYt0tUU79lSnB5+Jw0c/HsSP+3fgux27MHHOcVSrnaG2asMe62TA4+m/ubrm47HHDmH+/FX46afv8fXXqzBkyBH9Fm36PE986SMneDk07frkSplXXLBnXAB+u6MCfmkdgg0DyuPcOk+11bZ4PFlR8S720oQD0Sy516pVCy4uLjfEqFGj1B5l786+iRgx6TwWz6qCUT3rIzrSG1OXRKNchRy1h+3ZW52atkvGqsVVMXZQM/zf0MZw98jH1PlH4eWTp/awPXusk8DjqWSDBh1D797/YM6c1hgxopc+ubfAwIHH0bdvlNrDdhIPu+PMch8ENshVJQX2TghE6hk3dPj0Ku76KQGhd2dj10uBSIp0V3vYBo8n6zI2QM7ccCSaJffdu3fjwoUL12L9+vWyfNCgQfKrLfQfEY81S4KxblkwYqK8MXtcdWRluKDnkAS1h+3ZW50mDo/AHysqIeYfX5w+7odZ48JRuVo2wpukqj1szx7rJPB4KlmjRv9ix45q+r//UFy+7I+tW8Owb18VNGjwr9rDNnLT9J9BrwWg5Vsp8Aws2t/6734P1HkkA8HNcuEXlo+Gz6bDI0Bn8+TO44ksoVlyr1ixIqpUqXItVq9ejbp16+LOO+9Ue5Qt0doLb5aOfVsCVAmg07lgv349onW6KrEte6xTcb7+Ba2clCTbftD9F3uoE48n0xw7VgEtWlxCtWrJcr127UQ0bnwFe/ZUleu2cuDtAFS5MxuVbruxxVmhZQ7ifvdCdpILdPq8H/ebF/KzXRDSNlvtUfZ4PJUBYw+lMTcciF1cc8/Ozsa3336LJ598UnbN20JgcB7c9Lkg6UrRhJAY746gikW76WzFHutUmIuLDs+8cQZH9wTgbNT1a5Raspc68XgyzfLlEdi8uSa++OI3rFq1DJ98shY//dQAGzfWUnuUPZGsr+pb4Y3H6pvvRrSdlQxdrgt+vS0EP7cIwf7J/mg/+yr8a9puRBWPJ+sr3L1e2nAkdpHcf/rpJyQlJWHo0KGq5EZZWVlITk4uEmRboyZHo1Z4OqaPra9KtGePdaKb69w5Bl27nsGMGR0xZkxPzJzZHgMGHEf37qfVHmUr/YIrDk3zR5sZyXDzUoXFHJvth5xkF9w+Lwldlyei3hMZ2P1SIK6edFN7ENk/u0ju8+bNQ69evRAaGqpKbjRt2jSUK1fuWoSFhaktpZOc4IY8/clm+WJnnEEhuUgsdmZqK/ZYJ4ORb0ajXddEjHusMeIv3uRT0cbsqU48nkwzfPiBa633M2fKY8OG2li5sgEefDBS7VG2ko66I+tfV2wcGISfmobIiN/tiVPf+sjl1BhXRC/xQau3U1CpYw7KNcxDo1HpKN84V5bbCo+nMiBa3paGA9E8uZ89exZ//PEHnnrqKVVi3IQJE3D16tVrERsbq7aUTm6OK6IO+aJlpxRVAtnF26JTKiL3+qoS27LHOokjWiTR2+5OwHh9Er0U563KtWR/deLxZBovr7wbLl3m54s7ZdRKGauoT9h3/ZyAbisSr0X5JjkIuy9LLudlqooU+2R0EY12G36483iyPn1VLQ5Honlynz9/PipVqoTevXurEuO8vLwQGBhYJCy14osQ9Ho4Ad0HJSCsXibGTI+Dt28+1i0NVnvYnr3VSXR7d+t3BTNeDkdGmpv+LD1bhqf+Q1or9lgngcdTyXbuDMXgwZFo2/a8/u8+FbfdFof+/U9g+/Zqao+y5eGnQ2B4XpFw99HBs3y+XA6onQe/Grk4MNkfCYfcZUs+ar4PLm/zQNVuthtQJ/B4Iku46PTUss3l5+ejdu3aGDJkCKZPn65KTSOuuYvu+S7oB3cXD1Vqvr7D4jFw5GU5ICT6qA/mTAzFif3aDhazdp1c/Ur/vb9HbVNLRc0cV0/ejqaFsqpTfprxAVbmuCWOp+aN1JL5fHxy8Pjjh9GxYxzKl89CQoI3Nm2qiSVLGiM3t/TXtPt995daMt+WJ8qhXMNcNJtQ8P6Le9yPfuCHf/d5IDfdRZ/s8xA+LB01+mbJ7aYSD8exlLMfT7m6HGzCz7I31hoNNmMMuaLDvf+Du0fpe/lyczKx47c3y7Su1qRpcl+3bh169uyJEydOoH598wZEWSu53wosSe63Emsk91uBJcm9rFiS3MuKNZK7s7Nlcu/Yy/Lkvv13x0numnbL9+jRA+LcwtzETkRERDdnF6PliYiIypToo7Y0HAiTOxEROT1jo9/NDUfC5E5ERM4vX5+dLQ0HwuRORETkZJjciYjI+YmGt6XhQJjciYjI6YlnDxq7jm5yFPwYh8HkTkRE5GSY3ImIyPmJ57VZGg6EyZ2IiJye0a52M8ORMLkTERE5GSZ3IiJyfqLlbWk4ECZ3IiJyei46ncXhSPT1dbAaK5wVzrG5eHiqJfuhy7HtfN2OKqd7a7VkPzz+2KuW7EfPI8lqyX6sbWJfs5nZcla4O7pMgru7BbPC5WZiy6a3OCscERGR3ci3QjgQJnciInJ6xbvYSxOOhMmdiIicn2FQnCXhQJjciYiInAyTOxEROT/RrW5pmOGvv/5Cnz59EBoaChcXF/z0009qSwExlv3NN99E1apV4ePjg+7duyMqKkpttRyTOxEROT1jT5wzN8yRlpaG5s2b49NPP1UlRc2YMQOzZ8/GZ599hp07d8LPzw89e/ZEZmam2sMyTO5ERERW1qtXL7z99tt44IEHVMl1otX+4Ycf4o033kC/fv3QrFkzLFq0COfPn7+hhV9aTO5EROT8Cnevlzb0xH3zhSMrK0uWm+P06dO4ePGi7Io3EPfit2/fHtu3b1cllmFyJyIip+eSb3kIYWFhMhEbYtq0aQUbzCASu1C5cmX51UCsG7ZZismdiIjIRLGxsfIpdYaYMGGC2mJfmNyJiMj5GetmNzf0xKNnC4eXl5csN0eVKlXk10uXLsmvBmLdsM1STO5EROT8RG62NKykdu3aMon/+eefqqTgWr4YNd+xY0dVYplbPrn3GRqPhTsjsSr6ED5aHYUGLdLVFu2wTiVr0i4Fk+edxOJdB7Dm7G507JGotmiL711RzRpcxNSx67H8o++wYdHXuL3VWbUFcHPLx9MP7sZXU1fi1y8XyX3Gj9iMCuW1ec3s5b2L/spTTvBybHpBizDjnItcNxYX17rLfWzJHo9xe5SamooDBw7IEMQgOrEcExMj73t/8cUX5Wj6X375BYcPH8bjjz8u74m///775f6W0iy55+XlYeLEifIMRtzAX7duXUyZMgW2nKTuzr6JGDHpPBbPqoJRPesjOtIbU5dEo1yFHLWH7bFOpvH2zcPpY774dGJNVaI9vnc38vbKwamYYMxedGNrxNszF+G1/sU3PzfHsxP7YdLsuxBW9Sre1p8M2Jq9vHdXD7si7ntP+NfPUyX616mKDl02pRSJuqMy4earQ8gduWov27DHY9xUxp4Vb26YY8+ePWjZsqUM4aWXXpLL4sE1wmuvvYYxY8ZgxIgRaNu2rTwZWLNmDby9Sz9zXWGaJfd3330Xc+fOxSeffIJjx47JdXFT/8cff6z2KHv9R8RjzZJgrFsWjJgob8weVx1ZGS7oOSRB7WF7rJNp9mwqj4XvV8e2tUGqRHt8726061AYvv6xNbburaVKrkvL8MRrM+7B5l11EHuxHI6dqiRPAhrU/heVKqSqvWzDHt673HTg0HgfNJ6cAY/A64nExQ3wCtEVict/eqBKzxy4+6qdbMQej3GTieRsaZihS5cu+m/R3RALFiyQ20Xr/X//+58cHS8eXPPHH3+gfv36cps1aJbct23bJm/e7927N2rVqoWBAweiR48e2LVrl9qjbLl75CO8WTr2bQlQJeK9c8F+/XpEa/1fmQZYJ8fF9846/HyzkZ8PpKbZbr5/e3mdjr3tjYqdc1Gh4/VWuzFXj7oi5bgbqvW3bWvZ4T8LRG4Wt7OVNszL7ZrTLLnfdtttcjDByZMn5frBgwexdetW+VQfWwgMzoObO5B0peg1q8R4dwRVtG1XlwHr5Lj43lnOwyMXIx7cgw076iA903bJ3R5epwu/uSP5mBvCXyz5gSjnVnjCr04eglr+90mAtfGzwLFoltzHjx+PwYMHo2HDhvo/ag95LUIMMHjkkUfUHkWJpwAVfzIQETkHMbhu0qiNcHEBPlxwmyq9NWRccMHx6d5oNj0DbiXcVZWXKU4EPFDdxq12Z2DsGrq54Ug0S+7Lly/H4sWLsWTJEuzbtw8LFy7E+++/L78aI54CVPipQOIpQZZITnBDnv5ks3yxM86gkFwkFjsztRXWyXHxvSu9gsS+AZVDUvHqjJ42bbULWr9OyZFuyE5wxfYH/bCueYCMxD3uiFnsKZd1hRrol9Z5IC8DCO1r++Tu8J8FIjeLBF3qKPgxjkKz5P7qq69ea703bdoUjz32GMaOHXvTR/mJpwAVfiqQeEqQJXJzXBF1yBctO6WoEjHAQYcWnVIRudfGo1QU1slx8b0rHUNir1YlGa+8ew+SU60zUtgcWr9OFTrk4raVqej4Q9q1CGych6q9c+SyGFBnELfCA5W65sIz2PaZhp8FjkWz5J6eng5X16K/3s3NDfliNI0R4ilAxZ8MZKkVX4Sg18MJ6D4oAWH1MjFmehy8ffOxbmmw2sP2WCfTiFvh6kSkyxCqhGXJ5Yqh5k/iYC18724kboWrW+NfGULViilyWYyGF4l98pgNqF/7X0yde6f+80CHoHLpMtzdbHs9WcvXyd0PCAjPLxJuPjp4lNfJZYO0GBck7nVDtQHZqsT27PEYN5nR1riZ4UBcdGJsvgaGDh0qh/5//vnnaNy4Mfbv3y/v93vyySflbXElEdfcRfd8F/SDu4uHKjVf32HxGDjyshwQEn3UB3MmhuLEfv1fm4ZuhTq5eFjW9dqsQzJmLDuh1q5b/30FzHyljlozjy7H8g/NW+G9y+neWi2VrHnDC/jg/35Xa9et2VIPC1e2xHezvlclRY19pxcOHq+q1krm8cdetVR61n6deh4p/bigXUN9EdAwD43GXz9ZPfmhFy6s9kDndalwKWWzTDz4xlLWfJ1ydTnYhJ9lb6w1GmzGGHJFt6bj9CeN5j8q1iA3LwsbDr9bpnW1Js2Se0pKinyIzcqVK3H58mX5ZJ4hQ4bIG/w9PUv+4LdWcidtWJrcy4I1kvutwJzkbivWSO7WZklyLyvWSO7WxORedjTrlg8ICJCT1Z89exYZGRk4deqUfBSfKYmdiIjIHIVHvZc2HIlmyZ2IiMhmRHK2NBwIkzsREZGTYXInIiLnZ6wlbm44ECZ3IiJyfsaStbnhQJjciYjI+RWeBKa04UCY3ImIiJwMkzsRETk9Y7e2mRuOhMmdiIicn0jOloYDYXInIiJyMkzuRETk/PL1LW9Lw4EwuRMRkfMz1s1ubjgQJnciIiIn46LVrHCW4qxwdCtwrxmmluxHfnyCWrIf+Wlpaon+y6wz29WSfUhNycdtTS7YZFa47nWeh7urBbPC5Wfhj+jZnBWOiIjIbhTvYi9NOBAmdyIiIifD5E5ERM7P2Oh3c8OBMLkTEZHz0+VbHg6EyZ2IiJyfsWvo5oYDYXInIiJyMkzuRETk/IxdQzc3HAiTOxEROT9j3ezmhgNhciciInIyTO5EROT8RMPbWGvc5Cj4MY6CyZ2IiJyf0YRtZjgQJnciIiInc8tPHNNnaDwGjryM4Iq5iI70wZw3quHEAV+1VRusk2luhTpZMnHMw8NP4JGnotRagdizfnh2cFe1VjqWTBzz4DNxuL3Hv6heJwPZWa6I3BeIr9+riXOnfdQepWONiWNuhePJnIlj1nxQHes+Knr8VdK/b+M3HJDLyyfUQdTf5XD1kie8/PJQq1UK7ht/FpXrZcrtprDpxDGVnoK7q6cqNV9ufjb+uPwVJ44pSUpKCl588UXUrFkTPj4+uO2227B792611Tbu7JuIEZPOY/GsKhjVs77+j8cbU5dEo1yFHLWH7bFOpmGdTHPmVAAe7d39Wrz2zO1qizaatkvGqsVVMXZQM/zf0MZw98jH1PlH4eWTp/bQBo8n46rUT8fkXXuuxegfjqgtQFjTVAx+7x+M/+MAnll0TJZ9/ngE8rV9K2+ueBd7acKBaJbcn3rqKaxfvx7ffPMNDh8+jB49eqB79+44d+6c2qPs9R8RjzVLgrFuWTBiorwxe1x1ZGW4oOcQ7aa0ZJ1MwzqZJj/PBYkJ3tci+WrpWy7WMHF4BP5YUQkx//ji9HE/zBoXjsrVshHeJFXtoQ0eT8a5uukQWCnnWvgH56otQMeHL6Nu+xQEh2WhepM09Ho5FknnvZAQV/ppVcl6NEnuGRkZ+PHHHzFjxgx07twZ9erVw+TJk+XXuXPnqr3KlmgxhDdLx74tAapEnJi5YL9+PaJ1uiqxLdbJNKyT6ULD0rDol/WY98MGvDJ5HypWzlBb7IOvf0GySElyl1+1wOPp5uLPeGNyu9Z4+46W+PaFekg8Z/zkMCvdFbu+r6hP9JkoXzVbldoZYy1xc8OBaJLcc3NzkZeXB29vb1VSQHTPb926Va2VrcDgPLjpP0+SrhT9UEmMd0dQxetnp7bEOpmGdTLNiaNB+ODt5nhzbHt8+l4TVAnNwIy52+Djq019inNx0eGZN87g6J4AnI3yU6W2x+PJuJotUjH4/X8wYuExDHw7Ggmx3vjkwSbITL2eNv7+pjLGR7TDhIj2OL4pCM9+Gwl3TztNgsaeOGduOBBNkntAQAA6duyIKVOm4Pz58zLRf/vtt9i+fTsuXLig9ioqKytLDowoHER0c3t3VMLWDaE4cyoQ+3ZWwqSX2sEvIAd33HVe7aGtUZOjUSs8HdPH1lclZE8adU1Ci94JCG2UjoZ3XsXT848hI9kNB34NUXsArfrF4+VfD2HUsiOoWCcDi0bVR06mi9pqX3S6fIvDkWh2zV1caxcD9atVqwYvLy/Mnj0bQ4YMgaur8SpNmzZNjng0RFhY6UcRC8kJbsjTnwCXL3YWHBSSi8RiZ8u2wjqZhnUqnbRUD5yL8UPV6paPLLfUyDej0a5rIsY91hjxF7W9RsvjyTQ+5fJQsXam7Ko38AksKBPX3p+YcxKXT/ng8NpgtZW0pFlyr1u3LjZv3ozU1FTExsZi165dyMnJQZ06ddQeRU2YMEHegmAI8T2WyM1xRdQhX7TslKJKCroJW3RKReRebW5/YZ1MwzqVjrdPrj6xpyMhvujlMNvSycR+290JGK9P7JfitKxLAR5PpslKc0X8WW8EVrrJNXVdwWXp3GzN0sp/E5Uz1tVuavCau3n8/PQtiapVkZiYiLVr16Jfv35qS1GidS/uLSwcllrxRQh6PZyA7oMSEFYvE2Omx8HbNx/rlmp35sk6mYZ1KtnwMZFo0vJfVKqSjkZNE/DG9D0Qo+c3rw9Ve9ie6Irv1u8KZrwcjow0N31LNFuGp5e290/xeLrRL1Nr4p8dgUiI9cLpvf6Y/0wDOXq+Vd94/BvjhT8+DUXsYT85yE5sXziqPjy889Goa6L6CXZGJGdLw4Fo9hAbkcjFr27QoAH++ecfvPrqq3KA3ZYtW+DhUfJDaQwPJrD0ITZ9hxU8JEIMUok+6oM5E0NxYr92g3sE1sk0t0KdLHmIzWv/24cmLf5FYLkcXE3yxNGDwVj0eQNcPGfZa2TJQ2x+j9qmloqaOa6evEWutKzxEJtb4Xgy5yE2i0aHI3pXINKS3OEfnIPabVJw76sxCKmZhauXPLBsXF3EHfFDxlV3BITkoE67ZPR4Pg6V6trnQ2zuKveYPldY8BAbXTb+vPqNwzzERrPkvnz5ctnVHhcXh+DgYAwYMABTp06Vb4IprJXcieyZJcm9rFiS3MuKNZL7rcCc5G4LNk3uAY9YntxTFjtMctesW/7BBx/EqVOn5Ch4MUL+k08+MTmxExERmcXQtW5JOBA7HflAREREpcXkTkRETk+Xn29xOBImdyIicn7GutnNDQfC5E5ERORkmNyJiMj5GXswjbnhQJjciYjI+cmu9XwLgsmdiIjIruj0LW9Lw5EwuRMRETkZJnciInJ+RrvazYxS+PTTT1GrVi35ePX27dvLSdJsgcmdiIicnrFudnPDXMuWLcNLL72ESZMmYd++fWjevDl69uyJy5cvqz3KDpM7ERFRGZg1axaefvppDBs2DBEREfjss8/g6+uLr7/+Wu1RdjSbOMZS4uH95cuXRyfcC3dw4hhyTu41qqkl+5H/r/1N6Zmflq6W6L+8c8Q2XcKmSkvNx90dLiEpKanM5hYxTBxjaa7IRQ624jfExsYWmThGTEcuorjs7GyZyH/44Qfcf//9qhR44okn5L/3559/ViVlRCR3R6R/gcVJCYPBYDAcPMTneVnJyMjQValSxejvNTf8/f1vKJs0aZL6TUWdO3dObt+2bZsqKfDqq6/q2rVrp9bKjsO23PPz83H+/HkEBATAxcVFlZaOOLMLCwu74YxMS6yTaVinkvE1Mg3rZBpr1kmkn5SUFISGhsLVteyuEmdmZsqWtKVEfYvnm5u13EV+qlatGvTJHR07dlSlwGuvvYbNmzdj586dqqRsOGxytyZxsIpuG3uap5d1Mg3rVDK+RqZhnUxjj3WyR1p3y3NAHRERkZV5enqidevW+PPPP1VJQY+zWC/cki8rTO5ERERlQNwG9+WXX2LhwoU4duwYRo4cibS0NDl6vqy5TdZTy7c0Nzc3dOnSBe7u7qpEe6yTaVinkvE1Mg3rZBp7rJM9atKkibyra+rUqXj//fdl2eLFi9GgQQO5XJZ4zZ2IiMjJsFueiIjIyTC5ExERORkmdyIiIifD5E5ERORkbvnkrtV0fDfz119/oU+fPvKJTeJJSD/99JPaoo1p06ahbdu28kmAlSpVkg9jOHHihNqqjblz56JZs2byARoixD2jv//+u9pqH6ZPny7fvxdffFGV2J64EUbUoXA0bNhQbdXOuXPn8Oijj6JChQrw8fFB06ZNsWfPHrXV9sTff/HXScSoUaPUHraXl5eHiRMnonbt2vI1qlu3LqZMmSKfkKYl8TQ5cUzXrFlT1uu2227D7t271VayJ7d0ctdyOr6bEfdAinqIkw57IB6TKD7kduzYgfXr1yMnJwc9evSQ9dRK9erVZfLcu3evTArdunVDv379cPToUbWHtsSH3eeffy5PQLTWuHFjXLhw4Vps3bpVbdFGYmIibr/9dnh4eMgTssjISMycORNBQUFqD9sT71fh10gc58KgQYPkVy28++678iT2k08+kfdHi/UZM2bg448/Vnto46mnnpKvzzfffIPDhw/Lz4Lu3bvLEzayM+JWuFuVeHi/PnGpNZ1Of7as07eYdfrWqirRlnh7Vq5cqdbsg/7ER9ZLn/RViX3QJwfdV199pda0o2/Z6MLDw3X6D0DdnXfeqXvhhRfUFtsTE1roTxTVmn0YN26crlOnTmrNPon3TN9S1uXn56sS2+vdu7fuySefVGsF+vfvr3vkkUfUmu2lp6fr3NzcdKtXr1YlBVq1aqV7/fXX1RrZi1u25S6e+ytafuKs00BMXCDWt2/frkqoOPE8aSE4OFh+1Zrovly6dKnsSbDFIx1LIno59B/MRY4rLUVFRclLPHXq1IE+MSAmJkZt0cYvv/yCNm3ayFaxuMzTsmVL+QQveyE+F7799lvoE6vsmteK6O4Wjyk9efKkXD948KDsdenVq5dc10Jubq78exOXMAsT3fNa9wjRjW7Z5B4fHy8P1MqVK6uSAmL94sWLao0KE89FFtfbRLeqePKSlkSXoL+/v5yN6dlnn8XKlSsRERGhtmpDnGSIyztinII9EGNIFixYgDVr1sgu3tOnT+OOO+6Q1021Eh0dLesSHh6OtWvXysdxPv/88/LxnPZAjHERk3oMHTpUlWhj/PjxGDx4sBwjIS5hiJMg8bcnTtC0IsbdiBNoce1fzHgmPj/FiZBoDInLGWRnVAv+lqP1XLumEPWzp255fRLV1axZs0znXjZVVlaWTt8q1e3Zs0en/yDUhYSE6I4ePaq22p6+RazTt0R1+haWKtFp3i1fXGJioi4wMFDTyxf6RKXTJwi1VmDMmDG6Dh06qDVt9ejRQ3ffffepNe189913uurVq8uvhw4d0i1atEgXHBys05+sqT208c8//+g6d+4sP5tEF33btm3lpQL9SYjag+zFLdty1ycD+XzkS5cuqZICYr1KlSpqjQxGjx6N1atXY+PGjXJAm9bEjEv16tWTsy6JlrIYhPjRRx+prbYnLvGIgZitWrWSz9sWIQYjzp49Wy6LVo7WxDOu69evD/0HtCqxvapVq97Qw9KoUSPNLxcIZ8+exR9//CEHjWlN38i41noXdxM89thjGDt2rOa9QmLUvjiuU1NT5Xzu4u4iMchWXPYh+3LLJnetp+NzFPoTQJnYRbf3hg0b5K059ki8d/rWvFqzvbvuukteKjhw4MC1ENeWRTeqWBYnkloTH8inTp2SCVYr4pJO8VspxXVlcWuV1ubPny/HAYgxE1pLT0+XY4AKE8eQOM7tgZ+fnzyOxN0P4vKKuFuF7ExBA/7WtHTpUp2Xl5fs6oqMjNSNGDFCp2/d6C5evKj2sD0x2nr//v0yxNsza9YsuaxvVag9bGvkyJG6cuXK6TZt2qS7cOHCtRAjZ7UiuuHFaP3Tp0/LLkux7uLiolu3bp3awz5o3S3/8ssvy/dNvE5///23rnv37vLyhbjjQSv6lp7O3d1dN3XqVHlZZfHixTpfX1/dt99+q/bQRl5enq5GjRpyNL89eOKJJ3TVqlWTI9PF+7dixQr53r322mtqD22sWbNG9/vvv+uio6Pl35u4G6N9+/a67OxstQfZi1s6uQsff/yx/KPWt+TltfYdO3aoLdrYuHGjTOrFQ/yxa8FYXUToWzlqD9sTtwiJa//iPatYsaJO32q2u8QuaJ3cH3roIZ2+dSVfJ5EoxLq4Zqq1VatW6Zo0aSJPrMW12i+++EJt0Y6+9SmP6xMnTqgSbSUnJ8tjR3w2eXt76+rUqSNvNxNjTbS0bNkyWRdxTFWpUkXeSpyUlKS2kj3hlK9ERERO5pa95k5EROSsmNyJiIicDJM7ERGRk2FyJyIicjJM7kRERE6GyZ2IiMjJMLkTERE5GSZ3IguI2cPuv/9+tQZ06dJFzt5la5s2bZJTlIoZzW5GbBeznplq8uTJaNGihVornTNnzsjfKx7BS0S2w+ROTkckXJFQRIg5BMQEM//73//kfNRlbcWKFXJKTFOYkpCJiEqDyZ2c0j333CPnmI6KisLLL78sW6Hvvfee2lpUdna2WrJccHCwnPeaiEhLTO7klLy8vOTUvWK2sZEjR6J79+745Zdf5DZDV/rUqVMRGhqKBg0ayHIxheWDDz4op0YVSVrMdCW6lQ3EtK0vvfSS3F6hQgW89tprcta8wop3y4uZ6saNG4ewsDBZJ9GLMG/ePPlzu3btKvcJCgqSLXhRL0HM/CWm9hQz8Pn4+MjpbH/44Qe5zeC3336T07eK7eLnFK6nqUS9xM/w9fWVU3ZOnDhRTt9Z3Oeffy7rL/YTr8/Vq1fVlgJfffWVnLbV29sbDRs2xJw5c9QWItIKkzvdEkQSLNxCF1P7iqlH169fL+epF0mtZ8+estW9ZcsW/P333/D395c9AIbvmzlzJhYsWICvv/4aW7duRUJCgpwK9788/vjj+O677+S87seOHZOJUvxckSx//PFHuY+oh+hlMMxHLxL7okWL8Nlnn+Ho0aNyHu9HH31UzqMtiJOQ/v37o0+fPvJatph/XMz9bS7xbxX/nsjISPm7v/zyS3zwwQdqawEx9/vy5cuxatUqrFmzBvv378dzzz2ntgKLFy/Gm2++KU+UxL/vnXfekScJCxcuVHsQkSbExDFEzkTMoKdvdctlfStYp0/gcgayV155RZaJ7ZUrVy4yw9Y333yj07fg5f4GYrv+pEDOGCaIGdZmzJghlwX9CYGuevXq136XUHgmODHDmPgTE7/fGMMMgImJiapEp8vMzJRToG7btk2VFBg+fLhuyJAhcnnChAm6iIgIuWwgpiot/rOKE9v1JyNq7UbvvfeernXr1mpNp5s0aZLOzc1NFxcXp0p0crpPV1dXOe2vULduXd2SJUvkssGUKVN0HTt2lMtiulLxe8W0xURkO2y5k1MSrXHRQhZdxb169cJDDz0kr7sbNG3aVA62Mzh48KBspYrWrPg+EaJrXp9scerUKdkVLVrX7du3V98BuLu7o02bNmrtRqJVrU+O0Cd8VVIyUYf09HTcfffd1+ohQrTkRT0E0UIuXA9Bn0zVkumWLVuG22+/XV6+EL/jjTfeQExMjNpaoEaNGqhWrZpaK/g94rKB6G1IS0uTddKfeBSp69tvv32trkSkDSZ3ckriOrRIrmJAXUZGhuwm9vPzU1tRZFlITU2FvtUqv6dwnDx5Eg8//LDayzziUoC5RD2EX3/9tUg9RNd58evulti+fTseeeQR3HvvvfJESHS3v/7662YNLjTUVXTnF67rkSNHsGPHDrmNiLTB5E5OSSRvMXhNtDxFC7skrVq1kicClSpVkt9XOMqVKyejatWq2Llzp/oOyFvr9u7dq9ZuJHoHRCvXcK28OEPPgRioZxARESEH3okWdPF6iOv0ghi8tmvXLrlsYG4y3bZtmxxsKBK66H0IDw/H2bNn1dbrRD3Onz+v1gp+j6urqxyEWLlyZTkgMTo6+oa6isGARKQdJnciPdGKDQkJkSPkxYC606dPy/vQn3/+ecTFxcl9XnjhBUyfPl0+COb48eNyYNl/3aNeq1YtPPHEE3jyySfl9xh+phigJojkKkbJi5bzlStXZEtYXBZ45ZVX5CA60dsgurf37duHjz/++NogtWeffVaeiLz66quye3zJkiVyYJw5RDIXiXvp0qXyd4gBf8YGB4rLGuLfIC5biNdFvB5ixLzoyhfeeustOQBQfL/o5Th8+DDmz5+PWbNmye1EpA0mdyI9cZvXX3/9JVv6YiS6aB2La8nimntgYKDcR9wv/9hjj8lkJ649i0T8wAMPyG03M3fuXAwcOFCeCIjbxJ5++ml5rVoQ17JFchQj3UUrePTo0bJcPARHjDgXSVPUQ4zYF930htawqKMYaS9OGMRtcmJUvRilbo6+ffvKEwjxO8VT6ERLXvzO4kQrXLweovu+R48eaNasWZFb3cRIfXErnEjooqdCjC8QJxpsuRNpy0WMqlPLRERE5ATYciciInIyTO5EREROhsmdiIjIyTC5ExERORkmdyIiIifD5E5ERORkmNyJiIicCvD/7/TXj8SVnHYAAAAASUVORK5CYII=;" parent="1" vertex="1">
          <mxGeometry x="551.1600000000001" y="-73" width="237.68" height="215" as="geometry" />
        </mxCell>
        <mxCell id="TKLKwNmO7CoKAFPsbALV-1" value="" style="shape=image;verticalLabelPosition=bottom;labelBackgroundColor=default;verticalAlign=top;aspect=fixed;imageAspect=0;image=data:image/png,iVBORw0KGgoAAAANSUhEUgAAATEAAAHDCAYAAABMPy16AAAAAXNSR0IArs4c6QAAAARnQU1BAACxjwv8YQUAAAAJcEhZcwAADsMAAA7DAcdvqGQAABYuSURBVHhe7d1brKVnWQfwvfbax5m9Z6btdDo9gRSKWETSoAEuDNpCodCW4IGDAc+AkZCod0bjBXKBXhgiiFisrUQwKErAhEQREGOhQhVowZYI9DA9t9M5dGb2Ya21t/M170XB7/uel3Z3Os/090tW+iRs1vr2Wmv++7v453kHl17ygc0pgKSmy38BUhJiQGpCDEhNiAGpCTEgNSEGpCbEgNSEGJCaEANSE2JAakIMSE2IAakJMSA1IQakJsSA1IQYkJoQA1ITYkBqQgxITYgBqQkxIDUhBqQmxIDUhBiQmhADUhNiQGpCDEhNiAGpCTEgNSEGpCbEgNSEGJCaEANSE2JAakIMSE2IAakJMSA1IQakJsSA1IQYkJoQA1ITYkBqQgxITYgBqQkxIDUhBqQmxIDUhBiQmhADUhNiQGpCDEhNiAGpCTEgNSEGpCbEgNSEGJCaENtKzbv5RB/AD8Q/GyA1IQakJsSA1IQYkJoQA1ITYkBqQgxITYgBqQkxaDT/EqIHJyUfDZCaEANSE2JAakIMSE2IAakJMSA1IQakJsS20sYWPHhqtH0W3//gpCTEgNSEGJCaEANSE2JAakIMSE2IAakJMSA1IQakJsSA1IQYkJoQA1ITYkBqQgxITYgBqQkxIDUhBqQmxIDUhBiQmhADUhNiQGpCDEhNiAGpCTEgNSEGpCbEgNSeHiHW/JbRg5NX2+e11Y+t0vbcj32w5bytQGpCDEhNiAGpCTEgNSEGpCbEgNSEGJDa0yPENioemTSfWt/jVNP2eW31Y6u0PfdjH2y5U/ErDzyNCDEgNSEGpCbEgNSEGJCaEANSE2JAakIMSE2IZdRWonzsA55GhBiQmhADUhNiQGpCDEhNiAGpCTEgNSEGpCbEgNSeHiE2GMSPYfBo+//8oI/m3Y4eW6Hteb//0XZ9j31AEs3XGSAtIQakJsSA1IQYkJoQA1ITYkBqQgxIbXDpJR/YLPOpqyaqg27U4AR1pzY3tmCrYcVTzCzOlqndeH1cph6bwVfHgkZOAHdiQGpCDEhNiAGpCTEgNSEGpCbEgNSEGJCaEANSe9xl10GzKDCwGZQdB8My9NjceOKFysFMnNXTwe8zM99fDn1UUP7cmMQXO1odlanbYLr/WsP37Liq3ycwXomvFZ5s7sSA1IQYkJoQA1ITYkBqQgxITYgBqQkxILXH3RObWZgpU4+oSlbxypNxf7dqOuhMNYZz8bUunrZQpnZnXbC7TN2WdvY/x/13HCxTt7tvvrtM3aaH0d+eig5f0GmLenONyWhSpg6WInICuBMDUhNiQGpCDEhNiAGpCTEgNSEGpCbEgNSEGJDa4y67DufjAml0mnXNqdqT9f5CZc1yxoru59T80nyZ2u25cE+Zuu09f2eZ2j14zyNl6rbv6xVl12gpYnQy93HRz4xXgyJro+J14MnmTgxITYgBqQkxIDUhBqQmxIDUhBiQmhADUhtc+vLHuRSxYtFgeIhrRU9sYxL0lSquPl4iGPfNFpb7Fx42hrP9pwGvH1svU7dRxYG00eG5NQfwWljIqcKdGJCaEANSE2JAakIMSE2IAakJMSA1IQakJsSA1AaXXX51a1006qHWFEjDU6Zn+suhjfHauEztZubi56g5rTz6fZZ2by9Tt9VH1srU7siDR8rUbXo2fl9Hx/rLrDVLEY9/wuW/7eqeI1BTqLVYkSfInRiQmhADUhNiQGpCDEhNiAGpCTEgNSEGpDa4/KprWos6k1F/P6tmoeHmpL8otLAjXjS4cmi1TO0qLqNKdJDv9oqe2Oakv/M0Xg/e0+NmF2fL1G31cH8fbbxWsVgx+H1rDiUOD9it+RMZvGePip7HgsenNXdiQGpCDEhNiAGpCTEgNSEGpCbEgNSEGJCaEANSG1z26valiBvj/gbhcKYi/4JC5c5zdpSp27EDx8rUrubE7PAk8uOi07ujcmhjIyj3Rid3N6LraKwHSxEnwSLJRwUfX83Sy41R0DKtaSLXLEWMLkXZ9WnNnRiQmhADUhNiQGpCDEhNiAGpCTEgNSEGpCbEgNQGl73qLyrahv/f7LZ4A+nMfP/J28OKE8BHUXGzoixZUzKNNqrWlHvXjwYl1EmwCfW4yVr8M2tH+ze7Tm1WlEyjX6dm42pkq8qu0MOdGJCaEANSE2JAakIMSE2IAakJMSA1IQak1tkTm6z395Xmts+Vqdtm0AEKO2AVapYVTlf0xKaDHtjMQn/nrREtX6y51uh9b6wfXS9Tu+Fc3L+LFjhGp5nDycKdGJCaEANSE2JAakIMSE2IAakJMSA1IQakJsSA1AaveOUHW1uN0enOw/mKQmVwinhNnTKqh1aVMitKpoMgzmcX4iWQ88vzZWo3Wo1PKx+vxgXg8ai/EFtT7t2S07sHwXvvZG5OAHdiQGpCDEhNiAGpCTEgNSEGpCbEgNSEGJDa4LLL25ciRgv+pisOvt0MFu/VLACMTM/GORx2oo6LnmfbadvK1G3XubvK9PhFiyQbq4dXytTuyINHy9RtMOzvgY1W4r7aZBx8fhYrcgK4EwNSE2JAakIMSE2IAakJMSA1IQakJsSA1IQYkNrg8iv/srWROL/Uv+BvqmLxXnRS9fqx/v+9MTvff/L2+kr8HMOKYm6oYkng8t6lMrUbHYuXIladrD7uL5HWnFYenXj+8O0Pl6nbeO2Jl5WnKsq90MedGJCaEANSE2JAakIMSE2IAakJMSA1IQakNnjla65uLerMbevvK+3Yu6NM3VYfWS1Tu5rlfXsuPLNM7fZX9Jl2nLVcpm7Duf4u2cN3HChTtx17+1/n4N0Hy9StZlHk0p7+19l5TvzZRO79xn1l6tPf8YoWaza2oiZWd4DyFryQw4BPSu7EgNSEGJCaEANSE2JAakIMSE2IAakJMSA1IQakNnjFKz/Y2gKMlvNtOz0+EXsy6i9uHr73kTJ1W97Tv2hw9VB/obYxvxwseDxu+xnby9RutBovNJxdmC1Tu6MPxeXemoWGl/7sC8rU7oJnxieRX/tnXypTu/237S9Tt+g7MlqJ37Ma08P+IvJkFJ9WPgiWeE62YsEjTwl3YkBqQgxITYgBqQkxIDUhBqQmxIDUhBiQmhADUhtcflX7CeBRmXVmLi5lRgXDlYMrZeoWnRK+XLG19cgDR8rUbfvu/rLrrrN3lqnbnnP7r2XHroUydbv5S/vK1G0431/+fM7zzypTt3/78H+Vqd1gGJ94Pj3s/xs4GVcUSCtOVo9Oga8pIg+D7+tkPS7MVrH99YRzJwakJsSA1IQYkJoQA1ITYkBqQgxITYgBqQ1+5i0fae2JbYz7Cy9nPy/uIu08vb8XNRf0fxp7zupfinjRhbvL1O2W78QL/k7btVimdpdcFC9wXP3E+8rU7p7P3lambkd/72/K1O29f/DPZWq346z4BPCXXfEjZWr3qQ/9Z5m6zQYLHNeP9nf8GuOKftb8Uv9Sy5rli+No6eFWnBDe2Ax6b1tx5Dnfw50YkJoQA1ITYkBqQgxITYgBqQkxIDUhBqQmxIDUBq9/68da23e7zz+tTO3e/auHy9Tt1393rUztnv2ic8vU7YcuOKNM7YbBYr7GXfsOlqnbsy44vUztrnrhvWXqduC6q8vU7v4vx8/xo394ZZm6XXfLpWVq98s/8fUydbvpHR8qU7vF932yTN3Gk/7i5ueu/26Zut12y0Nl6jYIFicevO9Qmbodvqf/+zpZjxc4Ts/G37XNoMy6Oa4ou0YvY/Hi93AnBqQmxIDUhBiQmhADUhNiQGpCDEhNiAGpDd70mx9vLa5EB6O+/NPvKlO30fs/WqZ2558TL+/bGSzE+/a+A2Xq9pXr7yxTt+98+Y4ytdt5bnx47lW/cHGZ2j37vPg5lubiA4Xnh6tlajf/hT8pU7e5n35LmdrtH51Xpm4bwd/Ar347/l2u/1zcJRsFHa7DD8YLKw8FPbFxxWLFqp7YRtATC7p1jejg4oqm2dRUxeucKtyJAakJMSA1IQakJsSA1IQYkJoQA1ITYkBqQgxIbfCVO/a3tuL+6toby9TunW97fpm67bn7mjK1+/xbP1Wmbhf+06fL1O6ZU58pU7eP3dRfQm18/lPfLFO77adtL1O39/zOcpnajW/4+zJ1i4qOjY+8+XNlavfiS/oXSTa+8No/LlO7i3/snDJ1u//Bo2Vq9z8331embrd+8fYyddvc6N8CGC1NbIzX+k8a36goh0bX0diYBD9TsdBwMBPcW1ScIl5Tqj1VuBMDUhNiQGpCDEhNiAGpCTEgNSEGpCbEgNQGX9t3f2uh5Ly5m8rU7l3XxN2cN77hhWVqt/L2K8rU7RM/9e4ytdu2PFembnfe8kCZus1t63+eySg+XPUdv/2TZWp30fQ/lqnb6q23lKnbx3/ls2Vqd+V7Xlymbp/c+c4ytbv4orPL1O36G/sXSd7+rf1l6nbXN+IDhbef0d/RG6/2d8Aaw4VhmdotLi2UqdvK4XjJ45GgO7e+sl6mbtPT/fcWk6iL1oi6ZJvxv9+pQUXXrOJSnmzuxIDUhBiQmhADUhNiQGpCDEhNiAGpCTEgNSEGpDZ4w9v+rrXR9kvveGmZ2t11T3zq8tFja2Vq94svvatM3d70a/eUqd3e551Vpm6H7u0//bnx3Jc8o0ztbvrM/5ap27N+/PwytZuZ7S9cNlaOxidRn7G3v/y5sDhbpm63fnlfmdrtfsZpZer20J0Pl6ndRnAaduPAHQfL1G15b/+yydVDcQk1srhrsUx94oLoevCdXz3U/783BsHXZHNcUUIN1CzfzLJY0Z0YkJoQA1ITYkBqQgxITYgBqQkxIDUhBqQmxIDUBu+69obWRts3b7izTO1+47f6t5g2vvrN/hOgFxfiUuYNX/humdq97LLnlqnbfffHZdc9Z/YXKr91y/1l6ra8s3876AN3xwXh2/67v4TaqNlkGhkHm2qHw/jv22awPXRmfqZM3daPxJtOoxOxo+t4VPQzW7ShdDjX31SdrMcbgiPhCeHHbY77f6GteI6ThTsxIDUhBqQmxIDUhBiQmhADUhNiQGpCDEht8Ed/e2NrgeZfr7uxTO1+/09fV6ZuV7//+jK126jooUQLDReW58vUbXZb3EeL+juLO+OleYvBtTzyUP/p0I2aBY7j1f7FiRsb8fsaVqtqulfBy5ywxXsVf4qHwULKmYW407Yxit/XQXB693gtXnq5GSyTnK7o8EWnhNf0AKtOGj8JFie6EwNSE2JAakIMSE2IAakJMSA1IQakJsSA1IQYkNrgip+7trWttnq4/6Ti17z9JWXq9rUv9i9WPH3vUpm67QuWEc4tzpWp22A6Ll0eO3CsTO127N1Rpm6rh1fL1G60Ehcdo+tojFaCpYgVRdXhfH/5s6aIvBn8yHCu4m9kRVcyKs1WXWvwOoP4K1JlNvg+1pRdo/ekZgnkRlBUrfk3UfPZnAynhLsTA1ITYkBqQgxITYgBqQkxIDUhBqQmxIDUBq9780daix5RX+ncF5xTpm5LO/qXBM4EB402FoOFhrff8kCZup1xdtzxOhYc4jpXsTTv0AP9h+NOKvpMh++LD9hdO9rf4avpic1tC/p1FfWfaJHg0u64BxgtK2xMBz2x1Uf6+3mNteDzHVccart2JH6d6WAp4nTFobUzwaHSk7X48OT1o8GhxBULK7diMeaJ4E4MSE2IAakJMSA1IQakJsSA1IQYkJoQA1ITYkBqg2v+5dbWRtvH3vvvZWq35zlnlqnbZNRfyjuw72CZus0u9hf/ju2PlwjO71go0+O3dOb2MnVbDwqVFdXB488RFFmPm4yDYmbFhr9B8DM1SwKjz2aq4jlm5uIScVhEDU7MflRwLdESwcboWMXp3UFBdDYosjbmtvcXkWuu9diBlTK1iwrEjZrX2Yw6woOKz2YzuJbgPXUnBqQmxIDUhBiQmhADUhNiQGpCDEhNiAGpDd7z0RtbSxj/8Q83l6ndi171w2Xqdv9dh8vUbn0tXkQ3GfX/zPadcQfs8P6jZeq2GXSNavpMmxv9vZptFX21mj104+A9Wa84pDdaJFjTiRoFB8GOt+DzbcwvxQckR6KDfqPPrjGpWJxY8zOhoMM1XXPwbWBmPv4+rx8LFis24rftSedODEhNiAGpCTEgNSEGpCbEgNSEGJCaEANSE2JAaoPLXn11a73yGRefV6Z2u87YVqZuDwRLD7fvXCxTt/XgtONoud+jKn5mHCxwnK0ou84GJ5ov7ew/Eb2xXFHeHQWFyrXV+IToI4f6y67RieiNqDC7UXHiec3ixOUz+k8Sr1rwF5SZR+vxe7b2SLyw8mhQrI5K1Y3o9O66ZYX9rzOcj09en1SUlU8G7sSA1IQYkJoQA1ITYkBqQgxITYgBqQkxILXBla+/rrVQsm1Xfw+sZpld1JmJDgltrAZ9pnFFJ6omqmfm+w81rVnMN7ut/zmGM3E3p2b54urh/vekZinieLX/Z2q6SGFHr6KfN1PRV4oO6R3Obs37GokOxm2sBYcf13TnxkE3suY5av59RuLf9rigj3YiuBMDUhNiQGpCDEhNiAGpCTEgNSEGpCbEgNSEGJDa4LVv/HBrWy0qog4qTiGOiqgLFSdiR69TdR1BebARvk5FcXN6pv9vQs3JzdMVxc1osV7Nyc2TYAngqKJEHL6vNe9ZxULDYbBssuaziX6mpkAafb6NLSmZBv3RzYoicvQdqHnPahY4Rr9vtIzyUcEvHJWM3YkBqQkxIDUhBqQmxIDUhBiQmhADUhNiQGpCDEht8KorPtTaJNtWccJ3ZGMUlPIqCncLS/2nZo8ryoU1ZdeZoFBZI9pAOjtfsV204j2ZW+h/nZoNpKMt2OwaFWJrnmN6GP8djX6fmsJztKZ0XHECeN21lqFDTbk3utaNjfh9jU4rr9mGW/UdONb/PZqMK8q/we87Ca7DnRiQmhADUhNiQGpCDEhNiAGpCTEgNSEGpDa48vV/3drSWAtOmV7ctVimblH3ZjOuoUxNz/T3alYO9F9nI3qORrS8bVjREYq6NzNBj6xRs/AuWs5XdUL0erDMruI6oqV5k6gneNyg4s9o9D0ZVFX8ou9AUFY6bnq64mKDl6npmkVqFhpG//YGNZ23iu9AuPSworM4tRn8PpYiAqcyIQakJsSA1IQYkJoQA1ITYkBqQgxITYgBqQ2u/PnrWptk0VK15b3LZXr8ahazRQvvahYezgZLBBvRksCa4uZGsACupuhYtUhw5okvcIzUnGQdFmYrFuJtTCrKkKGaQmX5b4eak6prlk1ORb9PzW1DUP6sKghvyfuagzsxIDUhBqQmxIDUhBiQmhADUhNiQGpCDEht8PLL/ry1UBItXqvpeEW9qGi5X42a6s5WLN6rWRAXXUvFLrs6wRPV/L6Rmp5R1GmLliY2qrpXFT8SiV6n5jo249pb80RleAK24tYi/rqeMrbi7QJ4yggxIDUhBqQmxIDUhBiQmhADUhNiQGpCDEhtcOklH9iCdh7AU8OdGJCaEANSE2JAakIMSE2IAakJMSA1IQak9iSHWFNB63sAPDHuxIDUhBiQmhADUhNiQGpCDEhNiAGpCTEgNSEGJDY19X88R6b1vJsdsAAAAABJRU5ErkJggg==;" parent="1" vertex="1">
          <mxGeometry x="145.28" y="-70" width="149.45" height="221" as="geometry" />
        </mxCell>
      </root>
    </mxGraphModel>
  </diagram>
</mxfile>
